#N canvas 48 139 683 674 10;
#X obj 310 373 *~ 0.5;
#X obj 277 210 +~;
#X obj 276 182 inlet~;
#X floatatom 343 326 5 0 100 0 - - -, f 5;
#X text 319 181 input;
#X obj 153 359 outlet~;
#X obj 343 282 inlet;
#X text 381 282 fb;
#X obj 343 347 / 100;
#X text 277 99 fb;
#X obj 152 281 vd~ mydelay2-\$0 1000;
#X obj 278 242 delwrite~ mydelay2-\$0 1000;
#X obj 343 305 min 90;
#X text 394 305 limits to max value of 0.9;
#X text 199 100 in;
#X text 160 114 allpass delay;
#X obj 224 219 *~ -1;
#X obj 224 243 *~ 0.5;
#X obj 153 329 +~;
#X obj 151 176 inlet~;
#X text 192 175 delay (in ms);
#X text 102 101 delay(ms);
#X text 108 156 make delay changes slow;
#X obj 152 248 lop~ 1;
#X connect 0 0 1 1;
#X connect 1 0 11 0;
#X connect 2 0 1 0;
#X connect 2 0 16 0;
#X connect 3 0 8 0;
#X connect 6 0 12 0;
#X connect 8 0 0 1;
#X connect 8 0 17 1;
#X connect 10 0 18 0;
#X connect 12 0 3 0;
#X connect 16 0 17 0;
#X connect 17 0 18 1;
#X connect 18 0 5 0;
#X connect 18 0 0 0;
#X connect 19 0 23 0;
#X connect 23 0 10 0;
#X coords 0 -1 1 1 200 30 2 100 100;
