#N canvas 1 53 1904 1021 10;
#X obj 34 515 mtof;
#X obj 34 541 phasor~;
#X obj 699 718 bob~;
#X obj 700 483 mtof;
#X obj 727 60 vsl 15 128 0 127 0 0 empty empty cutoff 0 -9 0 10 -262144
-1 -1 5600 1;
#X obj -2 56 vsl 15 128 0 50 0 0 empty empty oscf 0 -9 0 10 -262144
-1 -1 0 1;
#X obj 700 508 pack 0 50;
#X obj 700 535 line~;
#X obj 706 871 dac~;
#X floatatom 513 849 5 1 10 0 - - -, f 5;
#X msg 513 876 oversample \$1;
#X obj 513 797 loadbang;
#X msg 513 822 2;
#X text 511 779 oversampling;
#X floatatom 761 601 5 0 200 0 - - -, f 5;
#X obj 761 623 / 25;
#X obj 760 651 line~;
#X obj 816 384 line~;
#X obj 816 352 pack;
#X floatatom 852 328 5 0 0 0 - - -, f 5;
#X obj 815 415 mtof~;
#X obj 701 562 +~;
#X obj 808 61 vsl 15 128 1.27 127 1 0 empty empty env 0 -9 0 10 -262144
-1 -1 5400 1;
#X obj 788 235 / 127;
#X obj 815 441 *~;
#X obj 811 286 t b b b;
#X obj 855 117 bng 15 250 50 0 empty empty trig 17 7 0 10 -262144 -1
-1;
#X msg 780 326 127;
#X msg 816 326 0;
#X obj 833 61 vsl 15 128 10 4000 0 0 empty empty decay 0 -9 0 10 -262144
-1 -1 8880 1;
#X obj 752 61 vsl 15 128 1 200 1 0 empty empty res 0 -9 0 10 -262144
-1 -1 10705 1;
#X obj 929 346 phasor~;
#X obj 901 59 vsl 15 128 0.1 30 1 0 empty empty lfof 0 -9 0 10 -262144
-1 -1 0 1;
#X obj 700 588 +~;
#X obj 927 59 vsl 15 128 0.1 120 1 0 empty empty lfo 0 -9 0 10 -262144
-1 -1 0 1;
#X obj 929 476 *~;
#X obj 930 450 exp~;
#X obj 931 399 abs~;
#X obj 930 370 -~ 0.5;
#X obj 930 427 *~ 10;
#X obj 951 206 / 2;
#X obj 537 672 +~;
#X obj 22 57 vsl 15 128 0 127 0 0 empty empty oscfine 0 -9 0 10 -262144
-1 -1 8000 1;
#X obj 43 432 / 100;
#X obj 25 462 +;
#X obj 59 457 bng 15 250 50 0 empty empty empty 17 7 0 10 -262144 -1
-1;
#X obj 35 572 *~ 0.7;
#X obj 99 58 vsl 15 128 0 1 0 0 empty empty square 0 -9 0 10 -262144
-1 -1 12700 1;
#X obj 49 58 vsl 15 128 0 1 0 0 empty empty saw 0 -9 0 10 -262144 -1
-1 0 1;
#X obj 35 594 *~;
#X obj 36 621 +~;
#X obj -96 617 *~;
#X obj 125 59 vsl 15 128 0.5 0.1 1 0 empty empty pw 0 -9 0 10 -262144
-1 -1 3500 1;
#X obj -79 495 line~;
#X obj -96 547 -~;
#X obj 95 569 -~ 0.5;
#X obj 94 641 *~;
#X obj 36 653 +~;
#X obj 73 57 vsl 15 128 0 1 0 0 empty empty tri 0 -9 0 10 -262144 -1
-1 0 1;
#X obj 94 592 abs~;
#X obj -96 595 clip~ -0.25 0.25;
#X obj 553 500 mtof;
#X obj 553 528 phasor~;
#X obj 482 58 vsl 15 128 0 50 0 0 empty empty oscf 0 -9 0 10 -262144
-1 -1 0 1;
#X obj 506 59 vsl 15 128 0 127 0 0 empty empty oscfine 0 -9 0 10 -262144
-1 -1 12700 1;
#X obj 553 436 +;
#X obj 587 436 bng 15 250 50 0 empty empty empty 17 7 0 10 -262144
-1 -1;
#X obj 554 559 *~ 0.7;
#X obj 583 60 vsl 15 128 0 1 0 0 empty empty square 0 -9 0 10 -262144
-1 -1 12100 1;
#X obj 533 60 vsl 15 128 0 1 0 0 empty empty saw 0 -9 0 10 -262144
-1 -1 0 1;
#X obj 554 581 *~;
#X obj 555 608 +~;
#X obj 432 603 *~;
#X obj 432 557 *~ 400;
#X obj 609 61 vsl 15 128 0.5 0.1 1 0 empty empty pw 0 -9 0 10 -262144
-1 -1 2800 1;
#X obj 450 476 line~;
#X obj 432 533 -~;
#X obj 614 556 -~ 0.5;
#X obj 613 628 *~;
#X obj 554 640 +~;
#X obj 557 59 vsl 15 128 0 1 0 0 empty empty tri 0 -9 0 10 -262144
-1 -1 0 1;
#X obj 613 579 abs~;
#X obj 432 581 clip~ -0.25 0.25;
#X obj 154 206 phasor~;
#X obj 151 59 vsl 15 128 0.1 100 1 0 empty empty pwmf 0 -9 0 10 -262144
-1 -1 3200 1;
#X obj 177 59 vsl 15 128 0.01 1 1 0 empty empty pwm 0 -9 0 10 -262144
-1 -1 11300 1;
#X obj 156 290 *~;
#X obj 156 259 abs~;
#X obj 155 230 -~ 0.5;
#X obj -79 522 +~;
#X obj 638 208 phasor~;
#X obj 635 61 vsl 15 128 0.1 100 1 0 empty empty pwmf 0 -9 0 10 -262144
-1 -1 4200 1;
#X obj 661 61 vsl 15 128 0.1 1 1 0 empty empty pwm 0 -9 0 10 -262144
-1 -1 9500 1;
#X obj 640 292 *~;
#X obj 640 261 abs~;
#X obj 639 232 -~ 0.5;
#X obj 450 504 +~;
#X floatatom 1160 600 5 0 100 0 - - -, f 5;
#X floatatom 978 602 5 0 0 0 - - -, f 5;
#X obj 701 816 +~;
#X obj 731 816 +~;
#X floatatom 1179 489 5 0 100 0 - - -, f 5;
#X floatatom 997 484 5 0 0 0 - - -, f 5;
#X obj 519 382 +;
#X obj 0 421 +;
#X obj -2 394 bng 15 250 50 0 empty empty empty 17 7 0 10 -262144 -1
-1;
#X obj 518 355 bng 15 250 50 0 empty empty empty 17 7 0 10 -262144
-1 -1;
#X obj 35 682 +~;
#X obj 27 489 +;
#X obj 309 206 phasor~;
#X obj 306 59 vsl 15 128 0.1 10 1 0 empty empty modf 0 -9 0 10 -262144
-1 -1 6853 1;
#X obj 332 59 vsl 15 128 0.2 20 0 0 empty empty mod 0 -9 0 10 -262144
-1 -1 6286 1;
#X obj 311 290 *~;
#X obj 311 259 abs~;
#X obj 310 230 -~ 0.5;
#X obj 262 377 snapshot~;
#X obj 278 351 metro 10;
#X obj 278 319 loadbang;
#X obj 246 326 bng 15 250 50 0 empty empty empty 17 7 0 10 -262144
-1 -1;
#X floatatom 254 401 5 0 0 0 - - -, f 5;
#X obj 254 427 bng 15 250 50 0 empty empty empty 17 7 0 10 -262144
-1 -1;
#X obj 918 789 writesf~ 2;
#X msg 918 701 open vademo.wav;
#X msg 945 725 start;
#X msg 969 755 stop;
#X obj 165 717 notein;
#X obj 213 759 sel 0;
#X obj 253 923 tgl 15 0 empty empty empty 17 7 0 10 -262144 -1 -1 0
1;
#X floatatom 165 760 5 0 0 0 - - -, f 5;
#X msg 213 791 0;
#X msg 254 791 1;
#X floatatom 139 918 5 0 0 0 - - -, f 5;
#X obj 290 1109 bng 15 250 50 0 empty empty empty 17 7 0 10 -262144
-1 -1;
#X obj 139 848 stripnote;
#X obj 139 819 pack;
#X obj 700 772 *~;
#X obj 228 995 line~;
#X obj 228 970 pack;
#X floatatom 251 736 5 0 0 0 - - -, f 5;
#X obj 215 844 +;
#X floatatom 247 846 5 0 0 0 - - -, f 5;
#X msg 215 815 -1;
#X msg 253 815 1;
#X msg 292 816 0;
#X obj 215 871 sel 0;
#X msg 215 897 0;
#X msg 253 897 1;
#X floatatom 340 969 5 0 0 0 - - -, f 5;
#X floatatom 290 968 5 0 0 0 - - -, f 5;
#X obj 290 992 !=;
#X obj 290 1037 bng 15 250 50 0 empty empty empty 17 7 0 10 -262144
-1 -1;
#X obj 290 1014 sel 1;
#X obj 290 1059 +;
#X obj 290 1085 sel 0;
#X obj 699 673 clip~ 2 10000;
#X msg 253 944 2;
#X obj 699 624 -~ 100;
#X obj 538 697 *~ 0.4;
#X obj 538 722 hip~ 20;
#X floatatom 518 1009 5 0 999 0 - - -, f 5;
#X msg 518 1055 saturation \$1;
#X obj 518 959 loadbang;
#X obj 518 1031 / 100;
#X text 510 920 saturation point;
#X text 507 937 of "transistors";
#X msg 518 984 300;
#X obj 93 617 *~ 4;
#X obj 612 604 *~ 4;
#X obj -96 571 *~ 400;
#X obj 274 426 / 50;
#X obj 553 471 +;
#X obj 292 791 loadbang;
#X obj 977 665 *~ 0.8;
#X obj 996 552 *~ 0.8;
#X obj 700 744 *~ 0.5;
#X obj 571 411 / 200;
#X obj 189 561 karplusstrong;
#X obj 694 4 ctlin 1;
#X obj 755 -7 ctlin 2;
#X obj 755 15 * 1;
#X obj 808 -40 ctlin 3;
#X obj 829 -12 ctlin 4;
#X obj 830 22 * 40;
#X obj -65 7 ctlin 5;
#X obj -1 7 ctlin 6;
#X obj -40 31 / 2;
#X obj 457 23 / 2;
#X obj 432 -1 ctlin 7;
#X obj 496 -1 ctlin 8;
#X obj 286 -17 ctlin 9;
#X obj 286 24 / 10;
#X obj 351 -6 ctlin 10;
#X obj 1034 386 ctlin 11;
#X obj 1034 408 * 10;
#X obj 1082 589 * 10;
#X obj 1082 567 ctlin 12;
#X obj 1179 454 ctlin 13;
#X obj 1160 571 ctlin 14;
#X obj 978 624 tempodelay3;
#X obj 997 511 tempodelay3;
#X obj 898 -188 ctlin 15;
#X obj 952 23 ctlin 16;
#X floatatom 898 -86 5 0 0 0 - - -, f 5;
#X floatatom 898 -23 5 0 0 0 - - -, f 5;
#X obj 898 -108 exp;
#X obj 898 -166 / 127 0;
#X obj 898 -67 - 0.999;
#X obj 351 16 / 5;
#X obj 898 -45 * 10;
#X connect 0 0 1 0;
#X connect 1 0 46 0;
#X connect 1 0 54 0;
#X connect 1 0 55 0;
#X connect 2 0 174 0;
#X connect 3 0 6 0;
#X connect 4 0 3 0;
#X connect 5 0 104 1;
#X connect 5 0 105 0;
#X connect 6 0 7 0;
#X connect 7 0 21 0;
#X connect 9 0 10 0;
#X connect 10 0 2 0;
#X connect 11 0 12 0;
#X connect 12 0 9 0;
#X connect 14 0 15 0;
#X connect 15 0 16 0;
#X connect 16 0 2 2;
#X connect 17 0 20 0;
#X connect 18 0 17 0;
#X connect 19 0 18 1;
#X connect 20 0 24 0;
#X connect 21 0 33 0;
#X connect 22 0 23 0;
#X connect 23 0 24 1;
#X connect 24 0 21 1;
#X connect 25 0 19 0;
#X connect 25 1 28 0;
#X connect 25 2 27 0;
#X connect 26 0 25 0;
#X connect 27 0 17 0;
#X connect 28 0 18 0;
#X connect 29 0 19 0;
#X connect 30 0 14 0;
#X connect 31 0 38 0;
#X connect 32 0 31 0;
#X connect 33 0 156 0;
#X connect 34 0 40 0;
#X connect 35 0 33 1;
#X connect 36 0 35 0;
#X connect 37 0 39 0;
#X connect 38 0 37 0;
#X connect 39 0 36 0;
#X connect 40 0 35 1;
#X connect 41 0 157 0;
#X connect 42 0 43 0;
#X connect 43 0 44 1;
#X connect 43 0 45 0;
#X connect 44 0 108 0;
#X connect 45 0 44 0;
#X connect 46 0 49 0;
#X connect 47 0 51 1;
#X connect 48 0 49 1;
#X connect 49 0 50 0;
#X connect 50 0 57 0;
#X connect 51 0 50 1;
#X connect 52 0 53 0;
#X connect 53 0 89 0;
#X connect 54 0 168 0;
#X connect 55 0 59 0;
#X connect 56 0 57 1;
#X connect 57 0 107 0;
#X connect 58 0 56 1;
#X connect 59 0 166 0;
#X connect 60 0 51 0;
#X connect 61 0 62 0;
#X connect 62 0 67 0;
#X connect 62 0 76 0;
#X connect 62 0 77 0;
#X connect 63 0 103 1;
#X connect 63 0 106 0;
#X connect 64 0 175 0;
#X connect 65 0 170 0;
#X connect 66 0 65 0;
#X connect 67 0 70 0;
#X connect 68 0 72 1;
#X connect 69 0 70 1;
#X connect 70 0 71 0;
#X connect 71 0 79 0;
#X connect 72 0 71 1;
#X connect 73 0 82 0;
#X connect 74 0 75 0;
#X connect 75 0 96 0;
#X connect 76 0 73 0;
#X connect 77 0 81 0;
#X connect 78 0 79 1;
#X connect 79 0 41 1;
#X connect 80 0 78 1;
#X connect 81 0 167 0;
#X connect 82 0 72 0;
#X connect 83 0 88 0;
#X connect 84 0 83 0;
#X connect 85 0 86 1;
#X connect 86 0 89 1;
#X connect 87 0 86 0;
#X connect 88 0 87 0;
#X connect 89 0 54 1;
#X connect 90 0 95 0;
#X connect 91 0 90 0;
#X connect 92 0 93 1;
#X connect 93 0 96 1;
#X connect 94 0 93 0;
#X connect 95 0 94 0;
#X connect 96 0 76 1;
#X connect 97 0 198 3;
#X connect 98 0 198 0;
#X connect 99 0 121 0;
#X connect 99 0 8 0;
#X connect 100 0 121 1;
#X connect 100 0 8 1;
#X connect 101 0 199 3;
#X connect 102 0 199 0;
#X connect 103 0 65 0;
#X connect 104 0 44 0;
#X connect 105 0 104 0;
#X connect 106 0 103 0;
#X connect 107 0 41 0;
#X connect 108 0 0 0;
#X connect 109 0 114 0;
#X connect 110 0 109 0;
#X connect 111 0 112 1;
#X connect 112 0 115 0;
#X connect 113 0 112 0;
#X connect 114 0 113 0;
#X connect 115 0 119 0;
#X connect 116 0 115 0;
#X connect 117 0 116 0;
#X connect 118 0 116 0;
#X connect 119 0 120 0;
#X connect 119 0 169 0;
#X connect 120 0 108 0;
#X connect 120 0 170 0;
#X connect 122 0 121 0;
#X connect 123 0 121 0;
#X connect 124 0 121 0;
#X connect 125 0 128 0;
#X connect 125 0 134 0;
#X connect 125 1 126 0;
#X connect 125 1 134 1;
#X connect 125 2 138 0;
#X connect 126 0 129 0;
#X connect 126 1 130 0;
#X connect 127 0 155 0;
#X connect 127 0 148 0;
#X connect 129 0 141 0;
#X connect 130 0 142 0;
#X connect 131 0 103 0;
#X connect 131 0 104 0;
#X connect 132 0 26 0;
#X connect 133 0 131 0;
#X connect 134 0 133 0;
#X connect 135 0 99 1;
#X connect 135 0 100 0;
#X connect 135 0 198 2;
#X connect 135 0 199 2;
#X connect 136 0 135 1;
#X connect 137 0 136 0;
#X connect 139 0 140 0;
#X connect 139 0 144 0;
#X connect 140 0 139 1;
#X connect 141 0 139 0;
#X connect 142 0 139 0;
#X connect 143 0 140 0;
#X connect 144 0 145 0;
#X connect 144 1 146 0;
#X connect 145 0 127 0;
#X connect 145 0 137 0;
#X connect 145 0 147 0;
#X connect 146 0 127 0;
#X connect 146 0 137 0;
#X connect 146 0 147 0;
#X connect 147 0 149 1;
#X connect 147 0 152 1;
#X connect 148 0 149 0;
#X connect 149 0 151 0;
#X connect 150 0 152 0;
#X connect 151 0 150 0;
#X connect 152 0 153 0;
#X connect 153 0 132 0;
#X connect 154 0 2 1;
#X connect 155 0 137 1;
#X connect 156 0 154 0;
#X connect 157 0 158 0;
#X connect 158 0 2 0;
#X connect 159 0 162 0;
#X connect 160 0 2 0;
#X connect 161 0 165 0;
#X connect 162 0 160 0;
#X connect 165 0 159 0;
#X connect 166 0 56 0;
#X connect 167 0 78 0;
#X connect 168 0 60 0;
#X connect 169 0 108 1;
#X connect 169 0 170 1;
#X connect 170 0 61 0;
#X connect 171 0 143 0;
#X connect 172 0 100 1;
#X connect 173 0 99 0;
#X connect 174 0 135 0;
#X connect 175 0 65 1;
#X connect 175 0 66 0;
#X connect 177 0 4 0;
#X connect 178 0 179 0;
#X connect 179 0 30 0;
#X connect 180 0 22 0;
#X connect 181 0 182 0;
#X connect 182 0 29 0;
#X connect 183 0 185 0;
#X connect 184 0 42 0;
#X connect 185 0 5 0;
#X connect 186 0 63 0;
#X connect 187 0 186 0;
#X connect 188 0 64 0;
#X connect 189 0 190 0;
#X connect 190 0 110 0;
#X connect 191 0 207 0;
#X connect 192 0 193 0;
#X connect 193 0 102 0;
#X connect 194 0 98 0;
#X connect 195 0 194 0;
#X connect 196 0 101 0;
#X connect 197 0 97 0;
#X connect 198 0 172 0;
#X connect 199 0 173 0;
#X connect 200 0 205 0;
#X connect 201 0 34 0;
#X connect 202 0 206 0;
#X connect 204 0 202 0;
#X connect 205 0 204 0;
#X connect 206 0 208 0;
#X connect 207 0 111 0;
#X connect 208 0 32 0;
#X connect 208 0 203 0;
