#N canvas 757 66 600 666 10;
#X obj 34 515 mtof;
#X obj 34 541 phasor~;
#X obj 699 718 bob~;
#X obj 700 483 mtof;
#X obj 727 60 vsl 15 128 0 127 0 0 empty empty cutoff 0 -9 0 10 -262144
-1 -1 1900 1;
#X obj -2 56 vsl 15 128 0 127 0 0 empty empty oscf 0 -9 0 10 -262144
-1 -1 0 1;
#X obj 700 508 pack 0 50;
#X obj 700 535 line~;
#X obj 706 871 dac~;
#X floatatom 513 849 5 1 10 0 - - -, f 5;
#X msg 513 876 oversample \$1;
#X obj 513 797 loadbang;
#X msg 513 822 2;
#X text 511 779 oversampling;
#X floatatom 761 601 5 0 200 0 - - -, f 5;
#X obj 761 623 / 25;
#X obj 760 651 line~;
#X obj 816 384 line~;
#X obj 816 352 pack;
#X floatatom 852 328 5 0 0 0 - - -, f 5;
#X obj 815 415 mtof~;
#X obj 701 562 +~;
#X obj 808 61 vsl 15 128 1.27 127 1 0 empty empty env 0 -9 0 10 -262144
-1 -1 9000 1;
#X obj 788 235 / 127;
#X obj 815 441 *~;
#X obj 811 286 t b b b;
#X obj 855 117 bng 15 250 50 0 empty empty trig 17 7 0 10 -262144 -1
-1;
#X msg 780 326 127;
#X msg 816 326 0;
#X obj 833 61 vsl 15 128 10 4000 0 0 empty empty decay 0 -9 0 10 -262144
-1 -1 6800 1;
#X obj 752 61 vsl 15 128 1 200 1 0 empty empty res 0 -9 0 10 -262144
-1 -1 2700 1;
#X obj 929 346 phasor~;
#X obj 901 59 vsl 15 128 0.1 30 1 0 empty empty lfof 0 -9 0 10 -262144
-1 -1 4100 1;
#X obj 700 588 +~;
#X obj 927 59 vsl 15 128 0.1 120 1 0 empty empty lfo 0 -9 0 10 -262144
-1 -1 8300 1;
#X obj 929 476 *~;
#X obj 930 450 exp~;
#X obj 931 399 abs~;
#X obj 930 370 -~ 0.5;
#X obj 930 427 *~ 10;
#X obj 951 206 / 2;
#X obj 537 672 +~;
#X obj 22 57 vsl 15 128 0 127 0 0 empty empty oscfine 0 -9 0 10 -262144
-1 -1 0 1;
#X obj 43 432 / 100;
#X obj 25 462 +;
#X obj 59 457 bng 15 250 50 0 empty empty empty 17 7 0 10 -262144 -1
-1;
#X obj 35 572 *~ 0.7;
#X obj 99 58 vsl 15 128 0 1 0 0 empty empty square 0 -9 0 10 -262144
-1 -1 0 1;
#X obj 49 58 vsl 15 128 0 1 0 0 empty empty saw 0 -9 0 10 -262144 -1
-1 10900 1;
#X obj 35 594 *~;
#X obj 36 621 +~;
#X obj -96 617 *~;
#X obj 125 59 vsl 15 128 0.5 0.1 1 0 empty empty pw 0 -9 0 10 -262144
-1 -1 0 1;
#X obj -79 495 line~;
#X obj -96 547 -~;
#X obj 95 569 -~ 0.5;
#X obj 94 641 *~;
#X obj 36 653 +~;
#X obj 73 57 vsl 15 128 0 1 0 0 empty empty tri 0 -9 0 10 -262144 -1
-1 12700 1;
#X obj 94 592 abs~;
#X obj -96 595 clip~ -0.25 0.25;
#X obj 553 500 mtof;
#X obj 553 528 phasor~;
#X obj 482 58 vsl 15 128 0 127 0 0 empty empty oscf 0 -9 0 10 -262144
-1 -1 0 1;
#X obj 506 59 vsl 15 128 0 127 0 0 empty empty oscfine 0 -9 0 10 -262144
-1 -1 0 1;
#X obj 571 411 / 100;
#X obj 553 436 +;
#X obj 587 436 bng 15 250 50 0 empty empty empty 17 7 0 10 -262144
-1 -1;
#X obj 554 559 *~ 0.7;
#X obj 583 60 vsl 15 128 0 1 0 0 empty empty square 0 -9 0 10 -262144
-1 -1 0 1;
#X obj 533 60 vsl 15 128 0 1 0 0 empty empty saw 0 -9 0 10 -262144
-1 -1 0 1;
#X obj 554 581 *~;
#X obj 555 608 +~;
#X obj 432 603 *~;
#X obj 432 557 *~ 400;
#X obj 609 61 vsl 15 128 0.5 0.1 1 0 empty empty pw 0 -9 0 10 -262144
-1 -1 0 1;
#X obj 450 476 line~;
#X obj 432 533 -~;
#X obj 614 556 -~ 0.5;
#X obj 613 628 *~;
#X obj 554 640 +~;
#X obj 557 59 vsl 15 128 0 1 0 0 empty empty tri 0 -9 0 10 -262144
-1 -1 0 1;
#X obj 613 579 abs~;
#X obj 432 581 clip~ -0.25 0.25;
#X obj 154 206 phasor~;
#X obj 151 59 vsl 15 128 0.1 100 1 0 empty empty pwmf 0 -9 0 10 -262144
-1 -1 0 1;
#X obj 177 59 vsl 15 128 0.01 1 1 0 empty empty pwm 0 -9 0 10 -262144
-1 -1 0 1;
#X obj 156 290 *~;
#X obj 156 259 abs~;
#X obj 155 230 -~ 0.5;
#X obj -79 522 +~;
#X obj 638 208 phasor~;
#X obj 635 61 vsl 15 128 0.1 100 1 0 empty empty pwmf 0 -9 0 10 -262144
-1 -1 0 1;
#X obj 661 61 vsl 15 128 0.1 1 1 0 empty empty pwm 0 -9 0 10 -262144
-1 -1 0 1;
#X obj 640 292 *~;
#X obj 640 261 abs~;
#X obj 639 232 -~ 0.5;
#X obj 450 504 +~;
#X floatatom 1157 602 5 0 100 0 - - -, f 5;
#X floatatom 976 593 5 0 0 0 - - -, f 5;
#X obj 701 816 +~;
#X obj 731 816 +~;
#X obj 999 511 tempodelay2;
#X floatatom 1179 489 5 0 100 0 - - -, f 5;
#X floatatom 999 479 5 0 0 0 - - -, f 5;
#X obj 1055 77 +;
#X msg 1055 45 1;
#X floatatom 1091 79 5 0 0 0 - - -, f 5;
#X obj 1055 107 > 7;
#X msg 1055 161 0;
#X obj 1055 134 sel 1;
#X obj 1121 128 sel 0 1 2 3 4 5 6 7;
#X obj 1120 164 bng 15 250 50 0 empty empty empty 17 7 0 10 -262144
-1 -1;
#X obj 1136 164 bng 15 250 50 0 empty empty empty 17 7 0 10 -262144
-1 -1;
#X obj 1152 164 bng 15 250 50 0 empty empty empty 17 7 0 10 -262144
-1 -1;
#X obj 1168 164 bng 15 250 50 0 empty empty empty 17 7 0 10 -262144
-1 -1;
#X obj 1184 164 bng 15 250 50 0 empty empty empty 17 7 0 10 -262144
-1 -1;
#X obj 1200 164 bng 15 250 50 0 empty empty empty 17 7 0 10 -262144
-1 -1;
#X obj 1216 164 bng 15 250 50 0 empty empty empty 17 7 0 10 -262144
-1 -1;
#X obj 1232 164 bng 15 250 50 0 empty empty empty 17 7 0 10 -262144
-1 -1;
#X obj 519 382 +;
#X obj 0 421 +;
#X msg 1023 222 0;
#X floatatom 1149 265 5 0 0 0 - - -, f 5;
#X obj -2 394 bng 15 250 50 0 empty empty empty 17 7 0 10 -262144 -1
-1;
#X obj 518 355 bng 15 250 50 0 empty empty empty 17 7 0 10 -262144
-1 -1;
#X msg 1127 222 5;
#X msg 1163 222 7;
#X msg 1198 222 -2;
#X msg 1267 222 -5;
#X msg 1233 222 -7;
#X msg 1093 222 12;
#X msg 1057 222 -12;
#X obj 35 682 +~;
#X obj 27 489 +;
#X obj 434 205 phasor~;
#X obj 431 58 vsl 15 128 0.1 10 1 0 empty empty modf 0 -9 0 10 -262144
-1 -1 0 1;
#X obj 457 58 vsl 15 128 0.1 10 0 0 empty empty mod 0 -9 0 10 -262144
-1 -1 0 1;
#X obj 436 289 *~;
#X obj 436 258 abs~;
#X obj 435 229 -~ 0.5;
#X obj 387 376 snapshot~;
#X obj 403 350 metro 10;
#X obj 403 318 loadbang;
#X obj 371 325 bng 15 250 50 0 empty empty empty 17 7 0 10 -262144
-1 -1;
#X floatatom 379 411 5 0 0 0 - - -, f 5;
#X obj 379 432 bng 15 250 50 0 empty empty empty 17 7 0 10 -262144
-1 -1;
#X obj -51 203 phasor~;
#X obj -54 56 vsl 15 128 0.1 10 1 0 empty empty modf 0 -9 0 10 -262144
-1 -1 0 1;
#X obj -28 56 vsl 15 128 0.1 10 0 0 empty empty mod 0 -9 0 10 -262144
-1 -1 0 1;
#X obj -49 287 *~;
#X obj -49 256 abs~;
#X obj -50 227 -~ 0.5;
#X obj -98 374 snapshot~;
#X obj -82 348 metro 10;
#X obj -82 316 loadbang;
#X obj -114 323 bng 15 250 50 0 empty empty empty 17 7 0 10 -262144
-1 -1;
#X floatatom -106 398 5 0 0 0 - - -, f 5;
#X obj -106 424 bng 15 250 50 0 empty empty empty 17 7 0 10 -262144
-1 -1;
#X obj 918 789 writesf~ 2;
#X msg 918 701 open vademo.wav;
#X msg 945 725 start;
#X msg 969 755 stop;
#X obj 165 717 notein;
#X obj 213 759 sel 0;
#X obj 253 923 tgl 15 0 empty empty empty 17 7 0 10 -262144 -1 -1 0
1;
#X floatatom 165 760 5 0 0 0 - - -, f 5;
#X msg 213 791 0;
#X msg 254 791 1;
#X floatatom 139 918 5 0 0 0 - - -, f 5;
#X obj 290 1109 bng 15 250 50 0 empty empty empty 17 7 0 10 -262144
-1 -1;
#X obj 139 848 stripnote;
#X obj 139 819 pack;
#X obj 700 772 *~;
#X obj 228 995 line~;
#X obj 228 970 pack;
#X floatatom 251 736 5 0 0 0 - - -, f 5;
#X obj 215 844 +;
#X floatatom 247 846 5 0 0 0 - - -, f 5;
#X msg 215 815 -1;
#X msg 253 815 1;
#X msg 292 816 0;
#X obj 215 871 sel 0;
#X msg 215 897 0;
#X msg 253 897 1;
#X floatatom 340 969 5 0 0 0 - - -, f 5;
#X floatatom 290 968 5 0 0 0 - - -, f 5;
#X obj 290 992 !=;
#X obj 290 1037 bng 15 250 50 0 empty empty empty 17 7 0 10 -262144
-1 -1;
#X obj 290 1014 sel 1;
#X obj 290 1059 +;
#X obj 290 1085 sel 0;
#X obj 699 673 clip~ 2 10000;
#X msg 253 944 2;
#X obj 699 624 -~ 100;
#X obj 538 697 *~ 0.4;
#X obj 538 722 hip~ 20;
#X floatatom 518 1009 5 0 999 0 - - -, f 5;
#X msg 518 1055 saturation \$1;
#X obj 518 959 loadbang;
#X obj 518 1031 / 100;
#X text 510 920 saturation point;
#X text 507 937 of "transistors";
#X msg 518 984 300;
#X obj 93 617 *~ 4;
#X obj 612 604 *~ 4;
#X obj 700 744 *~ 0.7;
#X obj -96 571 *~ 400;
#X obj -86 423 / 50;
#X obj 553 471 +;
#X obj 292 791 loadbang;
#X obj 977 665 *~ 0.8;
#X obj 1000 552 *~ 0.8;
#X obj 976 625 tempodelay2;
#X connect 0 0 1 0;
#X connect 1 0 46 0;
#X connect 1 0 54 0;
#X connect 1 0 55 0;
#X connect 2 0 206 0;
#X connect 3 0 6 0;
#X connect 4 0 3 0;
#X connect 5 0 121 1;
#X connect 5 0 124 0;
#X connect 6 0 7 0;
#X connect 7 0 21 0;
#X connect 9 0 10 0;
#X connect 10 0 2 0;
#X connect 11 0 12 0;
#X connect 12 0 9 0;
#X connect 14 0 15 0;
#X connect 15 0 16 0;
#X connect 16 0 2 2;
#X connect 17 0 20 0;
#X connect 18 0 17 0;
#X connect 19 0 18 1;
#X connect 20 0 24 0;
#X connect 21 0 33 0;
#X connect 22 0 23 0;
#X connect 23 0 24 1;
#X connect 24 0 21 1;
#X connect 25 0 19 0;
#X connect 25 1 28 0;
#X connect 25 2 27 0;
#X connect 26 0 25 0;
#X connect 26 0 106 0;
#X connect 27 0 17 0;
#X connect 28 0 18 0;
#X connect 29 0 19 0;
#X connect 30 0 14 0;
#X connect 31 0 38 0;
#X connect 32 0 31 0;
#X connect 33 0 194 0;
#X connect 34 0 40 0;
#X connect 35 0 33 1;
#X connect 36 0 35 0;
#X connect 37 0 39 0;
#X connect 38 0 37 0;
#X connect 39 0 36 0;
#X connect 40 0 35 1;
#X connect 41 0 195 0;
#X connect 42 0 43 0;
#X connect 43 0 44 1;
#X connect 43 0 45 0;
#X connect 44 0 134 0;
#X connect 45 0 44 0;
#X connect 46 0 49 0;
#X connect 47 0 51 1;
#X connect 48 0 49 1;
#X connect 49 0 50 0;
#X connect 50 0 57 0;
#X connect 51 0 50 1;
#X connect 52 0 53 0;
#X connect 53 0 90 0;
#X connect 54 0 207 0;
#X connect 55 0 59 0;
#X connect 56 0 57 1;
#X connect 57 0 133 0;
#X connect 58 0 56 1;
#X connect 59 0 204 0;
#X connect 60 0 51 0;
#X connect 61 0 62 0;
#X connect 62 0 68 0;
#X connect 62 0 77 0;
#X connect 62 0 78 0;
#X connect 63 0 120 1;
#X connect 63 0 125 0;
#X connect 64 0 65 0;
#X connect 65 0 66 1;
#X connect 65 0 67 0;
#X connect 66 0 209 0;
#X connect 67 0 66 0;
#X connect 68 0 71 0;
#X connect 69 0 73 1;
#X connect 70 0 71 1;
#X connect 71 0 72 0;
#X connect 72 0 80 0;
#X connect 73 0 72 1;
#X connect 74 0 83 0;
#X connect 75 0 76 0;
#X connect 76 0 97 0;
#X connect 77 0 74 0;
#X connect 78 0 82 0;
#X connect 79 0 80 1;
#X connect 80 0 41 1;
#X connect 81 0 79 1;
#X connect 82 0 205 0;
#X connect 83 0 73 0;
#X connect 84 0 89 0;
#X connect 85 0 84 0;
#X connect 86 0 87 1;
#X connect 87 0 90 1;
#X connect 88 0 87 0;
#X connect 89 0 88 0;
#X connect 90 0 54 1;
#X connect 91 0 96 0;
#X connect 92 0 91 0;
#X connect 93 0 94 1;
#X connect 94 0 97 1;
#X connect 95 0 94 0;
#X connect 96 0 95 0;
#X connect 97 0 77 1;
#X connect 98 0 213 3;
#X connect 99 0 213 0;
#X connect 100 0 8 0;
#X connect 100 0 159 0;
#X connect 101 0 8 1;
#X connect 101 0 159 1;
#X connect 102 0 212 0;
#X connect 103 0 102 3;
#X connect 104 0 102 0;
#X connect 105 0 107 0;
#X connect 105 0 108 0;
#X connect 106 0 105 0;
#X connect 107 0 105 1;
#X connect 107 0 111 0;
#X connect 108 0 110 0;
#X connect 109 0 107 0;
#X connect 110 0 109 0;
#X connect 111 0 112 0;
#X connect 111 1 113 0;
#X connect 111 2 114 0;
#X connect 111 3 115 0;
#X connect 111 4 116 0;
#X connect 111 5 117 0;
#X connect 111 6 118 0;
#X connect 111 7 119 0;
#X connect 112 0 122 0;
#X connect 113 0 132 0;
#X connect 114 0 131 0;
#X connect 115 0 126 0;
#X connect 116 0 127 0;
#X connect 117 0 128 0;
#X connect 118 0 130 0;
#X connect 119 0 129 0;
#X connect 120 0 66 0;
#X connect 121 0 44 0;
#X connect 122 0 123 0;
#X connect 124 0 121 0;
#X connect 125 0 120 0;
#X connect 126 0 123 0;
#X connect 127 0 123 0;
#X connect 128 0 123 0;
#X connect 129 0 123 0;
#X connect 130 0 123 0;
#X connect 131 0 123 0;
#X connect 132 0 123 0;
#X connect 133 0 41 0;
#X connect 134 0 0 0;
#X connect 135 0 140 0;
#X connect 136 0 135 0;
#X connect 137 0 138 1;
#X connect 138 0 141 0;
#X connect 139 0 138 0;
#X connect 140 0 139 0;
#X connect 141 0 145 0;
#X connect 142 0 141 0;
#X connect 143 0 142 0;
#X connect 144 0 142 0;
#X connect 145 0 146 0;
#X connect 147 0 152 0;
#X connect 148 0 147 0;
#X connect 149 0 150 1;
#X connect 150 0 153 0;
#X connect 151 0 150 0;
#X connect 152 0 151 0;
#X connect 153 0 157 0;
#X connect 154 0 153 0;
#X connect 155 0 154 0;
#X connect 156 0 154 0;
#X connect 157 0 158 0;
#X connect 157 0 208 0;
#X connect 158 0 134 0;
#X connect 158 0 209 0;
#X connect 160 0 159 0;
#X connect 161 0 159 0;
#X connect 162 0 159 0;
#X connect 163 0 166 0;
#X connect 163 0 172 0;
#X connect 163 1 164 0;
#X connect 163 1 172 1;
#X connect 163 2 176 0;
#X connect 164 0 167 0;
#X connect 164 1 168 0;
#X connect 165 0 193 0;
#X connect 165 0 186 0;
#X connect 167 0 179 0;
#X connect 168 0 180 0;
#X connect 169 0 120 0;
#X connect 169 0 121 0;
#X connect 170 0 26 0;
#X connect 171 0 169 0;
#X connect 172 0 171 0;
#X connect 173 0 102 2;
#X connect 173 0 100 1;
#X connect 173 0 101 0;
#X connect 173 0 213 2;
#X connect 174 0 173 1;
#X connect 175 0 174 0;
#X connect 177 0 178 0;
#X connect 177 0 182 0;
#X connect 178 0 177 1;
#X connect 179 0 177 0;
#X connect 180 0 177 0;
#X connect 181 0 178 0;
#X connect 182 0 183 0;
#X connect 182 1 184 0;
#X connect 183 0 165 0;
#X connect 183 0 175 0;
#X connect 183 0 185 0;
#X connect 184 0 165 0;
#X connect 184 0 175 0;
#X connect 184 0 185 0;
#X connect 185 0 187 1;
#X connect 185 0 190 1;
#X connect 186 0 187 0;
#X connect 187 0 189 0;
#X connect 188 0 190 0;
#X connect 189 0 188 0;
#X connect 190 0 191 0;
#X connect 191 0 170 0;
#X connect 192 0 2 1;
#X connect 193 0 175 1;
#X connect 194 0 192 0;
#X connect 195 0 196 0;
#X connect 196 0 2 0;
#X connect 197 0 200 0;
#X connect 198 0 2 0;
#X connect 199 0 203 0;
#X connect 200 0 198 0;
#X connect 203 0 197 0;
#X connect 204 0 56 0;
#X connect 205 0 79 0;
#X connect 206 0 173 0;
#X connect 207 0 60 0;
#X connect 208 0 134 1;
#X connect 208 0 209 1;
#X connect 209 0 61 0;
#X connect 210 0 181 0;
#X connect 211 0 101 1;
#X connect 212 0 100 0;
#X connect 213 0 211 0;
