#N canvas 0 94 683 674 10;
#X obj 253 248 soundfiler;
#X obj 474 512 hsl 196 15 0 1 0 0 empty empty empty -2 -8 0 10 -262144
-1 -1 0 1;
#X floatatom 253 283 6 0 0 0 - - -, f 6;
#X obj 253 548 line~;
#X text 47 281 the length of the file in samples;
#X text 97 406 length in seconds;
#X floatatom 150 386 5 0 0 0 - - -, f 5;
#X obj 150 356 expr $f1 / 44100;
#X obj 340 355 expr $f1 / $f2;
#X obj 340 330 snapshot~;
#X obj 340 302 metro 100;
#X obj 199 384 * 1000;
#X obj 340 382 > 0.999;
#X obj 340 408 select 1;
#X msg 340 512 0;
#X msg 48 374 0, f 2;
#X msg 253 527 \$1 \, \$2 \$3;
#X obj 232 504 list;
#X obj 253 474 list;
#X text 368 457 stop;
#X msg 231 116 read -resize;
#X obj 315 200 list;
#X obj 315 174 list;
#X obj 315 224 list trim;
#X text 326 108 split the string "read -resize file.wav array1" in
to 3 strings so the filename can be an external argument;
#X obj 367 475 inlet;
#X obj 266 29 inlet;
#X text 267 10 file;
#X obj 253 611 outlet~;
#X text 188 101 stop;
#X text 144 122 file;
#X text 140 134 player;
#X text 102 102 file/start;
#X text 31 424 override the time here with X 16th notes in milliseconds
to have a loop that's synced with a sequencer or something;
#X text 22 459 or scale the time to have 2x \, 1/2x speed \, etc..
;
#X text 357 87 takes a few times to go.;
#X obj 388 495 bng 15 250 50 0 empty empty empty 17 7 0 10 -262144
-1 -1;
#X obj 497 251 list;
#X msg 489 158 1;
#X msg 470 216 2, f 2;
#X msg 543 246 3;
#X obj 496 326 print;
#X obj 496 306 list trim;
#X obj 497 278 list;
#X obj 489 183 t b b f;
#X text 523 158 illustration..;
#X obj 266 57 t b b anything;
#X obj 48 340 bng 15 250 50 0 empty empty empty 17 7 0 10 -262144 -1
-1;
#X obj 340 280 bng 15 250 50 0 empty empty empty 17 7 0 10 -262144
-1 -1;
#N canvas 0 94 450 250 (subpatch) 0;
#X array \$0-array1 397946 float 2;
#X coords 0 1 397946 -1 200 140 1 0 0;
#X restore 471 365 graph;
#X obj 253 578 tabread4~ \$0-array1;
#X obj 107 204 tabwrite;
#X msg 364 170 \$1-array1;
#X obj 364 146 f \$0;
#X connect 0 0 2 0;
#X connect 2 0 7 0;
#X connect 2 0 8 1;
#X connect 2 0 18 0;
#X connect 2 0 48 0;
#X connect 2 0 47 0;
#X connect 3 0 9 0;
#X connect 3 0 50 0;
#X connect 7 0 6 0;
#X connect 7 0 11 0;
#X connect 8 0 1 0;
#X connect 8 0 12 0;
#X connect 9 0 8 0;
#X connect 10 0 9 0;
#X connect 11 0 18 1;
#X connect 12 0 13 0;
#X connect 13 0 14 0;
#X connect 14 0 3 0;
#X connect 15 0 17 0;
#X connect 16 0 3 0;
#X connect 17 0 16 0;
#X connect 18 0 17 1;
#X connect 20 0 22 0;
#X connect 21 0 23 0;
#X connect 22 0 21 0;
#X connect 23 0 0 0;
#X connect 25 0 14 0;
#X connect 26 0 46 0;
#X connect 36 0 14 0;
#X connect 37 0 43 0;
#X connect 38 0 44 0;
#X connect 39 0 37 0;
#X connect 40 0 43 1;
#X connect 42 0 41 0;
#X connect 43 0 42 0;
#X connect 44 0 39 0;
#X connect 44 1 40 0;
#X connect 44 2 37 1;
#X connect 46 0 20 0;
#X connect 46 1 53 0;
#X connect 46 2 22 1;
#X connect 47 0 15 0;
#X connect 48 0 10 0;
#X connect 50 0 28 0;
#X connect 52 0 21 1;
#X connect 53 0 52 0;
#X coords 0 -1 1 1 120 60 2 100 100;
