#N canvas 86 220 450 300 10;
#X obj 145 122 fileplayer;
#X obj 258 97 bng 15 250 50 0 empty empty empty 17 7 0 10 -262144 -1
-1;
#X obj 252 234 dac~;
#X msg 145 90 breaks/walk.wav;
#X obj 292 130 fileplayer;
#X msg 292 83 breaks/jamaica.wav;
#X obj 405 107 bng 15 250 50 0 empty empty empty 17 7 0 10 -262144
-1 -1;
#X obj 273 210 +~;
#X obj 245 211 +~;
#X connect 0 0 8 0;
#X connect 0 0 7 0;
#X connect 1 0 0 1;
#X connect 3 0 0 0;
#X connect 4 0 7 1;
#X connect 4 0 8 1;
#X connect 5 0 4 0;
#X connect 6 0 4 1;
#X connect 7 0 2 1;
#X connect 8 0 2 0;
