#N canvas 0 94 1366 674 10;
#X floatatom 125 185 5 0 0 0 - - -, f 5;
#X obj 125 37 bng 15 250 50 0 empty empty empty 17 7 0 10 -262144 -1
-1;
#X floatatom 246 275 5 0 0 0 - - -, f 5;
#X text 315 220 major scale;
#X obj 246 240 expr if ($f1==1|$f1==3|$f1==5|$f1==6|$f1==8|$f1==10|$f1==12
\, 1 \, 0);
#X msg 124 243 \$1;
#X floatatom 124 273 5 0 0 0 - - -, f 5;
#X floatatom 343 376 5 0 0 0 - - -, f 5;
#X obj 343 354 expr if ($f1==1 \, $f2 \, $f3);
#X obj 125 129 + 1;
#X obj 399 440 karplusstrong;
#X obj 453 749 dac~;
#X obj 343 484 bng 15 250 50 0 empty empty empty 17 7 0 10 -262144
-1 -1;
#X msg 496 325 0;
#X obj 343 436 != 0;
#X obj 343 461 select 1;
#X obj 125 71 metro 200;
#X obj 176 47 tempotoms;
#X obj 399 406 + 60;
#X obj 246 294 select 1;
#X floatatom 512 412 5 0 99 0 - - -, f 5;
#X obj 246 319 delay 1;
#X obj 452 680 +~;
#X floatatom 623 170 5 0 0 0 - - -, f 5;
#X floatatom 744 260 5 0 0 0 - - -, f 5;
#X text 813 205 major scale;
#X obj 744 225 expr if ($f1==1|$f1==3|$f1==5|$f1==6|$f1==8|$f1==10|$f1==12
\, 1 \, 0);
#X msg 622 228 \$1;
#X floatatom 622 258 5 0 0 0 - - -, f 5;
#X floatatom 841 361 5 0 0 0 - - -, f 5;
#X obj 841 339 expr if ($f1==1 \, $f2 \, $f3);
#X obj 623 114 + 1;
#X obj 897 425 karplusstrong;
#X obj 841 469 bng 15 250 50 0 empty empty empty 17 7 0 10 -262144
-1 -1;
#X msg 994 310 0;
#X obj 841 421 != 0;
#X obj 841 446 select 1;
#X obj 897 391 + 60;
#X obj 744 279 select 1;
#X floatatom 1010 397 5 0 99 0 - - -, f 5;
#X obj 744 305 delay 1;
#X obj 744 346 bng 15 250 50 0 empty empty empty 17 7 0 10 -262144
-1 -1;
#X msg 783 354 1;
#X msg 271 355 1;
#X obj 677 515 ==;
#X obj 633 583 bng 15 250 50 0 empty empty empty 17 7 0 10 -262144
-1 -1;
#X text 1362 207 minor scale;
#X floatatom 677 588 5 0 0 0 - - -, f 5;
#X obj 677 539 select 1;
#X floatatom 677 635 5 0 0 0 - - -, f 5;
#X obj 693 188 mod 12;
#X msg 918 367 35;
#X obj 623 89 random 40;
#X msg 420 382 54;
#X obj 193 208 mod 12;
#X obj 125 104 random 23;
#X obj 416 555 reverb;
#X obj 399 626 +~;
#X floatatom 511 524 5 0 0 0 - - -, f 5;
#X obj 558 528 *~ 0.5;
#X floatatom 1124 172 5 0 0 0 - - -, f 5;
#X floatatom 1245 262 5 0 0 0 - - -, f 5;
#X msg 1123 230 \$1;
#X floatatom 1123 260 5 0 0 0 - - -, f 5;
#X floatatom 1342 363 5 0 0 0 - - -, f 5;
#X obj 1342 341 expr if ($f1==1 \, $f2 \, $f3);
#X obj 1124 116 + 1;
#X obj 1398 427 karplusstrong;
#X obj 1342 471 bng 15 250 50 0 empty empty empty 17 7 0 10 -262144
-1 -1;
#X msg 1495 312 0;
#X obj 1342 423 != 0;
#X obj 1342 448 select 1;
#X obj 1398 393 + 60;
#X obj 1245 281 select 1;
#X floatatom 1511 399 5 0 99 0 - - -, f 5;
#X obj 1245 307 delay 1;
#X obj 1245 348 bng 15 250 50 0 empty empty empty 17 7 0 10 -262144
-1 -1;
#X msg 1279 341 1;
#X obj 1194 190 mod 12;
#X obj 471 653 +~;
#X obj 1245 225 expr if ($f1==1|$f1==3|$f1==4|$f1==6|$f1==8|$f1==9|$f1==11
\, 1 \, 0);
#X obj 1286 556 reverb;
#X obj 1267 628 +~;
#X floatatom 1381 530 5 0 0 0 - - -, f 5;
#X obj 1428 529 *~ 0.5;
#X obj 1124 91 random 20;
#X msg 1419 370 44;
#X obj 470 627 *~ 0.7;
#X obj 398 652 *~ 0.7;
#X obj 554 693 +~;
#X obj 573 666 +~;
#X obj 572 640 *~ 0.8;
#X obj 500 665 *~ 0.6;
#X obj 1084 538 reverb;
#X obj 1065 610 +~;
#X floatatom 1179 512 5 0 0 0 - - -, f 5;
#X obj 1226 511 *~ 0.5;
#X obj 176 579 reverb;
#X floatatom 271 548 5 0 0 0 - - -, f 5;
#X obj 318 552 *~ 0.5;
#X obj 175 655 +~;
#X obj 415 603 *~ 0.4;
#X obj 175 627 *~ 0.3;
#X obj 1285 604 *~ 0.6;
#X obj 1084 586 *~ 0.5;
#X obj 600 804 writesf~ 2;
#X msg 600 739 open foo.wav;
#X msg 610 762 start;
#X msg 620 782 stop;
#X msg 57 25 stop;
#X obj 453 703 *~ 0.4;
#X obj 554 719 *~ 0.4;
#X obj 677 608 + 3;
#X obj 677 561 random 300;
#X connect 0 0 5 0;
#X connect 0 0 8 1;
#X connect 0 0 54 0;
#X connect 1 0 16 0;
#X connect 2 0 19 0;
#X connect 4 0 2 0;
#X connect 5 0 6 0;
#X connect 7 0 14 0;
#X connect 8 0 7 0;
#X connect 8 0 18 0;
#X connect 9 0 0 0;
#X connect 10 0 59 0;
#X connect 10 0 57 0;
#X connect 10 0 99 0;
#X connect 10 0 100 1;
#X connect 13 0 8 2;
#X connect 14 0 15 0;
#X connect 15 0 12 0;
#X connect 15 0 10 1;
#X connect 15 0 44 0;
#X connect 16 0 52 0;
#X connect 16 0 55 0;
#X connect 16 0 85 0;
#X connect 17 0 16 1;
#X connect 18 0 10 0;
#X connect 19 0 21 0;
#X connect 20 0 10 2;
#X connect 21 0 43 0;
#X connect 22 0 110 0;
#X connect 23 0 27 0;
#X connect 23 0 30 1;
#X connect 23 0 50 0;
#X connect 24 0 38 0;
#X connect 26 0 24 0;
#X connect 27 0 28 0;
#X connect 29 0 35 0;
#X connect 30 0 29 0;
#X connect 30 0 37 0;
#X connect 31 0 23 0;
#X connect 32 0 87 0;
#X connect 32 0 91 0;
#X connect 34 0 30 2;
#X connect 35 0 36 0;
#X connect 36 0 33 0;
#X connect 36 0 32 1;
#X connect 36 0 44 1;
#X connect 37 0 32 0;
#X connect 38 0 40 0;
#X connect 39 0 32 2;
#X connect 40 0 41 0;
#X connect 40 0 42 0;
#X connect 42 0 30 0;
#X connect 43 0 8 0;
#X connect 44 0 48 0;
#X connect 47 0 112 0;
#X connect 48 0 45 0;
#X connect 48 0 113 0;
#X connect 49 0 17 0;
#X connect 50 0 26 0;
#X connect 51 0 37 1;
#X connect 52 0 31 0;
#X connect 53 0 18 1;
#X connect 54 0 4 0;
#X connect 55 0 9 0;
#X connect 56 0 101 0;
#X connect 57 0 92 0;
#X connect 58 0 56 2;
#X connect 59 0 56 3;
#X connect 60 0 62 0;
#X connect 60 0 65 1;
#X connect 60 0 78 0;
#X connect 61 0 73 0;
#X connect 62 0 63 0;
#X connect 64 0 70 0;
#X connect 65 0 64 0;
#X connect 65 0 72 0;
#X connect 66 0 60 0;
#X connect 67 0 84 0;
#X connect 67 0 82 0;
#X connect 67 0 94 0;
#X connect 67 0 96 0;
#X connect 69 0 65 2;
#X connect 70 0 71 0;
#X connect 71 0 68 0;
#X connect 71 0 67 1;
#X connect 72 0 67 0;
#X connect 73 0 75 0;
#X connect 74 0 67 2;
#X connect 75 0 76 0;
#X connect 75 0 77 0;
#X connect 77 0 65 0;
#X connect 78 0 80 0;
#X connect 79 0 22 1;
#X connect 80 0 61 0;
#X connect 81 0 103 0;
#X connect 82 0 90 1;
#X connect 83 0 81 2;
#X connect 84 0 81 3;
#X connect 85 0 66 0;
#X connect 86 0 72 1;
#X connect 87 0 79 0;
#X connect 88 0 22 0;
#X connect 89 0 111 0;
#X connect 90 0 89 1;
#X connect 91 0 90 0;
#X connect 92 0 89 0;
#X connect 93 0 104 0;
#X connect 94 0 79 1;
#X connect 95 0 93 2;
#X connect 96 0 93 3;
#X connect 97 0 102 0;
#X connect 98 0 97 2;
#X connect 99 0 97 3;
#X connect 100 0 88 0;
#X connect 101 0 57 1;
#X connect 102 0 100 0;
#X connect 103 0 82 1;
#X connect 104 0 94 1;
#X connect 106 0 105 0;
#X connect 107 0 105 0;
#X connect 108 0 105 0;
#X connect 109 0 16 0;
#X connect 110 0 11 0;
#X connect 110 0 105 0;
#X connect 111 0 11 1;
#X connect 111 0 105 1;
#X connect 112 0 49 0;
#X connect 113 0 47 0;
