#N canvas 65 90 1215 683 10;
#X floatatom 125 162 5 0 0 0 - - -, f 5;
#X obj 125 37 bng 15 250 50 0 empty empty empty 17 7 0 10 -262144 -1
-1;
#X floatatom 246 275 5 0 0 0 - - -, f 5;
#X text 540 225 major scale;
#X obj 246 240 expr if ($f1==1|$f1==3|$f1==5|$f1==6|$f1==8|$f1==10|$f1==12
\, 1 \, 0);
#X msg 125 186 \$1;
#X floatatom 125 216 5 0 0 0 - - -, f 5;
#X floatatom 343 376 5 0 0 0 - - -, f 5;
#X obj 343 354 expr if ($f1==1 \, $f2 \, $f3);
#X obj 125 129 + 1;
#X obj 522 907 dac~;
#X obj 343 484 bng 15 250 50 0 empty empty empty 17 7 0 10 -262144
-1 -1;
#X msg 496 325 0;
#X obj 343 436 != 0;
#X obj 343 461 select 1;
#X obj 125 71 metro 200;
#X obj 176 16 tempotoms;
#X obj 246 294 select 1;
#X floatatom 512 413 5 0 99 0 - - -, f 5;
#X obj 246 319 delay 1;
#X obj 452 680 +~;
#X floatatom 623 141 5 0 0 0 - - -, f 5;
#X floatatom 744 260 5 0 0 0 - - -, f 5;
#X text 1038 210 major scale;
#X obj 744 225 expr if ($f1==1|$f1==3|$f1==5|$f1==6|$f1==8|$f1==10|$f1==12
\, 1 \, 0);
#X msg 623 168 \$1;
#X floatatom 623 193 5 0 0 0 - - -, f 5;
#X floatatom 841 361 5 0 0 0 - - -, f 5;
#X obj 841 339 expr if ($f1==1 \, $f2 \, $f3);
#X obj 623 114 + 1;
#X obj 841 469 bng 15 250 50 0 empty empty empty 17 7 0 10 -262144
-1 -1;
#X msg 994 310 0;
#X obj 841 421 != 0;
#X obj 841 446 select 1;
#X obj 744 279 select 1;
#X floatatom 1006 388 5 0 99 0 - - -, f 5;
#X obj 744 305 delay 1;
#X obj 744 346 bng 15 250 50 0 empty empty empty 17 7 0 10 -262144
-1 -1;
#X msg 783 354 1;
#X msg 271 355 1;
#X obj 759 419 ==;
#X text 1534 209 minor scale;
#X obj 759 443 select 1;
#X obj 693 165 mod 12;
#X obj 204 189 mod 12;
#X obj 416 555 reverb;
#X obj 399 626 +~;
#X floatatom 510 523 5 0 0 0 - - -, f 5;
#X floatatom 1124 142 5 0 0 0 - - -, f 5;
#X floatatom 1245 262 5 0 0 0 - - -, f 5;
#X msg 1124 168 \$1;
#X floatatom 1124 195 5 0 0 0 - - -, f 5;
#X floatatom 1342 363 5 0 0 0 - - -, f 5;
#X obj 1342 341 expr if ($f1==1 \, $f2 \, $f3);
#X obj 1124 116 + 1;
#X obj 1342 471 bng 15 250 50 0 empty empty empty 17 7 0 10 -262144
-1 -1;
#X msg 1495 312 0;
#X obj 1342 423 != 0;
#X obj 1342 448 select 1;
#X obj 1245 281 select 1;
#X floatatom 1511 394 5 0 99 0 - - -, f 5;
#X obj 1245 307 delay 1;
#X obj 1245 348 bng 15 250 50 0 empty empty empty 17 7 0 10 -262144
-1 -1;
#X msg 1279 341 1;
#X obj 1183 159 mod 12;
#X obj 471 653 +~;
#X obj 1246 223 expr if ($f1==1|$f1==3|$f1==4|$f1==6|$f1==8|$f1==9|$f1==11
\, 1 \, 0);
#X obj 1286 556 reverb;
#X obj 1267 628 +~;
#X floatatom 1381 529 5 0 0 0 - - -, f 5;
#X obj 1428 529 *~ 0.5;
#X obj 554 693 +~;
#X obj 573 666 +~;
#X obj 1084 538 reverb;
#X obj 1065 610 +~;
#X floatatom 1179 512 5 0 0 0 - - -, f 5;
#X obj 1226 511 *~ 0.5;
#X obj 176 579 reverb;
#X floatatom 271 546 5 0 0 0 - - -, f 5;
#X obj 318 552 *~ 0.5;
#X obj 175 655 +~;
#X obj 175 627 *~ 0.3;
#X obj 600 814 writesf~ 2;
#X msg 600 739 open foo.wav;
#X msg 610 762 start;
#X msg 620 782 stop;
#X msg 57 25 stop;
#X obj 759 494 select 0 1 2 3 4;
#X obj 764 518 bng 15 250 50 0 empty empty empty 17 7 0 10 -262144
-1 -1;
#X obj 780 518 bng 15 250 50 0 empty empty empty 17 7 0 10 -262144
-1 -1;
#X obj 796 518 bng 15 250 50 0 empty empty empty 17 7 0 10 -262144
-1 -1;
#X obj 812 518 bng 15 250 50 0 empty empty empty 17 7 0 10 -262144
-1 -1;
#X obj 828 518 bng 15 250 50 0 empty empty empty 17 7 0 10 -262144
-1 -1;
#X floatatom 786 642 5 0 0 0 - - -, f 5;
#X obj 759 472 random 5;
#X floatatom 920 864 5 0 0 0 - - -, f 5;
#X obj 737 849 tempotoms;
#X obj 558 861 +~;
#X obj 503 859 +~;
#X obj 1067 883 tempodelay2;
#X floatatom 1249 859 5 0 0 0 - - -, f 5;
#X obj 1067 781 tempotoms;
#X obj 876 691 select 0 1 2 3 4;
#X obj 881 715 bng 15 250 50 0 empty empty empty 17 7 0 10 -262144
-1 -1;
#X obj 897 715 bng 15 250 50 0 empty empty empty 17 7 0 10 -262144
-1 -1;
#X obj 913 715 bng 15 250 50 0 empty empty empty 17 7 0 10 -262144
-1 -1;
#X obj 929 715 bng 15 250 50 0 empty empty empty 17 7 0 10 -262144
-1 -1;
#X obj 945 715 bng 15 250 50 0 empty empty empty 17 7 0 10 -262144
-1 -1;
#X floatatom 903 839 5 0 0 0 - - -, f 5;
#X obj 876 669 random 5;
#X obj 1216 678 select 0 1 2 3 4;
#X obj 1221 702 bng 15 250 50 0 empty empty empty 17 7 0 10 -262144
-1 -1;
#X obj 1237 702 bng 15 250 50 0 empty empty empty 17 7 0 10 -262144
-1 -1;
#X obj 1253 702 bng 15 250 50 0 empty empty empty 17 7 0 10 -262144
-1 -1;
#X obj 1269 702 bng 15 250 50 0 empty empty empty 17 7 0 10 -262144
-1 -1;
#X obj 1285 702 bng 15 250 50 0 empty empty empty 17 7 0 10 -262144
-1 -1;
#X floatatom 1243 826 5 0 0 0 - - -, f 5;
#X obj 1216 656 random 5;
#X obj 573 807 *~;
#X obj 502 809 *~;
#X obj 737 887 tempodelay2;
#X obj 676 672 hsl 128 15 0.4 2 0 0 empty empty empty -2 -8 0 10 -262144
-1 -1 8600 1;
#X obj 737 824 *;
#X obj 1067 753 *;
#X obj 601 358 *;
#X obj 500 665 *~ 0.8;
#X floatatom 704 724 5 0 0 0 - - -, f 5;
#X obj 579 396 / 1;
#X text 675 695 1.496 is a good value;
#X obj 1388 771 mtof;
#X obj 1388 806 expr 1 / $f1;
#X floatatom 1388 741 5 0 64 0 - - -, f 5;
#X obj 1388 838 * 1000;
#X obj 1387 620 mod 12;
#X obj 1379 1031 mtof;
#X obj 1379 1066 expr 1 / $f1;
#X floatatom 1379 1001 5 0 64 0 - - -, f 5;
#X obj 1379 1098 * 1000;
#X floatatom 1454 945 5 0 0 0 - - -, f 5;
#X floatatom 1551 1046 5 0 0 0 - - -, f 5;
#X obj 1551 1024 expr if ($f1==1 \, $f2 \, $f3);
#X msg 1704 995 0;
#X obj 1454 964 select 1;
#X obj 1499 944 bng 15 250 50 0 empty empty empty 17 7 0 10 -262144
-1 -1;
#X msg 1493 1039 1;
#X obj 1403 873 mod 12;
#X obj 319 819 expr 1 - $f1;
#X obj 319 786 / 100;
#X obj 465 807 *~;
#X obj 542 806 *~;
#X obj 45 613 select 0 1 2 3 4;
#X obj 50 637 bng 15 250 50 0 empty empty empty 17 7 0 10 -262144 -1
-1;
#X obj 66 637 bng 15 250 50 0 empty empty empty 17 7 0 10 -262144 -1
-1;
#X obj 82 637 bng 15 250 50 0 empty empty empty 17 7 0 10 -262144 -1
-1;
#X obj 98 637 bng 15 250 50 0 empty empty empty 17 7 0 10 -262144 -1
-1;
#X obj 114 637 bng 15 250 50 0 empty empty empty 17 7 0 10 -262144
-1 -1;
#X floatatom 72 761 5 0 0 0 - - -, f 5;
#X msg 122 711 50;
#X msg 23 713 100;
#X obj 45 560 select 1;
#X obj 45 589 random 5;
#X obj 228 819 expr 1 - $f1;
#X obj 228 787 / 100;
#X obj 1285 604 *~ 0.4;
#X text 1528 889 major scale;
#X obj 1454 908 expr if ($f1==1|$f1==3|$f1==5|$f1==6|$f1==8|$f1==10|$f1==12
\, 1 \, 0);
#X obj 398 651 *~ 0.6;
#X obj 1398 393 + 44;
#X obj 1368 714 + 1;
#X obj 1347 975 + 1;
#X floatatom 1346 747 5 0 0 0 - - -, f 5;
#X floatatom 1332 1008 5 0 0 0 - - -, f 5;
#X floatatom 1466 688 5 0 0 0 - - -, f 5;
#X floatatom 1563 789 5 0 0 0 - - -, f 5;
#X obj 1563 767 expr if ($f1==1 \, $f2 \, $f3);
#X msg 1716 738 0;
#X obj 1466 707 select 1;
#X obj 1511 687 bng 15 250 50 0 empty empty empty 17 7 0 10 -262144
-1 -1;
#X msg 1505 782 1;
#X obj 1466 651 expr if ($f1==1|$f1==3|$f1==5|$f1==6|$f1==8|$f1==10|$f1==12
\, 1 \, 0);
#X obj 1347 951 random 30;
#X obj 1355 691 random 30;
#X msg 677 609 loadbang;
#X msg 677 636 1;
#X msg 874 592 100;
#X msg 736 593 100;
#X obj 558 528 *~ 0.5;
#X obj 897 392 + 42;
#X msg 1420 370 44;
#X msg 918 361 42;
#X msg 850 790 100;
#X msg 1190 780 100;
#X floatatom 501 975 5 0 0 0 - - -, f 5;
#X obj 318 959 tempotoms;
#X obj 318 997 tempodelay2;
#X obj 318 934 *;
#X obj 607 1002 tempodelay2;
#X msg 90 712 25;
#X msg 158 710 200;
#X msg 52 714 400;
#X obj 494 936 +~;
#X obj 554 933 +~;
#X msg 883 791 50;
#X msg 1223 778 50;
#X floatatom 405 931 5 0 0 0 - - -, f 5;
#X obj 405 885 random 2;
#X obj 400 406 + 42;
#X obj 1565 826 + 47;
#X obj 1552 1084 + 47;
#X msg 421 379 42;
#X obj 125 104 random 25;
#X obj 623 88 random 25;
#X obj 1125 91 random 25;
#X msg 771 594 100;
#X msg 795 825 1;
#X msg 1127 819 1;
#X obj 405 907 - 1;
#X obj 399 440 karplusstrong;
#X msg 803 593 100;
#X obj 910 474 karplusstrong;
#X obj 1408 439 karplusstrong;
#X msg 837 593 50;
#X obj 1096 648 *~ 0.9;
#X obj 1022 642 *~ 0.8;
#X obj 453 705 *~ 0.7;
#X obj 554 719 *~ 0.8;
#X obj 317 1046 *~ 1.5;
#X obj 606 1051 *~ 1.5;
#X obj 1067 935 *~ 1.5;
#X obj 736 936 *~ 1.5;
#X obj 415 603 *~ 0.5;
#X obj 470 627 *~ 0.8;
#X obj 573 640 *~ 0.6;
#X obj 1084 586 *~ 0.4;
#X connect 0 0 5 0;
#X connect 0 0 8 1;
#X connect 0 0 44 0;
#X connect 1 0 15 0;
#X connect 2 0 17 0;
#X connect 4 0 2 0;
#X connect 5 0 6 0;
#X connect 7 0 13 0;
#X connect 8 0 7 0;
#X connect 8 0 206 0;
#X connect 9 0 0 0;
#X connect 12 0 8 2;
#X connect 13 0 14 0;
#X connect 14 0 11 0;
#X connect 14 0 40 0;
#X connect 14 0 109 0;
#X connect 14 0 117 0;
#X connect 14 0 217 1;
#X connect 14 0 217 3;
#X connect 15 0 210 0;
#X connect 15 0 211 0;
#X connect 15 0 212 0;
#X connect 16 0 15 1;
#X connect 17 0 19 0;
#X connect 18 0 217 2;
#X connect 19 0 39 0;
#X connect 20 0 224 0;
#X connect 21 0 25 0;
#X connect 21 0 28 1;
#X connect 21 0 43 0;
#X connect 22 0 34 0;
#X connect 24 0 22 0;
#X connect 25 0 26 0;
#X connect 27 0 32 0;
#X connect 28 0 27 0;
#X connect 28 0 187 0;
#X connect 29 0 21 0;
#X connect 31 0 28 2;
#X connect 32 0 33 0;
#X connect 33 0 30 0;
#X connect 33 0 40 1;
#X connect 33 0 219 1;
#X connect 34 0 36 0;
#X connect 35 0 219 2;
#X connect 36 0 37 0;
#X connect 36 0 38 0;
#X connect 36 0 109 0;
#X connect 36 0 117 0;
#X connect 36 0 219 3;
#X connect 38 0 28 0;
#X connect 39 0 8 0;
#X connect 40 0 42 0;
#X connect 40 0 159 0;
#X connect 42 0 94 0;
#X connect 43 0 24 0;
#X connect 44 0 4 0;
#X connect 45 0 230 0;
#X connect 46 0 125 0;
#X connect 47 0 45 2;
#X connect 48 0 50 0;
#X connect 48 0 53 1;
#X connect 48 0 64 0;
#X connect 49 0 59 0;
#X connect 50 0 51 0;
#X connect 52 0 57 0;
#X connect 53 0 52 0;
#X connect 53 0 167 0;
#X connect 54 0 48 0;
#X connect 56 0 53 2;
#X connect 57 0 58 0;
#X connect 58 0 55 0;
#X connect 58 0 220 1;
#X connect 59 0 61 0;
#X connect 60 0 220 2;
#X connect 61 0 62 0;
#X connect 61 0 63 0;
#X connect 61 0 117 0;
#X connect 61 0 109 0;
#X connect 61 0 220 3;
#X connect 63 0 53 0;
#X connect 64 0 66 0;
#X connect 65 0 20 1;
#X connect 66 0 49 0;
#X connect 67 0 163 0;
#X connect 68 0 222 0;
#X connect 69 0 67 2;
#X connect 70 0 67 3;
#X connect 71 0 225 0;
#X connect 72 0 71 1;
#X connect 73 0 233 0;
#X connect 74 0 223 0;
#X connect 75 0 73 2;
#X connect 76 0 73 3;
#X connect 77 0 81 0;
#X connect 78 0 77 2;
#X connect 79 0 77 3;
#X connect 80 0 166 0;
#X connect 81 0 80 0;
#X connect 83 0 82 0;
#X connect 84 0 82 0;
#X connect 85 0 82 0;
#X connect 86 0 15 0;
#X connect 87 0 88 0;
#X connect 87 1 89 0;
#X connect 87 2 90 0;
#X connect 87 3 91 0;
#X connect 87 4 92 0;
#X connect 88 0 185 0;
#X connect 89 0 213 0;
#X connect 90 0 218 0;
#X connect 91 0 221 0;
#X connect 92 0 184 0;
#X connect 93 0 73 1;
#X connect 93 0 45 0;
#X connect 93 0 147 0;
#X connect 93 0 124 0;
#X connect 94 0 87 0;
#X connect 95 0 120 3;
#X connect 96 0 120 0;
#X connect 97 0 196 2;
#X connect 97 0 201 1;
#X connect 98 0 194 2;
#X connect 98 0 200 1;
#X connect 99 0 228 0;
#X connect 100 0 99 3;
#X connect 101 0 99 0;
#X connect 102 0 103 0;
#X connect 102 1 104 0;
#X connect 102 2 105 0;
#X connect 102 3 106 0;
#X connect 102 4 107 0;
#X connect 103 0 190 0;
#X connect 104 0 202 0;
#X connect 105 0 180 0;
#X connect 106 0 180 0;
#X connect 107 0 180 0;
#X connect 108 0 77 1;
#X connect 108 0 122 0;
#X connect 109 0 102 0;
#X connect 110 0 111 0;
#X connect 110 1 112 0;
#X connect 110 2 113 0;
#X connect 110 3 114 0;
#X connect 110 4 115 0;
#X connect 111 0 191 0;
#X connect 112 0 203 0;
#X connect 113 0 181 0;
#X connect 114 0 181 0;
#X connect 115 0 181 0;
#X connect 116 0 67 0;
#X connect 116 0 123 0;
#X connect 117 0 110 0;
#X connect 118 0 97 1;
#X connect 119 0 98 1;
#X connect 120 0 229 0;
#X connect 121 0 124 1;
#X connect 121 0 126 0;
#X connect 121 0 122 1;
#X connect 121 0 123 1;
#X connect 121 0 195 1;
#X connect 122 0 96 0;
#X connect 123 0 101 0;
#X connect 124 0 127 0;
#X connect 125 0 71 0;
#X connect 127 0 16 0;
#X connect 129 0 130 0;
#X connect 130 0 132 0;
#X connect 131 0 129 0;
#X connect 132 0 99 0;
#X connect 133 0 174 1;
#X connect 133 0 179 0;
#X connect 134 0 135 0;
#X connect 135 0 137 0;
#X connect 136 0 134 0;
#X connect 137 0 120 0;
#X connect 138 0 142 0;
#X connect 139 0 208 0;
#X connect 140 0 139 0;
#X connect 141 0 140 2;
#X connect 142 0 143 0;
#X connect 142 0 144 0;
#X connect 144 0 140 0;
#X connect 145 0 165 0;
#X connect 146 0 118 1;
#X connect 147 0 146 0;
#X connect 147 0 149 1;
#X connect 148 0 98 0;
#X connect 149 0 97 0;
#X connect 150 0 151 0;
#X connect 150 1 152 0;
#X connect 150 2 153 0;
#X connect 150 3 154 0;
#X connect 150 4 155 0;
#X connect 151 0 158 0;
#X connect 152 0 199 0;
#X connect 153 0 197 0;
#X connect 154 0 157 0;
#X connect 155 0 198 0;
#X connect 156 0 162 0;
#X connect 156 0 195 0;
#X connect 157 0 156 0;
#X connect 158 0 156 0;
#X connect 159 0 160 0;
#X connect 159 0 205 0;
#X connect 160 0 150 0;
#X connect 161 0 119 1;
#X connect 162 0 161 0;
#X connect 162 0 148 1;
#X connect 163 0 68 1;
#X connect 165 0 138 0;
#X connect 166 0 20 0;
#X connect 167 0 220 0;
#X connect 168 0 170 0;
#X connect 169 0 171 0;
#X connect 170 0 133 0;
#X connect 171 0 140 1;
#X connect 171 0 145 0;
#X connect 172 0 176 0;
#X connect 173 0 207 0;
#X connect 174 0 173 0;
#X connect 175 0 174 2;
#X connect 176 0 177 0;
#X connect 176 0 178 0;
#X connect 178 0 174 0;
#X connect 179 0 172 0;
#X connect 180 0 169 0;
#X connect 181 0 168 0;
#X connect 182 0 183 0;
#X connect 183 0 121 0;
#X connect 184 0 93 0;
#X connect 185 0 93 0;
#X connect 186 0 45 3;
#X connect 187 0 219 0;
#X connect 188 0 167 1;
#X connect 189 0 187 1;
#X connect 190 0 108 0;
#X connect 191 0 116 0;
#X connect 192 0 194 3;
#X connect 192 0 196 3;
#X connect 193 0 194 0;
#X connect 193 0 196 0;
#X connect 194 0 226 0;
#X connect 195 0 193 0;
#X connect 196 0 227 0;
#X connect 197 0 156 0;
#X connect 198 0 156 0;
#X connect 199 0 156 0;
#X connect 200 0 10 0;
#X connect 200 0 82 0;
#X connect 201 0 10 1;
#X connect 201 0 82 1;
#X connect 202 0 108 0;
#X connect 203 0 116 0;
#X connect 204 0 194 1;
#X connect 204 0 196 1;
#X connect 205 0 216 0;
#X connect 206 0 217 0;
#X connect 207 0 131 0;
#X connect 208 0 136 0;
#X connect 209 0 206 1;
#X connect 210 0 9 0;
#X connect 211 0 29 0;
#X connect 212 0 54 0;
#X connect 213 0 93 0;
#X connect 214 0 120 1;
#X connect 215 0 99 1;
#X connect 216 0 204 0;
#X connect 217 0 46 0;
#X connect 217 0 79 0;
#X connect 217 0 80 1;
#X connect 217 0 186 0;
#X connect 218 0 93 0;
#X connect 219 0 231 0;
#X connect 219 0 232 0;
#X connect 220 0 70 0;
#X connect 220 0 68 0;
#X connect 220 0 74 0;
#X connect 220 0 76 0;
#X connect 221 0 93 0;
#X connect 222 0 72 1;
#X connect 223 0 65 1;
#X connect 224 0 120 2;
#X connect 224 0 149 0;
#X connect 225 0 99 2;
#X connect 225 0 119 0;
#X connect 226 0 200 0;
#X connect 227 0 201 0;
#X connect 228 0 118 0;
#X connect 229 0 119 0;
#X connect 230 0 46 1;
#X connect 231 0 65 0;
#X connect 232 0 72 0;
#X connect 233 0 74 1;
