#N canvas 677 94 683 674 10;
#X obj 107 300 mtof;
#X obj 107 335 expr 1 / $f1;
#X text 191 334 convert to seconds by inversing;
#X text 141 299 notes to frequencies;
#X floatatom 107 270 5 0 64 0 - - -, f 5;
#X text 143 270 select a note;
#X obj 401 445 delwrite~ mydelay-\$0 100;
#X obj 107 402 vd~ mydelay-\$0 100;
#X obj 402 337 sig~;
#X obj 107 228 bng 15 250 50 0 empty empty empty 17 7 0 10 -262144
-1 -1;
#X obj 401 389 +~;
#X obj 281 435 *~ 0.9;
#X obj 314 397 / 100;
#X floatatom 314 368 5 0 100 0 - - -, f 5;
#X obj 107 367 * 1000;
#X text 150 366 ms;
#X obj 436 376 snapshot~ 100;
#X obj 436 348 metro 100;
#X obj 401 422 hip~ 10;
#X obj 402 305 tgl 15 0 empty empty empty 17 7 0 10 -262144 -1 -1 0
1;
#X obj 107 206 inlet;
#X obj 48 229 inlet;
#X obj 252 363 inlet;
#X obj 252 390 min 100;
#X obj 108 434 outlet~;
#X text 102 100 note;
#X text 143 99 bang;
#X text 189 99 damp;
#X text 141 116 kposc;
#X connect 0 0 1 0;
#X connect 1 0 14 0;
#X connect 4 0 0 0;
#X connect 7 0 11 0;
#X connect 7 0 24 0;
#X connect 8 0 10 0;
#X connect 8 0 16 0;
#X connect 9 0 4 0;
#X connect 9 0 17 0;
#X connect 9 0 19 0;
#X connect 10 0 18 0;
#X connect 11 0 10 1;
#X connect 12 0 11 1;
#X connect 13 0 12 0;
#X connect 14 0 7 0;
#X connect 17 0 16 0;
#X connect 18 0 6 0;
#X connect 19 0 8 0;
#X connect 20 0 9 0;
#X connect 21 0 4 0;
#X connect 22 0 23 0;
#X connect 23 0 13 0;
#X coords 0 -1 1 1 120 40 2 100 100;
