#N canvas 1 53 1904 1021 10;
#X obj 304 218 vsl 15 128 0 50 0 0 empty empty oscf 0 -9 0 10 -262144
-1 -1 0 1;
#X obj 706 871 dac~;
#X obj 328 219 vsl 15 128 0 127 0 0 empty empty oscfine 0 -9 0 10 -262144
-1 -1 1200 1;
#X obj 342 406 / 100;
#X obj 324 436 +;
#X obj 358 431 bng 15 250 50 0 empty empty empty 17 7 0 10 -262144
-1 -1;
#X obj 639 223 vsl 15 128 0 50 0 0 empty empty oscf 0 -9 0 10 -262144
-1 -1 0 1;
#X obj 663 224 vsl 15 128 0 127 0 0 empty empty oscfine 0 -9 0 10 -262144
-1 -1 1900 1;
#X floatatom 1157 602 5 0 100 0 - - -, f 5;
#X floatatom 976 593 5 0 0 0 - - -, f 5;
#X obj 701 816 +~;
#X obj 731 816 +~;
#X obj 999 511 tempodelay2;
#X floatatom 1179 489 5 0 100 0 - - -, f 5;
#X floatatom 999 479 5 0 0 0 - - -, f 5;
#X obj 299 395 +;
#X obj 297 368 bng 15 250 50 0 empty empty empty 17 7 0 10 -262144
-1 -1;
#X obj 326 463 +;
#X obj 450 191 phasor~;
#X obj 447 44 vsl 15 128 0.1 10 1 0 empty empty modf 0 -9 0 10 -262144
-1 -1 7700 1;
#X obj 473 44 vsl 15 128 0.1 10 0 0 empty empty mod 0 -9 0 10 -262144
-1 -1 11900 1;
#X obj 452 275 *~;
#X obj 452 244 abs~;
#X obj 451 215 -~ 0.5;
#X obj 501 323 snapshot~;
#X obj 517 297 metro 10;
#X obj 517 265 loadbang;
#X obj 485 272 bng 15 250 50 0 empty empty empty 17 7 0 10 -262144
-1 -1;
#X floatatom 493 347 5 0 0 0 - - -, f 5;
#X obj 493 373 bng 15 250 50 0 empty empty empty 17 7 0 10 -262144
-1 -1;
#X obj 918 789 writesf~ 2;
#X msg 918 701 open vademo.wav;
#X msg 945 725 start;
#X msg 969 755 stop;
#X obj 165 717 notein;
#X obj 213 759 sel 0;
#X obj 253 923 tgl 15 0 empty empty empty 17 7 0 10 -262144 -1 -1 0
1;
#X floatatom 165 760 5 0 0 0 - - -, f 5;
#X msg 213 791 0;
#X msg 254 791 1;
#X floatatom 139 918 5 0 0 0 - - -, f 5;
#X obj 290 1109 bng 15 250 50 0 empty empty empty 17 7 0 10 -262144
-1 -1;
#X obj 139 848 stripnote;
#X obj 139 819 pack;
#X obj 656 772 *~;
#X obj 228 995 line~;
#X obj 228 970 pack;
#X floatatom 251 736 5 0 0 0 - - -, f 5;
#X obj 215 844 +;
#X floatatom 247 846 5 0 0 0 - - -, f 5;
#X msg 215 815 -1;
#X msg 253 815 1;
#X msg 292 816 0;
#X obj 215 871 sel 0;
#X msg 215 897 0;
#X msg 253 897 1;
#X floatatom 340 969 5 0 0 0 - - -, f 5;
#X floatatom 290 968 5 0 0 0 - - -, f 5;
#X obj 290 992 !=;
#X obj 290 1037 bng 15 250 50 0 empty empty empty 17 7 0 10 -262144
-1 -1;
#X obj 290 1014 sel 1;
#X obj 290 1059 +;
#X obj 290 1085 sel 0;
#X msg 253 944 2;
#X obj 513 372 / 50;
#X obj 292 791 loadbang;
#X obj 977 665 *~ 0.8;
#X obj 1000 552 *~ 0.8;
#X obj 976 625 tempodelay2;
#X floatatom 382 471 5 0 100 0 - - -, f 5;
#X floatatom 715 454 5 0 100 0 - - -, f 5;
#X obj 659 482 karplusstrong2;
#X obj 661 541 *~ 0.25;
#X obj 328 553 *~ 0.25;
#X obj 326 494 karplusstrong2;
#X obj 659 413 +;
#X obj 693 413 bng 15 250 50 0 empty empty empty 17 7 0 10 -262144
-1 -1;
#X obj 621 408 +;
#X obj 620 381 bng 15 250 50 0 empty empty empty 17 7 0 10 -262144
-1 -1;
#X obj 659 448 +;
#X obj 677 388 / 200;
#X obj 700 772 *~;
#X obj 815 226 vsl 15 128 0 50 0 0 empty empty oscf 0 -9 0 10 -262144
-1 -1 0 1;
#X obj 839 227 vsl 15 128 0 127 0 0 empty empty oscfine 0 -9 0 10 -262144
-1 -1 1000 1;
#X floatatom 891 457 5 0 100 0 - - -, f 5;
#X obj 835 485 karplusstrong2;
#X obj 837 544 *~ 0.25;
#X obj 835 416 +;
#X obj 869 416 bng 15 250 50 0 empty empty empty 17 7 0 10 -262144
-1 -1;
#X obj 797 411 +;
#X obj 796 384 bng 15 250 50 0 empty empty empty 17 7 0 10 -262144
-1 -1;
#X obj 835 451 +;
#X obj 853 391 / 200;
#X obj 136 216 vsl 15 128 0 50 0 0 empty empty oscf 0 -9 0 10 -262144
-1 -1 0 1;
#X obj 160 217 vsl 15 128 0 127 0 0 empty empty oscfine 0 -9 0 10 -262144
-1 -1 1800 1;
#X obj 174 404 / 100;
#X obj 156 434 +;
#X obj 190 429 bng 15 250 50 0 empty empty empty 17 7 0 10 -262144
-1 -1;
#X obj 131 393 +;
#X obj 129 366 bng 15 250 50 0 empty empty empty 17 7 0 10 -262144
-1 -1;
#X obj 158 461 +;
#X floatatom 214 469 5 0 100 0 - - -, f 5;
#X obj 160 551 *~ 0.25;
#X obj 158 492 karplusstrong2;
#X obj 290 629 +~;
#X obj 753 656 +~;
#X obj 530 583 bng 15 250 50 0 empty empty empty 17 7 0 10 -262144
-1 -1;
#X connect 0 0 15 1;
#X connect 0 0 16 0;
#X connect 2 0 3 0;
#X connect 3 0 4 1;
#X connect 3 0 5 0;
#X connect 4 0 17 0;
#X connect 5 0 4 0;
#X connect 6 0 77 1;
#X connect 6 0 78 0;
#X connect 7 0 80 0;
#X connect 8 0 68 3;
#X connect 9 0 68 0;
#X connect 10 0 30 0;
#X connect 10 0 1 0;
#X connect 11 0 30 1;
#X connect 11 0 1 1;
#X connect 12 0 67 0;
#X connect 13 0 12 3;
#X connect 14 0 12 0;
#X connect 15 0 4 0;
#X connect 16 0 15 0;
#X connect 17 0 74 0;
#X connect 18 0 23 0;
#X connect 19 0 18 0;
#X connect 20 0 21 1;
#X connect 21 0 24 0;
#X connect 22 0 21 0;
#X connect 23 0 22 0;
#X connect 24 0 28 0;
#X connect 25 0 24 0;
#X connect 26 0 25 0;
#X connect 27 0 25 0;
#X connect 28 0 29 0;
#X connect 28 0 64 0;
#X connect 29 0 17 0;
#X connect 29 0 79 0;
#X connect 29 0 100 0;
#X connect 29 0 91 0;
#X connect 31 0 30 0;
#X connect 32 0 30 0;
#X connect 33 0 30 0;
#X connect 34 0 37 0;
#X connect 34 0 43 0;
#X connect 34 1 35 0;
#X connect 34 1 43 1;
#X connect 34 2 47 0;
#X connect 35 0 38 0;
#X connect 35 1 39 0;
#X connect 36 0 63 0;
#X connect 36 0 57 0;
#X connect 38 0 50 0;
#X connect 39 0 51 0;
#X connect 40 0 15 0;
#X connect 40 0 77 0;
#X connect 40 0 98 0;
#X connect 40 0 89 0;
#X connect 41 0 106 0;
#X connect 42 0 40 0;
#X connect 43 0 42 0;
#X connect 45 0 44 1;
#X connect 46 0 45 0;
#X connect 48 0 49 0;
#X connect 48 0 53 0;
#X connect 49 0 48 1;
#X connect 50 0 48 0;
#X connect 51 0 48 0;
#X connect 52 0 49 0;
#X connect 53 0 54 0;
#X connect 53 1 55 0;
#X connect 54 0 36 0;
#X connect 54 0 46 0;
#X connect 54 0 56 0;
#X connect 55 0 36 0;
#X connect 55 0 46 0;
#X connect 55 0 56 0;
#X connect 56 0 58 1;
#X connect 56 0 61 1;
#X connect 57 0 58 0;
#X connect 58 0 60 0;
#X connect 59 0 61 0;
#X connect 60 0 59 0;
#X connect 61 0 62 0;
#X connect 62 0 41 0;
#X connect 63 0 46 1;
#X connect 64 0 17 1;
#X connect 64 0 79 1;
#X connect 64 0 100 1;
#X connect 64 0 91 1;
#X connect 65 0 52 0;
#X connect 68 0 66 0;
#X connect 69 0 74 1;
#X connect 70 0 71 1;
#X connect 71 0 72 0;
#X connect 72 0 105 0;
#X connect 73 0 104 1;
#X connect 74 0 73 0;
#X connect 75 0 79 0;
#X connect 76 0 75 0;
#X connect 77 0 75 0;
#X connect 78 0 77 0;
#X connect 79 0 71 0;
#X connect 80 0 75 1;
#X connect 80 0 76 0;
#X connect 82 0 89 1;
#X connect 82 0 90 0;
#X connect 83 0 92 0;
#X connect 84 0 85 1;
#X connect 85 0 86 0;
#X connect 86 0 105 1;
#X connect 87 0 91 0;
#X connect 88 0 87 0;
#X connect 89 0 87 0;
#X connect 90 0 89 0;
#X connect 91 0 85 0;
#X connect 92 0 87 1;
#X connect 92 0 88 0;
#X connect 93 0 98 1;
#X connect 93 0 99 0;
#X connect 94 0 95 0;
#X connect 95 0 96 1;
#X connect 95 0 97 0;
#X connect 96 0 100 0;
#X connect 97 0 96 0;
#X connect 98 0 96 0;
#X connect 99 0 98 0;
#X connect 100 0 103 0;
#X connect 101 0 103 1;
#X connect 102 0 104 0;
#X connect 103 0 102 0;
#X connect 104 0 10 1;
#X connect 104 0 68 2;
#X connect 105 0 11 0;
#X connect 105 0 12 2;
#X connect 106 0 103 2;
#X connect 106 0 74 2;
#X connect 106 0 71 2;
#X connect 106 0 85 2;
