#N canvas 680 94 683 674 10;
#X msg 208 105 46;
#X text 184 12 minor scale;
#X obj 307 419 dac~;
#X obj 286 179 karplusstrong;
#X obj 342 152 bng 15 250 50 0 empty empty empty 17 7 0 10 -262144
-1 -1;
#X floatatom 244 134 5 0 64 0 - - -, f 5;
#X floatatom 399 151 5 0 100 0 - - -, f 5;
#X obj 12 69 metro;
#X obj 12 103 int;
#X obj 12 36 bng 15 250 50 0 empty empty empty 17 7 0 10 -262144 -1
-1;
#X obj 12 134 mod 4;
#X obj 52 102 + 1;
#X floatatom 43 15 5 0 0 0 - - -, f 5;
#X obj 43 40 tempotoms;
#X obj 12 164 select 0 1 2 3;
#X obj 271 158 +;
#X floatatom 340 98 5 0 0 0 - - -, f 5;
#X obj 31 235 tempodelay;
#X obj 306 344 +~;
#X obj 339 345 +~;
#X msg 91 207 1.5;
#X floatatom 232 178 5 0 0 0 - - -, f 5;
#X obj 18 403 tempodelay;
#X floatatom 219 339 5 0 0 0 - - -, f 5;
#X msg 136 17 42;
#X msg 137 40 41;
#X msg 8 10 stop;
#X msg 435 368 start;
#X msg 444 391 stop;
#X obj 417 435 writesf~ 2;
#X obj 343 378 *~;
#X obj 306 376 *~;
#X msg 373 282 0.4;
#X msg 417 344 open foo.wav;
#X msg 78 377 1;
#X msg 206 57 37;
#X msg 205 33 34;
#X msg 207 82 41;
#X connect 0 0 5 0;
#X connect 0 0 4 0;
#X connect 3 0 17 2;
#X connect 3 0 18 1;
#X connect 3 0 19 1;
#X connect 3 0 22 2;
#X connect 4 0 3 1;
#X connect 5 0 15 0;
#X connect 6 0 3 2;
#X connect 7 0 8 0;
#X connect 8 0 10 0;
#X connect 8 0 11 0;
#X connect 9 0 7 0;
#X connect 10 0 14 0;
#X connect 11 0 8 1;
#X connect 12 0 13 0;
#X connect 13 0 7 1;
#X connect 13 0 17 0;
#X connect 13 0 22 0;
#X connect 14 0 36 0;
#X connect 14 1 35 0;
#X connect 14 2 37 0;
#X connect 14 3 0 0;
#X connect 15 0 3 0;
#X connect 16 0 15 1;
#X connect 17 0 19 0;
#X connect 18 0 31 0;
#X connect 19 0 30 0;
#X connect 20 0 17 1;
#X connect 21 0 17 3;
#X connect 22 0 18 0;
#X connect 23 0 22 3;
#X connect 24 0 37 0;
#X connect 25 0 37 0;
#X connect 26 0 7 0;
#X connect 27 0 29 0;
#X connect 28 0 29 0;
#X connect 30 0 2 1;
#X connect 30 0 29 1;
#X connect 31 0 2 0;
#X connect 31 0 29 0;
#X connect 32 0 30 1;
#X connect 32 0 31 1;
#X connect 33 0 29 0;
#X connect 34 0 22 1;
#X connect 35 0 5 0;
#X connect 35 0 4 0;
#X connect 36 0 5 0;
#X connect 36 0 4 0;
#X connect 37 0 5 0;
#X connect 37 0 4 0;
