#N canvas 593 93 683 674 10;
#X obj 107 300 mtof;
#X obj 107 335 expr 1 / $f1;
#X text 191 334 convert to seconds by inversing;
#X text 141 299 notes to frequencies;
#X floatatom 107 270 5 0 64 0 - - -, f 5;
#X text 143 270 select a note;
#X obj 401 587 delwrite~ mydelay-\$0 100;
#X obj 107 402 vd~ mydelay-\$0 100;
#X obj 402 314 sig~;
#X obj 107 228 bng 15 250 50 0 empty empty empty 17 7 0 10 -262144
-1 -1;
#X obj 401 358 +~;
#X floatatom 314 368 5 0 100 0 - - -, f 5;
#X text 150 366 ms;
#X obj 402 294 tgl 15 0 empty empty empty 17 7 0 10 -262144 -1 -1 1
1;
#X obj 107 206 inlet;
#X obj 48 229 inlet;
#X obj 252 363 inlet;
#X obj 252 390 min 100;
#X obj 108 434 outlet~;
#X text 102 100 note;
#X text 143 99 bang;
#X text 189 99 damp;
#X text 141 116 kposc;
#X obj 107 367 * 1000;
#X obj 507 288 inlet;
#X obj 507 348 + 10;
#X obj 401 392 lop~ 12000;
#X obj 314 391 / 1000;
#X obj 402 493 hip~ 20;
#X obj 468 251 + 200;
#X obj 402 516 hip~ 20;
#X obj 280 455 *~ 1;
#X obj 402 337 hip~ 100;
#X obj 402 539 hip~ 20;
#X obj 402 562 hip~ 20;
#X obj 401 439 lop~ 12000;
#X obj 401 463 lop~ 12000;
#X obj 402 417 lop~ 12000;
#X obj 506 317 random 200;
#X obj 314 423 + 0.93;
#X obj 469 222 random 4000;
#X connect 0 0 1 0;
#X connect 1 0 23 0;
#X connect 4 0 0 0;
#X connect 7 0 18 0;
#X connect 7 0 31 0;
#X connect 8 0 32 0;
#X connect 9 0 4 0;
#X connect 9 0 13 0;
#X connect 10 0 26 0;
#X connect 11 0 27 0;
#X connect 13 0 8 0;
#X connect 14 0 9 0;
#X connect 15 0 4 0;
#X connect 16 0 17 0;
#X connect 17 0 11 0;
#X connect 23 0 7 0;
#X connect 24 0 38 0;
#X connect 24 0 40 0;
#X connect 25 0 28 1;
#X connect 25 0 30 1;
#X connect 25 0 33 1;
#X connect 25 0 34 1;
#X connect 26 0 37 0;
#X connect 27 0 39 0;
#X connect 28 0 30 0;
#X connect 29 0 26 1;
#X connect 29 0 37 1;
#X connect 29 0 35 1;
#X connect 29 0 36 1;
#X connect 30 0 33 0;
#X connect 31 0 10 1;
#X connect 32 0 10 0;
#X connect 33 0 34 0;
#X connect 34 0 6 0;
#X connect 35 0 36 0;
#X connect 36 0 28 0;
#X connect 37 0 35 0;
#X connect 38 0 25 0;
#X connect 39 0 31 1;
#X connect 40 0 29 0;
#X coords 0 -1 1 1 120 40 2 100 100;
