#N canvas 100 94 450 300 10;
#X floatatom 356 182 5 0 0 0 - - -, f 5;
#X obj 290 146 phasor~;
#X obj 291 172 cos~;
#X obj 290 195 *~ 50;
#X obj 290 224 +~;
#X floatatom 367 126 5 0 0 0 - - -, f 5;
#X floatatom 290 97 5 0 0 0 - - -, f 5;
#X obj 356 208 sig~ 20;
#X obj 367 81 inlet;
#X obj 290 58 inlet;
#X obj 290 260 outlet~;
#X text 268 39 lfo frequency;
#X text 355 62 mod amount;
#X text 394 159 dc;
#X text 201 101 amp;
#X text 159 101 dc;
#X obj 356 158 inlet;
#X obj 290 120 / 1000;
#X text 104 102 freq;
#X text 102 114 (mHz);
#X obj 367 103 / 100;
#X text 48 166 add max and min limits to inputs;
#X text 25 184 this lfo is specifically made for reverb;
#X connect 0 0 7 0;
#X connect 1 0 2 0;
#X connect 2 0 3 0;
#X connect 3 0 4 0;
#X connect 4 0 10 0;
#X connect 5 0 3 1;
#X connect 6 0 17 0;
#X connect 7 0 4 1;
#X connect 8 0 20 0;
#X connect 9 0 6 0;
#X connect 16 0 0 0;
#X connect 17 0 1 0;
#X connect 20 0 5 0;
#X coords 0 -1 1 1 130 30 2 100 100;
