#N canvas 0 94 683 674 10;
#X obj 25 245 looper;
#X obj 23 14 adc~;
#X obj 24 601 dac~;
#X obj 40 84 reverb;
#X floatatom 135 37 5 0 0 0 - - -, f 5;
#X obj 24 207 +~;
#X obj 39 182 *~;
#X obj 54 158 / 100;
#X floatatom 54 136 5 0 0 0 - - -, f 5;
#X obj 105 602 writesf~;
#X msg 105 512 open foo.wav;
#X msg 124 537 start;
#X msg 136 563 stop;
#X text 166 174 more fun than a barrel of monkeys;
#X text 144 192 might want to make all the loops sync to the first
one;
#X connect 0 0 2 0;
#X connect 0 0 2 1;
#X connect 0 0 9 0;
#X connect 1 0 5 0;
#X connect 1 0 3 3;
#X connect 3 0 6 0;
#X connect 4 0 3 2;
#X connect 5 0 0 0;
#X connect 6 0 5 1;
#X connect 7 0 6 1;
#X connect 8 0 7 0;
#X connect 10 0 9 0;
#X connect 11 0 9 0;
#X connect 12 0 9 0;
