#N canvas 0 92 1366 676 10;
#X obj 526 622 makenote 64 250;
#X obj 295 236 adc~;
#X obj 295 277 dac~;
#X floatatom 766 197 3 0 30 0 length - -, f 3;
#X floatatom 155 157 3 0 12 0 note - -, f 3;
#X floatatom 189 158 3 0 12 0 - - -, f 3;
#X floatatom 225 158 3 0 12 0 - - -, f 3;
#X floatatom 261 157 3 0 12 0 - - -, f 3;
#X floatatom 298 157 3 0 12 0 - - -, f 3;
#X floatatom 334 158 3 0 12 0 - - -, f 3;
#X floatatom 370 158 3 0 12 0 - - -, f 3;
#X obj 156 204 bng 15 250 50 0 empty empty empty 17 7 0 10 -261234
-1 -1;
#X obj 190 204 bng 15 250 50 0 empty empty empty 17 7 0 10 -261234
-1 -1;
#X obj 225 204 bng 15 250 50 0 empty empty empty 17 7 0 10 -261234
-1 -1;
#X obj 261 204 bng 15 250 50 0 empty empty empty 17 7 0 10 -261234
-1 -1;
#X obj 297 204 bng 15 250 50 0 empty empty empty 17 7 0 10 -261234
-1 -1;
#X obj 335 204 bng 15 250 50 0 empty empty empty 17 7 0 10 -261234
-1 -1;
#X obj 371 204 bng 15 250 50 0 empty empty empty 17 7 0 10 -261234
-1 -1;
#X obj 140 297 + 1;
#X obj 108 299 int;
#X floatatom 404 159 3 0 12 0 - - -, f 3;
#X obj 405 204 bng 15 250 50 0 empty empty empty 17 7 0 10 -261234
-1 -1;
#X obj 156 181 tgl 15 0 empty empty empty 17 7 0 10 -204800 -1 -1 1
1;
#X obj 107 466 &&;
#X obj 109 486 select 1;
#X msg 107 425 1;
#X obj 190 181 tgl 15 0 empty empty empty 17 7 0 10 -204800 -1 -1 1
1;
#X obj 172 466 &&;
#X obj 174 486 select 1;
#X msg 172 425 1;
#X obj 225 181 tgl 15 0 empty empty empty 17 7 0 10 -204800 -1 -1 1
1;
#X obj 238 466 &&;
#X obj 240 486 select 1;
#X msg 238 425 1;
#X obj 261 181 tgl 15 0 empty empty empty 17 7 0 10 -204800 -1 -1 1
1;
#X obj 303 465 &&;
#X obj 305 485 select 1;
#X msg 303 424 1;
#X obj 297 182 tgl 15 0 empty empty empty 17 7 0 10 -204800 -1 -1 1
1;
#X obj 370 465 &&;
#X obj 372 485 select 1;
#X msg 370 424 1;
#X obj 335 182 tgl 15 0 empty empty empty 17 7 0 10 -204800 -1 -1 1
1;
#X obj 435 465 &&;
#X obj 437 485 select 1;
#X msg 435 424 1;
#X obj 371 182 tgl 15 0 empty empty empty 17 7 0 10 -204800 -1 -1 1
1;
#X obj 501 465 &&;
#X obj 503 485 select 1;
#X msg 501 424 1;
#X obj 405 183 tgl 15 0 empty empty empty 17 7 0 10 -204800 -1 -1 1
1;
#X obj 566 464 &&;
#X obj 568 484 select 1;
#X msg 566 423 1;
#X symbolatom 403 248 10 0 0 0 - - -, f 10;
#X obj 53 254 inlet;
#X obj 108 253 bng 15 250 50 0 empty empty empty 17 7 0 10 -262144
-1 -1;
#X floatatom 108 275 5 0 0 0 - - -, f 5;
#X obj 107 231 inlet;
#X text 65 232 reset;
#X obj 730 152 bng 15 250 50 0 empty empty clock 17 7 0 10 -204786
-1 -1;
#X obj 460 326 select 1 2 3 4 5 6 7 8 9 10 11 12 13 14 15 16;
#X obj 634 464 &&;
#X obj 636 484 select 1;
#X msg 634 423 1;
#X obj 699 464 &&;
#X obj 701 484 select 1;
#X msg 699 423 1;
#X obj 765 464 &&;
#X obj 767 484 select 1;
#X msg 765 423 1;
#X obj 830 463 &&;
#X obj 832 483 select 1;
#X msg 830 422 1;
#X obj 897 463 &&;
#X obj 899 483 select 1;
#X msg 897 422 1;
#X obj 962 463 &&;
#X obj 964 483 select 1;
#X msg 962 422 1;
#X obj 1028 463 &&;
#X obj 1030 483 select 1;
#X msg 1028 422 1;
#X obj 1093 462 &&;
#X obj 1095 482 select 1;
#X msg 1093 421 1;
#X floatatom 438 159 3 0 12 0 - - -, f 3;
#X floatatom 472 160 3 0 12 0 - - -, f 3;
#X floatatom 508 160 3 0 12 0 - - -, f 3;
#X floatatom 544 159 3 0 12 0 - - -, f 3;
#X floatatom 581 160 3 0 12 0 - - -, f 3;
#X floatatom 617 160 3 0 12 0 - - -, f 3;
#X floatatom 653 160 3 0 12 0 - - -, f 3;
#X obj 439 206 bng 15 250 50 0 empty empty empty 17 7 0 10 -261234
-1 -1;
#X obj 473 206 bng 15 250 50 0 empty empty empty 17 7 0 10 -261234
-1 -1;
#X obj 508 206 bng 15 250 50 0 empty empty empty 17 7 0 10 -261234
-1 -1;
#X obj 544 206 bng 15 250 50 0 empty empty empty 17 7 0 10 -261234
-1 -1;
#X obj 580 206 bng 15 250 50 0 empty empty empty 17 7 0 10 -261234
-1 -1;
#X obj 618 206 bng 15 250 50 0 empty empty empty 17 7 0 10 -261234
-1 -1;
#X obj 654 206 bng 15 250 50 0 empty empty empty 17 7 0 10 -261234
-1 -1;
#X floatatom 687 161 3 0 12 0 - - -, f 3;
#X obj 688 206 bng 15 250 50 0 empty empty empty 17 7 0 10 -261234
-1 -1;
#X obj 439 183 tgl 15 0 empty empty empty 17 7 0 10 -204800 -1 -1 1
1;
#X obj 473 183 tgl 15 0 empty empty empty 17 7 0 10 -204800 -1 -1 1
1;
#X obj 508 183 tgl 15 0 empty empty empty 17 7 0 10 -204800 -1 -1 1
1;
#X obj 544 183 tgl 15 0 empty empty empty 17 7 0 10 -204800 -1 -1 1
1;
#X obj 580 184 tgl 15 0 empty empty empty 17 7 0 10 -204800 -1 -1 1
1;
#X obj 618 184 tgl 15 0 empty empty empty 17 7 0 10 -204800 -1 -1 1
1;
#X obj 654 184 tgl 15 0 empty empty empty 17 7 0 10 -204800 -1 -1 1
1;
#X obj 688 185 tgl 15 0 empty empty empty 17 7 0 10 -204800 -1 -1 1
1;
#X obj 108 326 mod 16;
#X floatatom 155 135 3 0 5 0 octave - -, f 3;
#X floatatom 189 136 3 0 5 0 - - -, f 3;
#X floatatom 225 136 3 0 5 0 - - -, f 3;
#X floatatom 261 135 3 0 5 0 - - -, f 3;
#X floatatom 298 135 3 0 5 0 - - -, f 3;
#X floatatom 334 136 3 0 5 0 - - -, f 3;
#X floatatom 370 136 3 0 5 0 - - -, f 3;
#X floatatom 404 137 3 0 5 0 - - -, f 3;
#X floatatom 438 137 3 0 5 0 - - -, f 3;
#X floatatom 472 138 3 0 5 0 - - -, f 3;
#X floatatom 508 138 3 0 5 0 - - -, f 3;
#X floatatom 544 137 3 0 5 0 - - -, f 3;
#X floatatom 581 138 3 0 5 0 - - -, f 3;
#X floatatom 617 138 3 0 5 0 - - -, f 3;
#X floatatom 653 138 3 0 5 0 - - -, f 3;
#X floatatom 687 139 3 0 5 0 - - -, f 3;
#X obj 45 549 +;
#X obj 63 522 * 12;
#X obj 103 549 +;
#X obj 121 522 * 12;
#X obj 155 551 +;
#X obj 173 524 * 12;
#X obj 213 553 +;
#X obj 231 526 * 12;
#X obj 279 554 +;
#X obj 297 527 * 12;
#X obj 337 554 +;
#X obj 355 527 * 12;
#X obj 389 556 +;
#X obj 407 529 * 12;
#X obj 447 558 +;
#X obj 465 531 * 12;
#X obj 513 559 +;
#X obj 531 532 * 12;
#X obj 571 559 +;
#X obj 589 532 * 12;
#X obj 623 561 +;
#X obj 641 534 * 12;
#X obj 681 563 +;
#X obj 699 536 * 12;
#X obj 747 564 +;
#X obj 765 537 * 12;
#X obj 805 564 +;
#X obj 823 537 * 12;
#X obj 857 566 +;
#X obj 875 539 * 12;
#X obj 915 568 +;
#X obj 933 541 * 12;
#X obj 569 652 noteout 1;
#X floatatom 766 175 3 1 10 0 channel - -, f 3;
#X text 121 181 gate;
#X text 705 117 resetinput^;
#X text 109 116 ^clockinput;
#X connect 0 0 159 0;
#X connect 0 1 159 1;
#X connect 1 0 2 1;
#X connect 1 0 2 0;
#X connect 3 0 0 2;
#X connect 4 0 127 0;
#X connect 5 0 129 0;
#X connect 6 0 131 0;
#X connect 7 0 133 0;
#X connect 8 0 135 0;
#X connect 9 0 137 0;
#X connect 10 0 139 0;
#X connect 11 0 4 0;
#X connect 12 0 5 0;
#X connect 13 0 6 0;
#X connect 14 0 7 0;
#X connect 15 0 8 0;
#X connect 16 0 9 0;
#X connect 17 0 10 0;
#X connect 18 0 19 1;
#X connect 19 0 18 0;
#X connect 19 0 110 0;
#X connect 20 0 141 0;
#X connect 21 0 20 0;
#X connect 22 0 23 1;
#X connect 23 0 24 0;
#X connect 24 0 11 0;
#X connect 25 0 23 0;
#X connect 26 0 27 1;
#X connect 27 0 28 0;
#X connect 28 0 12 0;
#X connect 29 0 27 0;
#X connect 30 0 31 1;
#X connect 31 0 32 0;
#X connect 32 0 13 0;
#X connect 33 0 31 0;
#X connect 34 0 35 1;
#X connect 35 0 36 0;
#X connect 36 0 14 0;
#X connect 37 0 35 0;
#X connect 38 0 39 1;
#X connect 39 0 40 0;
#X connect 40 0 15 0;
#X connect 41 0 39 0;
#X connect 42 0 43 1;
#X connect 43 0 44 0;
#X connect 44 0 16 0;
#X connect 45 0 43 0;
#X connect 46 0 47 1;
#X connect 47 0 48 0;
#X connect 48 0 17 0;
#X connect 49 0 47 0;
#X connect 50 0 51 1;
#X connect 51 0 52 0;
#X connect 52 0 21 0;
#X connect 53 0 51 0;
#X connect 55 0 19 0;
#X connect 55 0 60 0;
#X connect 56 0 57 0;
#X connect 57 0 19 0;
#X connect 58 0 56 0;
#X connect 61 0 25 0;
#X connect 61 1 29 0;
#X connect 61 2 33 0;
#X connect 61 3 37 0;
#X connect 61 4 41 0;
#X connect 61 5 45 0;
#X connect 61 6 49 0;
#X connect 61 7 53 0;
#X connect 61 8 64 0;
#X connect 61 9 67 0;
#X connect 61 10 70 0;
#X connect 61 11 73 0;
#X connect 61 12 76 0;
#X connect 61 13 79 0;
#X connect 61 14 82 0;
#X connect 61 16 85 0;
#X connect 62 0 63 0;
#X connect 63 0 93 0;
#X connect 64 0 62 0;
#X connect 65 0 66 0;
#X connect 66 0 94 0;
#X connect 67 0 65 0;
#X connect 68 0 69 0;
#X connect 69 0 95 0;
#X connect 70 0 68 0;
#X connect 71 0 72 0;
#X connect 72 0 96 0;
#X connect 73 0 71 0;
#X connect 74 0 75 0;
#X connect 75 0 97 0;
#X connect 76 0 74 0;
#X connect 77 0 78 0;
#X connect 78 0 98 0;
#X connect 79 0 77 0;
#X connect 80 0 81 0;
#X connect 81 0 99 0;
#X connect 82 0 80 0;
#X connect 83 0 84 0;
#X connect 84 0 101 0;
#X connect 85 0 83 0;
#X connect 86 0 143 0;
#X connect 87 0 145 0;
#X connect 88 0 147 0;
#X connect 89 0 149 0;
#X connect 90 0 151 0;
#X connect 91 0 153 0;
#X connect 92 0 155 0;
#X connect 93 0 86 0;
#X connect 94 0 87 0;
#X connect 95 0 88 0;
#X connect 96 0 89 0;
#X connect 97 0 90 0;
#X connect 98 0 91 0;
#X connect 99 0 92 0;
#X connect 100 0 157 0;
#X connect 101 0 100 0;
#X connect 102 0 62 1;
#X connect 103 0 65 1;
#X connect 104 0 68 1;
#X connect 105 0 71 1;
#X connect 106 0 74 1;
#X connect 107 0 77 1;
#X connect 108 0 80 1;
#X connect 109 0 83 1;
#X connect 110 0 61 0;
#X connect 111 0 128 0;
#X connect 112 0 130 0;
#X connect 113 0 132 0;
#X connect 114 0 134 0;
#X connect 115 0 136 0;
#X connect 116 0 138 0;
#X connect 117 0 140 0;
#X connect 118 0 142 0;
#X connect 119 0 144 0;
#X connect 120 0 146 0;
#X connect 121 0 148 0;
#X connect 122 0 150 0;
#X connect 123 0 152 0;
#X connect 124 0 154 0;
#X connect 125 0 156 0;
#X connect 126 0 158 0;
#X connect 127 0 0 0;
#X connect 128 0 127 1;
#X connect 129 0 0 0;
#X connect 130 0 129 1;
#X connect 131 0 0 0;
#X connect 132 0 131 1;
#X connect 133 0 0 0;
#X connect 134 0 133 1;
#X connect 135 0 0 0;
#X connect 136 0 135 1;
#X connect 137 0 0 0;
#X connect 138 0 137 1;
#X connect 139 0 0 0;
#X connect 140 0 139 1;
#X connect 141 0 0 0;
#X connect 142 0 141 1;
#X connect 143 0 0 0;
#X connect 144 0 143 1;
#X connect 145 0 0 0;
#X connect 146 0 145 1;
#X connect 147 0 0 0;
#X connect 148 0 147 1;
#X connect 149 0 0 0;
#X connect 150 0 149 1;
#X connect 151 0 0 0;
#X connect 152 0 151 1;
#X connect 153 0 0 0;
#X connect 154 0 153 1;
#X connect 155 0 0 0;
#X connect 156 0 155 1;
#X connect 157 0 0 0;
#X connect 158 0 157 1;
#X coords 0 -1 1 1 700 130 1 100 100;
