#N canvas 0 92 1366 676 10;
#X obj 109 673 noteout;
#X obj 109 631 makenote 64 250;
#X obj 295 236 adc~;
#X obj 295 277 dac~;
#X msg 196 585;
#X floatatom 735 171 5 0 0 0 - - -, f 5;
#X text 715 150 gate length;
#X floatatom 151 126 3 0 12 0 - - -, f 3;
#X floatatom 185 127 3 0 12 0 - - -, f 3;
#X floatatom 221 127 3 0 12 0 - - -, f 3;
#X floatatom 257 126 3 0 12 0 - - -, f 3;
#X floatatom 294 126 3 0 12 0 - - -, f 3;
#X floatatom 330 127 3 0 12 0 - - -, f 3;
#X floatatom 366 127 3 0 12 0 - - -, f 3;
#X obj 152 173 bng 15 250 50 0 empty empty empty 17 7 0 10 -261234
-1 -1;
#X obj 186 173 bng 15 250 50 0 empty empty empty 17 7 0 10 -261234
-1 -1;
#X obj 221 173 bng 15 250 50 0 empty empty empty 17 7 0 10 -261234
-1 -1;
#X obj 257 173 bng 15 250 50 0 empty empty empty 17 7 0 10 -261234
-1 -1;
#X obj 293 173 bng 15 250 50 0 empty empty empty 17 7 0 10 -261234
-1 -1;
#X obj 331 173 bng 15 250 50 0 empty empty empty 17 7 0 10 -261234
-1 -1;
#X obj 367 173 bng 15 250 50 0 empty empty empty 17 7 0 10 -261234
-1 -1;
#X obj 140 297 + 1;
#X obj 108 299 int;
#X floatatom 400 128 3 0 12 0 - - -, f 3;
#X obj 401 173 bng 15 250 50 0 empty empty empty 17 7 0 10 -261234
-1 -1;
#X obj 152 150 tgl 15 0 empty empty empty 17 7 0 10 -204800 -1 -1 1
1;
#X obj 107 466 &&;
#X obj 109 486 select 1;
#X msg 107 425 1;
#X obj 186 150 tgl 15 0 empty empty empty 17 7 0 10 -204800 -1 -1 1
1;
#X obj 172 466 &&;
#X obj 174 486 select 1;
#X msg 172 425 1;
#X obj 221 150 tgl 15 0 empty empty empty 17 7 0 10 -204800 -1 -1 1
1;
#X obj 238 466 &&;
#X obj 240 486 select 1;
#X msg 238 425 1;
#X obj 257 150 tgl 15 0 empty empty empty 17 7 0 10 -204800 -1 -1 1
1;
#X obj 303 465 &&;
#X obj 305 485 select 1;
#X msg 303 424 1;
#X obj 293 151 tgl 15 0 empty empty empty 17 7 0 10 -204800 -1 -1 1
1;
#X obj 370 465 &&;
#X obj 372 485 select 1;
#X msg 370 424 1;
#X obj 331 151 tgl 15 0 empty empty empty 17 7 0 10 -204800 -1 -1 1
1;
#X obj 435 465 &&;
#X obj 437 485 select 1;
#X msg 435 424 1;
#X obj 367 151 tgl 15 0 empty empty empty 17 7 0 10 -204800 -1 -1 1
1;
#X obj 501 465 &&;
#X obj 503 485 select 1;
#X msg 501 424 1;
#X obj 401 152 tgl 15 0 empty empty empty 17 7 0 10 -204800 -1 -1 1
1;
#X obj 566 464 &&;
#X obj 568 484 select 1;
#X msg 566 423 1;
#X text 106 124 notes;
#X text 106 149 gates;
#X obj 53 254 inlet;
#X text 731 111 clock;
#X obj 108 253 bng 15 250 50 0 empty empty empty 17 7 0 10 -262144
-1 -1;
#X floatatom 108 275 5 0 0 0 - - -, f 5;
#X obj 108 222 inlet;
#X text 106 205 reset;
#X obj 744 129 bng 15 250 50 0 empty empty empty 17 7 0 10 -204786
-1 -1;
#X obj 460 326 select 1 2 3 4 5 6 7 8 9 10 11 12 13 14 15 16;
#X obj 634 464 &&;
#X obj 636 484 select 1;
#X msg 634 423 1;
#X obj 699 464 &&;
#X obj 701 484 select 1;
#X msg 699 423 1;
#X obj 765 464 &&;
#X obj 767 484 select 1;
#X msg 765 423 1;
#X obj 830 463 &&;
#X obj 832 483 select 1;
#X msg 830 422 1;
#X obj 897 463 &&;
#X obj 899 483 select 1;
#X msg 897 422 1;
#X obj 962 463 &&;
#X obj 964 483 select 1;
#X msg 962 422 1;
#X obj 1028 463 &&;
#X obj 1030 483 select 1;
#X msg 1028 422 1;
#X obj 1093 462 &&;
#X obj 1095 482 select 1;
#X msg 1093 421 1;
#X floatatom 434 128 3 0 12 0 - - -, f 3;
#X floatatom 468 129 3 0 12 0 - - -, f 3;
#X floatatom 504 129 3 0 12 0 - - -, f 3;
#X floatatom 540 128 3 0 12 0 - - -, f 3;
#X floatatom 577 128 3 0 12 0 - - -, f 3;
#X floatatom 613 129 3 0 12 0 - - -, f 3;
#X floatatom 649 129 3 0 12 0 - - -, f 3;
#X obj 435 175 bng 15 250 50 0 empty empty empty 17 7 0 10 -261234
-1 -1;
#X obj 469 175 bng 15 250 50 0 empty empty empty 17 7 0 10 -261234
-1 -1;
#X obj 504 175 bng 15 250 50 0 empty empty empty 17 7 0 10 -261234
-1 -1;
#X obj 540 175 bng 15 250 50 0 empty empty empty 17 7 0 10 -261234
-1 -1;
#X obj 576 175 bng 15 250 50 0 empty empty empty 17 7 0 10 -261234
-1 -1;
#X obj 614 175 bng 15 250 50 0 empty empty empty 17 7 0 10 -261234
-1 -1;
#X obj 650 175 bng 15 250 50 0 empty empty empty 17 7 0 10 -261234
-1 -1;
#X floatatom 683 130 3 0 12 0 - - -, f 3;
#X obj 684 175 bng 15 250 50 0 empty empty empty 17 7 0 10 -261234
-1 -1;
#X obj 435 152 tgl 15 0 empty empty empty 17 7 0 10 -204800 -1 -1 1
1;
#X obj 469 152 tgl 15 0 empty empty empty 17 7 0 10 -204800 -1 -1 1
1;
#X obj 504 152 tgl 15 0 empty empty empty 17 7 0 10 -204800 -1 -1 1
1;
#X obj 540 152 tgl 15 0 empty empty empty 17 7 0 10 -204800 -1 -1 1
1;
#X obj 576 153 tgl 15 0 empty empty empty 17 7 0 10 -204800 -1 -1 1
1;
#X obj 614 153 tgl 15 0 empty empty empty 17 7 0 10 -204800 -1 -1 1
1;
#X obj 650 153 tgl 15 0 empty empty empty 17 7 0 10 -204800 -1 -1 1
1;
#X obj 684 154 tgl 15 0 empty empty empty 17 7 0 10 -204800 -1 -1 1
1;
#X obj 108 326 mod 16;
#X connect 1 0 0 0;
#X connect 1 1 0 1;
#X connect 2 0 3 1;
#X connect 2 0 3 0;
#X connect 4 0 5 0;
#X connect 5 0 1 2;
#X connect 7 0 1 0;
#X connect 8 0 1 0;
#X connect 9 0 1 0;
#X connect 10 0 1 0;
#X connect 11 0 1 0;
#X connect 12 0 1 0;
#X connect 13 0 1 0;
#X connect 14 0 7 0;
#X connect 15 0 8 0;
#X connect 16 0 9 0;
#X connect 17 0 10 0;
#X connect 18 0 11 0;
#X connect 19 0 12 0;
#X connect 20 0 13 0;
#X connect 21 0 22 1;
#X connect 22 0 21 0;
#X connect 22 0 115 0;
#X connect 23 0 1 0;
#X connect 24 0 23 0;
#X connect 25 0 26 1;
#X connect 26 0 27 0;
#X connect 27 0 14 0;
#X connect 28 0 26 0;
#X connect 29 0 30 1;
#X connect 30 0 31 0;
#X connect 31 0 15 0;
#X connect 32 0 30 0;
#X connect 33 0 34 1;
#X connect 34 0 35 0;
#X connect 35 0 16 0;
#X connect 36 0 34 0;
#X connect 37 0 38 1;
#X connect 38 0 39 0;
#X connect 39 0 17 0;
#X connect 40 0 38 0;
#X connect 41 0 42 1;
#X connect 42 0 43 0;
#X connect 43 0 18 0;
#X connect 44 0 42 0;
#X connect 45 0 46 1;
#X connect 46 0 47 0;
#X connect 47 0 19 0;
#X connect 48 0 46 0;
#X connect 49 0 50 1;
#X connect 50 0 51 0;
#X connect 51 0 20 0;
#X connect 52 0 50 0;
#X connect 53 0 54 1;
#X connect 54 0 55 0;
#X connect 55 0 24 0;
#X connect 56 0 54 0;
#X connect 59 0 22 0;
#X connect 59 0 65 0;
#X connect 61 0 62 0;
#X connect 62 0 22 0;
#X connect 63 0 61 0;
#X connect 66 0 28 0;
#X connect 66 1 32 0;
#X connect 66 2 36 0;
#X connect 66 3 40 0;
#X connect 66 4 44 0;
#X connect 66 5 48 0;
#X connect 66 6 52 0;
#X connect 66 7 56 0;
#X connect 66 8 69 0;
#X connect 66 9 72 0;
#X connect 66 10 75 0;
#X connect 66 11 78 0;
#X connect 66 12 81 0;
#X connect 66 13 84 0;
#X connect 66 14 87 0;
#X connect 66 16 90 0;
#X connect 67 0 68 0;
#X connect 68 0 98 0;
#X connect 69 0 67 0;
#X connect 70 0 71 0;
#X connect 71 0 99 0;
#X connect 72 0 70 0;
#X connect 73 0 74 0;
#X connect 74 0 100 0;
#X connect 75 0 73 0;
#X connect 76 0 77 0;
#X connect 77 0 101 0;
#X connect 78 0 76 0;
#X connect 79 0 80 0;
#X connect 80 0 102 0;
#X connect 81 0 79 0;
#X connect 82 0 83 0;
#X connect 83 0 103 0;
#X connect 84 0 82 0;
#X connect 85 0 86 0;
#X connect 86 0 104 0;
#X connect 87 0 85 0;
#X connect 88 0 89 0;
#X connect 89 0 106 0;
#X connect 90 0 88 0;
#X connect 98 0 91 0;
#X connect 99 0 92 0;
#X connect 100 0 93 0;
#X connect 101 0 94 0;
#X connect 102 0 95 0;
#X connect 103 0 96 0;
#X connect 104 0 97 0;
#X connect 106 0 105 0;
#X connect 107 0 67 1;
#X connect 108 0 70 1;
#X connect 109 0 73 1;
#X connect 110 0 76 1;
#X connect 111 0 79 1;
#X connect 112 0 82 1;
#X connect 113 0 85 1;
#X connect 114 0 88 1;
#X connect 115 0 66 0;
#X coords 0 -1 1 1 700 100 1 100 100;
