#N canvas 0 94 1366 674 10;
#X msg 77 27 1;
#X msg 119 28 0;
#X floatatom 128 68 5 0 0 0 - - -, f 5;
#X obj 77 116 metro 180;
#X text 125 50 tempo;
#X text 70 9 start;
#X text 118 7 stop;
#X msg 197 668 open foo.wav;
#X msg 246 699 start;
#X msg 247 725 stop;
#X obj 197 778 writesf~ 2;
#X obj 128 91 tempotoms;
#X obj 77 198 trigger16step;
#X obj 414 370 bng 15 250 50 0 empty empty empty 17 7 0 10 -262144
-1 -1;
#X obj 26 368 bng 15 250 50 0 empty empty empty 17 7 0 10 -262144 -1
-1;
#X obj 220 368 bng 15 250 50 0 empty empty empty 17 7 0 10 -262144
-1 -1;
#X msg 26 398 casette606/casette1/bd01.wav;
#X msg 220 396 casette606/casette1/sn01.wav;
#X msg 414 396 casette606/casette1/ch04.wav;
#X obj 388 602 *~;
#X obj 339 639 +~;
#X obj 325 622 +~;
#X obj 349 599 *~;
#X obj 310 598 *~;
#X obj 315 766 dac~;
#X floatatom 303 516 5 0 100 0 - - -, f 5;
#X obj 302 571 / 100;
#X floatatom 348 516 5 0 100 0 - - -, f 5;
#X obj 347 571 / 100;
#X floatatom 390 516 5 0 100 0 - - -, f 5;
#X obj 389 571 / 100;
#X obj 465 375 delay 50;
#X floatatom 510 354 5 0 500 0 - - -, f 5;
#X obj 26 442 fileplayer;
#X obj 85 421 hsl 128 15 0 4 0 0 empty empty empty -2 -8 0 10 -262144
-1 -1 4500 1;
#X obj 414 442 fileplayer;
#X obj 220 441 fileplayer;
#X obj 473 418 hsl 128 15 0 4 0 0 empty empty empty -2 -8 0 10 -262144
-1 -1 3000 1;
#X obj 279 419 hsl 128 15 0 4 0 0 empty empty empty -2 -8 0 10 -262144
-1 -1 1500 1;
#X obj 470 131 print;
#X obj 502 45 + 1;
#X obj 470 45 int;
#X obj 470 76 mod 16;
#X msg 548 46 2;
#X msg 581 45 4;
#X msg 619 46 6;
#X msg 654 45 8;
#X msg 688 46 16;
#X obj 470 101 sel 0;
#X obj 609 371 bng 15 250 50 0 empty empty empty 17 7 0 10 -262144
-1 -1;
#X obj 660 376 delay 50;
#X floatatom 705 355 5 0 500 0 - - -, f 5;
#X obj 609 447 fileplayer;
#X obj 668 421 hsl 128 15 0 4 0 0 empty empty empty -2 -8 0 10 -262144
-1 -1 5400 1;
#X obj 339 661 +~;
#X obj 433 601 *~;
#X floatatom 435 515 5 0 100 0 - - -, f 5;
#X obj 434 570 / 100;
#X msg 609 397 casette606/casette1/ch01.wav;
#X obj 666 204 midi16step;
#X obj 823 354 adc~;
#X obj 787 590 +~;
#X obj 826 590 +~;
#X msg 1200 363 2;
#X msg 1236 363 3;
#X msg 1275 364 4;
#X msg 1308 363 6;
#X msg 913 366 2;
#X msg 950 366 3;
#X msg 987 366 4;
#X msg 1021 366 6;
#X obj 1140 435 tempodelay;
#X floatatom 1365 367 5 0 0 0 - - -, f 5;
#X text 1191 481 dsp loop is caused by pingponging both sides;
#X obj 853 481 *~ -0.1;
#X obj 1141 481 *~ 0.1;
#X obj 853 434 tempodelay;
#X obj 339 727 +~;
#X obj 308 729 +~;
#X obj 1008 572 *~;
#X obj 1023 548 / 100;
#X obj 899 539 *~;
#X obj 914 515 / 100;
#X floatatom 971 494 5 0 100 0 - - -, f 5;
#X obj 327 693 *~;
#X obj 384 664 / 100;
#X floatatom 452 637 5 0 100 0 - - -, f 5;
#X connect 0 0 3 0;
#X connect 0 0 12 1;
#X connect 0 0 59 1;
#X connect 1 0 3 0;
#X connect 2 0 11 0;
#X connect 3 0 12 0;
#X connect 3 0 41 0;
#X connect 3 0 59 0;
#X connect 7 0 10 0;
#X connect 8 0 10 0;
#X connect 9 0 10 0;
#X connect 11 0 3 1;
#X connect 11 0 76 0;
#X connect 11 0 71 0;
#X connect 12 0 14 0;
#X connect 12 1 15 0;
#X connect 12 2 13 0;
#X connect 12 3 49 0;
#X connect 13 0 18 0;
#X connect 13 0 31 0;
#X connect 14 0 16 0;
#X connect 15 0 17 0;
#X connect 16 0 33 0;
#X connect 17 0 36 0;
#X connect 18 0 35 0;
#X connect 19 0 20 1;
#X connect 20 0 54 0;
#X connect 21 0 20 0;
#X connect 22 0 21 1;
#X connect 23 0 21 0;
#X connect 25 0 26 0;
#X connect 26 0 23 1;
#X connect 27 0 28 0;
#X connect 28 0 22 0;
#X connect 29 0 30 0;
#X connect 30 0 19 0;
#X connect 31 0 35 2;
#X connect 32 0 31 1;
#X connect 33 0 23 0;
#X connect 34 0 33 1;
#X connect 35 0 19 1;
#X connect 36 0 22 1;
#X connect 37 0 35 1;
#X connect 38 0 36 1;
#X connect 40 0 41 1;
#X connect 41 0 40 0;
#X connect 41 0 42 0;
#X connect 42 0 48 0;
#X connect 43 0 42 1;
#X connect 44 0 42 1;
#X connect 45 0 42 1;
#X connect 46 0 42 1;
#X connect 47 0 42 1;
#X connect 48 0 39 0;
#X connect 48 0 12 1;
#X connect 49 0 58 0;
#X connect 49 0 50 0;
#X connect 50 0 52 2;
#X connect 51 0 50 1;
#X connect 52 0 55 1;
#X connect 53 0 52 1;
#X connect 54 0 84 0;
#X connect 55 0 54 1;
#X connect 56 0 57 0;
#X connect 57 0 55 0;
#X connect 58 0 52 0;
#X connect 60 0 61 0;
#X connect 60 0 71 2;
#X connect 60 0 62 0;
#X connect 60 0 76 2;
#X connect 61 0 78 1;
#X connect 62 0 77 1;
#X connect 63 0 71 1;
#X connect 64 0 71 1;
#X connect 65 0 71 1;
#X connect 66 0 71 1;
#X connect 67 0 76 1;
#X connect 68 0 76 1;
#X connect 69 0 76 1;
#X connect 70 0 76 1;
#X connect 71 0 75 0;
#X connect 71 0 79 0;
#X connect 72 0 76 4;
#X connect 72 0 71 4;
#X connect 76 0 74 0;
#X connect 76 0 81 0;
#X connect 77 0 24 1;
#X connect 77 0 10 1;
#X connect 78 0 24 0;
#X connect 78 0 10 0;
#X connect 79 0 62 1;
#X connect 80 0 79 1;
#X connect 81 0 61 1;
#X connect 82 0 81 1;
#X connect 83 0 82 0;
#X connect 83 0 80 0;
#X connect 84 0 78 0;
#X connect 84 0 77 0;
#X connect 85 0 84 1;
#X connect 86 0 85 0;
