#N canvas 0 94 1366 674 10;
#X msg 68 67 1;
#X msg 106 69 0;
#X obj 68 157 midi16step;
#X obj 41 321 adc~;
#X obj 31 526 dac~;
#X obj 25 486 +~;
#X floatatom 274 61 5 0 0 0 - - -, f 5;
#X obj 68 127 metro 180;
#X text 271 43 tempo;
#X text 61 49 start;
#X text 105 49 stop;
#X obj 64 486 +~;
#X msg 418 330 2;
#X msg 454 330 3;
#X msg 493 331 4;
#X msg 526 330 6;
#X msg 131 333 2;
#X msg 168 333 3;
#X msg 205 333 4;
#X msg 239 333 6;
#X msg 141 502 open foo.wav;
#X msg 190 542 start;
#X msg 191 568 stop;
#X obj 140 620 writesf~ 2;
#X obj 274 84 tempotoms;
#X obj 358 402 tempodelay;
#X floatatom 583 334 5 0 0 0 - - -, f 5;
#X text 409 448 dsp loop is caused by pingponging both sides;
#X obj 71 448 *~ -0.1;
#X obj 359 448 *~ 0.1;
#X obj 71 401 tempodelay;
#X text 779 224 need to fix it so changes in note don't immediately
affect the output note!!!;
#X connect 0 0 7 0;
#X connect 0 0 2 1;
#X connect 1 0 7 0;
#X connect 3 0 5 0;
#X connect 3 0 25 2;
#X connect 3 0 11 0;
#X connect 3 0 30 2;
#X connect 5 0 4 0;
#X connect 5 0 23 0;
#X connect 6 0 24 0;
#X connect 7 0 2 0;
#X connect 11 0 4 1;
#X connect 11 0 23 1;
#X connect 12 0 25 1;
#X connect 13 0 25 1;
#X connect 14 0 25 1;
#X connect 15 0 25 1;
#X connect 16 0 30 1;
#X connect 17 0 30 1;
#X connect 18 0 30 1;
#X connect 19 0 30 1;
#X connect 20 0 23 0;
#X connect 21 0 23 0;
#X connect 22 0 23 0;
#X connect 24 0 7 1;
#X connect 24 0 25 0;
#X connect 24 0 30 0;
#X connect 25 0 11 1;
#X connect 25 0 29 0;
#X connect 26 0 25 3;
#X connect 26 0 30 4;
#X connect 30 0 5 1;
#X connect 30 0 28 0;
