#N canvas 0 94 1366 674 10;
#X msg 54 88 1;
#X msg 92 90 0;
#X obj 68 157 midi16step;
#X obj 41 321 adc~;
#X obj 41 618 dac~;
#X obj 62 493 delread~ mydelay 1000;
#X obj 64 422 delwrite~ mydelay 1000;
#X obj 35 578 +~;
#X obj 61 524 *~ 0.5;
#X obj 108 456 *~ 0.5;
#X obj 63 394 +~;
#X obj 138 95 /;
#X floatatom 191 43 5 0 0 0 - - -, f 5;
#X obj 68 127 metro 180;
#X obj 145 68 bng 15 250 50 0 empty empty empty 17 7 0 10 -262144 -1
-1;
#X msg 138 40 60000;
#X obj 138 14 loadbang;
#X text 192 24 tempo;
#X floatatom 191 89 5 0 0 0 - - -, f 5;
#X text 47 70 start;
#X text 91 70 stop;
#X obj 122 390 *;
#X obj 127 348 bng 15 250 50 0 empty empty empty 17 7 0 10 -262144
-1 -1;
#X text 178 294 delay in beats;
#X obj 278 538 *~ 0.5;
#X obj 325 470 *~ 0.5;
#X obj 280 408 +~;
#X obj 339 404 *;
#X obj 344 362 bng 15 250 50 0 empty empty empty 17 7 0 10 -262144
-1 -1;
#X text 395 308 delay in beats;
#X obj 281 436 delwrite~ mydelay2 1000;
#X obj 279 507 delread~ mydelay2 1000;
#X obj 74 578 +~;
#X obj 63 366 +~, f 4;
#X obj 279 381 +~;
#X obj 219 408 *~ 0.2;
#X obj 191 64 * 4;
#X msg 158 315 2;
#X msg 195 315 3;
#X msg 233 316 4;
#X msg 266 315 6;
#X msg 375 329 2;
#X msg 412 329 3;
#X msg 449 330 4;
#X msg 483 329 6;
#X msg 151 594 open foo.wav;
#X msg 200 634 start;
#X msg 201 660 stop;
#X obj 150 712 writesf~ 2;
#X connect 0 0 13 0;
#X connect 0 0 2 1;
#X connect 1 0 13 0;
#X connect 3 0 7 0;
#X connect 3 0 32 0;
#X connect 3 0 26 1;
#X connect 3 0 10 1;
#X connect 5 0 8 0;
#X connect 5 0 9 0;
#X connect 7 0 4 0;
#X connect 7 0 48 0;
#X connect 8 0 7 1;
#X connect 9 0 33 0;
#X connect 9 0 35 0;
#X connect 10 0 6 0;
#X connect 11 0 13 1;
#X connect 11 0 21 0;
#X connect 11 0 27 0;
#X connect 12 0 14 0;
#X connect 12 0 36 0;
#X connect 13 0 2 0;
#X connect 14 0 11 0;
#X connect 15 0 11 0;
#X connect 16 0 15 0;
#X connect 21 0 5 0;
#X connect 22 0 21 0;
#X connect 24 0 32 1;
#X connect 25 0 33 1;
#X connect 25 0 34 1;
#X connect 26 0 30 0;
#X connect 27 0 31 0;
#X connect 28 0 27 0;
#X connect 31 0 24 0;
#X connect 31 0 25 0;
#X connect 32 0 4 1;
#X connect 32 0 48 1;
#X connect 33 0 10 0;
#X connect 34 0 26 0;
#X connect 35 0 34 0;
#X connect 36 0 11 1;
#X connect 36 0 18 0;
#X connect 37 0 21 1;
#X connect 37 0 22 0;
#X connect 38 0 21 1;
#X connect 38 0 22 0;
#X connect 39 0 21 1;
#X connect 39 0 22 0;
#X connect 40 0 21 1;
#X connect 40 0 22 0;
#X connect 41 0 27 1;
#X connect 41 0 28 0;
#X connect 42 0 27 1;
#X connect 42 0 28 0;
#X connect 43 0 27 1;
#X connect 43 0 28 0;
#X connect 44 0 27 1;
#X connect 44 0 28 0;
#X connect 45 0 48 0;
#X connect 46 0 48 0;
#X connect 47 0 48 0;
