#N canvas 744 170 449 508 10;
#X floatatom 93 170 5 0 0 0 - - -, f 5;
#X obj 209 89 adc~;
#X floatatom 46 170 5 0 0 0 - - -, f 5;
#X floatatom 258 168 5 0 0 0 - - -, f 5;
#X floatatom 211 168 5 0 0 0 - - -, f 5;
#X floatatom 249 90 5 0 100 0 - - -, f 5;
#X obj 188 463 dac~;
#X obj 172 427 +~;
#X obj 215 426 +~;
#X obj 249 403 *~;
#X obj 137 404 *~;
#X text 207 67 reverb time (0 to 100);
#X floatatom 153 355 5 0 100 0 - - -, f 5;
#X obj 153 375 / 100;
#X text 21 353 wet amount (0 to 100);
#X obj 46 195 reverb2;
#X obj 211 194 reverb2;
#X obj 353 168 +~;
#X obj 174 169 +~;
#X obj 232 325 send~ signal1;
#X obj 88 85 receive~ signal1;
#X obj 82 324 send~ signal2;
#X obj 327 92 receive~ signal2;
#X obj 326 121 *~ -0.05;
#X obj 88 114 *~ -0.05;
#X obj 305 474 writesf~ 2;
#X msg 322 410 start;
#X msg 337 434 stop;
#X msg 306 384 open foo.wav;
#X connect 0 0 15 1;
#X connect 1 0 8 0;
#X connect 1 0 7 1;
#X connect 1 0 18 1;
#X connect 1 0 17 0;
#X connect 2 0 15 0;
#X connect 3 0 16 1;
#X connect 4 0 16 0;
#X connect 5 0 15 2;
#X connect 5 0 16 2;
#X connect 7 0 6 0;
#X connect 7 0 25 0;
#X connect 8 0 6 1;
#X connect 8 0 25 1;
#X connect 9 0 8 1;
#X connect 10 0 7 0;
#X connect 12 0 13 0;
#X connect 13 0 10 1;
#X connect 13 0 9 0;
#X connect 15 0 10 0;
#X connect 15 0 21 0;
#X connect 16 0 9 1;
#X connect 16 0 19 0;
#X connect 17 0 16 3;
#X connect 18 0 15 3;
#X connect 20 0 24 0;
#X connect 22 0 23 0;
#X connect 23 0 17 1;
#X connect 24 0 18 0;
#X connect 26 0 25 0;
#X connect 27 0 25 0;
#X connect 28 0 25 0;
