#N canvas 749 142 450 508 10;
#X floatatom 93 170 5 0 0 0 - - -, f 5;
#X obj 46 193 reverb;
#X obj 168 90 adc~;
#X floatatom 46 170 5 0 0 0 - - -, f 5;
#X floatatom 258 168 5 0 0 0 - - -, f 5;
#X obj 211 191 reverb;
#X floatatom 211 168 5 0 0 0 - - -, f 5;
#X floatatom 254 89 5 0 100 0 - - -, f 5;
#X obj 150 362 dac~;
#X obj 134 326 +~;
#X obj 177 325 +~;
#X obj 212 289 *~;
#X obj 100 290 *~;
#X text 211 68 reverb time (0 to 100);
#X floatatom 116 241 5 0 100 0 - - -, f 5;
#X obj 116 261 / 100;
#X text 157 242 wet amount (0 to 100);
#X connect 0 0 1 1;
#X connect 1 0 12 0;
#X connect 2 0 1 3;
#X connect 2 0 5 3;
#X connect 2 0 10 0;
#X connect 2 0 9 1;
#X connect 3 0 1 0;
#X connect 4 0 5 1;
#X connect 5 0 11 1;
#X connect 6 0 5 0;
#X connect 7 0 5 2;
#X connect 7 0 1 2;
#X connect 9 0 8 0;
#X connect 10 0 8 1;
#X connect 11 0 10 1;
#X connect 12 0 9 0;
#X connect 14 0 15 0;
#X connect 15 0 12 1;
#X connect 15 0 11 0;
