#N canvas 0 94 683 674 10;
#X floatatom 574 191 5 0 0 0 - - -, f 5;
#X obj 381 216 allpass;
#X obj 489 161 +~;
#X obj 488 113 *~;
#X obj 503 83 / 100;
#X floatatom 503 30 5 0 0 0 - - -, f 5;
#X obj 284 338 allpass;
#X floatatom 228 386 5 0 0 0 - - -, f 5;
#X obj 188 456 allpass;
#X floatatom 165 364 5 0 0 0 - - -, f 5;
#X floatatom 105 386 5 0 0 0 - - -, f 5;
#X floatatom 477 311 5 0 0 0 - - -, f 5;
#X floatatom 381 428 5 0 0 0 - - -, f 5;
#X obj 105 407 lfo;
#X obj 503 56 min 100;
#X text 540 29 maybe make this logarithmic;
#X text 472 10 decay time;
#X obj 105 341 loadbang;
#X msg 105 363 118;
#X obj 165 320 loadbang;
#X obj 228 340 loadbang;
#X msg 228 362 126;
#X floatatom 301 264 5 0 0 0 - - -, f 5;
#X floatatom 239 233 5 0 0 0 - - -, f 5;
#X floatatom 178 264 5 0 0 0 - - -, f 5;
#X obj 178 285 lfo;
#X obj 178 219 loadbang;
#X obj 238 188 loadbang;
#X obj 301 218 loadbang;
#X floatatom 384 130 5 0 0 0 - - -, f 5;
#X floatatom 321 129 5 0 0 0 - - -, f 5;
#X floatatom 261 130 5 0 0 0 - - -, f 5;
#X obj 261 151 lfo;
#X obj 261 85 loadbang;
#X obj 321 84 loadbang;
#X obj 384 84 loadbang;
#X msg 384 106 38;
#X msg 261 107 64;
#X floatatom 132 505 5 0 0 0 - - -, f 5;
#X obj 92 575 allpass;
#X floatatom 70 504 5 0 0 0 - - -, f 5;
#X floatatom 9 505 5 0 0 0 - - -, f 5;
#X obj 9 526 lfo;
#X obj 9 460 loadbang;
#X obj 69 459 loadbang;
#X obj 132 459 loadbang;
#X msg 69 481 13;
#X msg 132 481 222;
#X msg 9 482 34;
#X msg 165 342 79;
#X msg 301 240 71;
#X msg 238 210 46;
#X msg 178 241 194;
#X msg 321 106 10;
#X obj 574 146 loadbang;
#X msg 574 168 68;
#X obj 477 266 loadbang;
#X obj 381 382 loadbang;
#X obj 285 510 loadbang;
#X msg 285 532 50;
#X msg 381 404 51;
#X msg 477 288 26;
#X floatatom 285 554 5 0 0 0 - - -, f 5;
#X obj 66 628 outlet~;
#X obj 72 166 inlet;
#X obj 239 259 +;
#X obj 72 193 inlet;
#X obj 166 384 +;
#X text -311 161 a couple of delay modifiers to make left and right
reverbs a bit different;
#X obj 434 13 inlet;
#X obj 521 113 inlet~;
#X obj 122 628 send~ feedback-\$0;
#X obj 369 38 receive~ feedback-\$0;
#X text 180 101 decay;
#X text 103 102 t1;
#X text 140 102 t2;
#X text 230 101 in;
#X connect 0 0 1 2;
#X connect 1 0 6 1;
#X connect 2 0 1 1;
#X connect 3 0 2 0;
#X connect 4 0 3 1;
#X connect 5 0 14 0;
#X connect 6 0 8 1;
#X connect 7 0 13 2;
#X connect 8 0 39 1;
#X connect 9 0 67 0;
#X connect 10 0 13 0;
#X connect 11 0 6 2;
#X connect 12 0 8 2;
#X connect 13 0 8 0;
#X connect 14 0 4 0;
#X connect 17 0 18 0;
#X connect 18 0 10 0;
#X connect 19 0 49 0;
#X connect 20 0 21 0;
#X connect 21 0 7 0;
#X connect 22 0 25 2;
#X connect 23 0 65 0;
#X connect 24 0 25 0;
#X connect 25 0 6 0;
#X connect 26 0 52 0;
#X connect 27 0 51 0;
#X connect 28 0 50 0;
#X connect 29 0 32 2;
#X connect 30 0 32 1;
#X connect 31 0 32 0;
#X connect 32 0 1 0;
#X connect 33 0 37 0;
#X connect 34 0 53 0;
#X connect 35 0 36 0;
#X connect 36 0 29 0;
#X connect 37 0 31 0;
#X connect 38 0 42 2;
#X connect 39 0 63 0;
#X connect 39 0 71 0;
#X connect 40 0 42 1;
#X connect 41 0 42 0;
#X connect 42 0 39 0;
#X connect 43 0 48 0;
#X connect 44 0 46 0;
#X connect 45 0 47 0;
#X connect 46 0 40 0;
#X connect 47 0 38 0;
#X connect 48 0 41 0;
#X connect 49 0 9 0;
#X connect 50 0 22 0;
#X connect 51 0 23 0;
#X connect 52 0 24 0;
#X connect 53 0 30 0;
#X connect 54 0 55 0;
#X connect 55 0 0 0;
#X connect 56 0 61 0;
#X connect 57 0 60 0;
#X connect 58 0 59 0;
#X connect 59 0 62 0;
#X connect 60 0 12 0;
#X connect 61 0 11 0;
#X connect 62 0 39 2;
#X connect 64 0 65 1;
#X connect 65 0 25 1;
#X connect 66 0 67 1;
#X connect 67 0 13 1;
#X connect 69 0 5 0;
#X connect 70 0 2 1;
#X connect 72 0 3 0;
#X coords 0 -1 1 1 150 40 2 100 100;
