#N canvas 0 94 975 674 10;
#X msg 77 17 1;
#X msg 108 17 0;
#X floatatom 127 47 5 0 0 0 - - -, f 5;
#X obj 77 102 metro 180;
#X text 163 47 tempo;
#X text 69 2 start;
#X text 106 2 stop;
#X msg 197 668 open foo.wav;
#X msg 246 699 start;
#X msg 247 725 stop;
#X obj 197 778 writesf~ 2;
#X obj 128 81 tempotoms;
#X obj 77 206 trigger16step;
#X obj 414 370 bng 15 250 50 0 empty empty empty 17 7 0 10 -262144
-1 -1;
#X obj 26 368 bng 15 250 50 0 empty empty empty 17 7 0 10 -262144 -1
-1;
#X obj 220 368 bng 15 250 50 0 empty empty empty 17 7 0 10 -262144
-1 -1;
#X msg 26 398 casette606/casette1/bd01.wav;
#X msg 220 396 casette606/casette1/sn01.wav;
#X msg 414 396 casette606/casette1/ch04.wav;
#X obj 388 602 *~;
#X obj 339 639 +~;
#X obj 325 622 +~;
#X obj 349 599 *~;
#X obj 310 598 *~;
#X obj 315 766 dac~;
#X floatatom 303 545 5 0 100 0 - - -, f 5;
#X obj 302 571 / 100;
#X floatatom 348 545 5 0 100 0 - - -, f 5;
#X obj 347 571 / 100;
#X floatatom 390 545 5 0 100 0 - - -, f 5;
#X obj 389 571 / 100;
#X obj 465 375 delay 50;
#X floatatom 510 354 5 0 500 0 - - -, f 5;
#X obj 26 442 fileplayer;
#X obj 85 421 hsl 128 15 0 4 0 0 empty empty empty -2 -8 0 10 -262144
-1 -1 6000 1;
#X obj 414 442 fileplayer;
#X obj 220 441 fileplayer;
#X obj 473 418 hsl 128 15 0 4 0 0 empty empty empty -2 -8 0 10 -262144
-1 -1 3300 1;
#X obj 279 419 hsl 128 15 0 4 0 0 empty empty empty -2 -8 0 10 -262144
-1 -1 6500 1;
#X obj 502 94 + 1;
#X obj 470 94 int;
#X obj 470 125 mod 16;
#X msg 548 95 2;
#X msg 614 95 4;
#X msg 652 96 6;
#X msg 687 95 8;
#X msg 721 96 16;
#X obj 339 661 +~;
#X obj 433 601 *~;
#X floatatom 435 544 5 0 100 0 - - -, f 5;
#X obj 434 570 / 100;
#X obj 339 727 +~;
#X obj 308 729 +~;
#X obj 327 693 *~;
#X obj 384 664 / 100;
#X floatatom 452 637 5 0 100 0 - - -, f 5;
#X msg 470 68 1;
#X obj 470 150 sel 1;
#X msg 581 96 3;
#X msg 350 482 loadbang;
#X msg 303 522 49;
#X msg 348 521 72;
#X msg 390 522 62;
#X msg 435 519 29;
#X msg 142 27 100;
#X msg 142 5 loadbang;
#X obj 78 146 int;
#X msg 78 123 1;
#X obj 106 146 + 1;
#X obj 78 186 sel 1;
#X obj 667 370 slicer;
#X obj 78 167 mod 4;
#X obj 127 64 * 4;
#X obj 145 105 * 4;
#X obj 885 552 reverb;
#X obj 917 474 +~;
#X floatatom 979 522 5 0 0 0 - - -, f 5;
#X obj 931 511 *~ 0.5;
#X connect 0 0 3 0;
#X connect 0 0 12 1;
#X connect 0 0 56 0;
#X connect 0 0 67 0;
#X connect 0 0 70 2;
#X connect 1 0 3 0;
#X connect 2 0 72 0;
#X connect 3 0 66 0;
#X connect 3 0 70 3;
#X connect 7 0 10 0;
#X connect 8 0 10 0;
#X connect 9 0 10 0;
#X connect 11 0 3 1;
#X connect 11 0 73 0;
#X connect 12 0 14 0;
#X connect 12 1 15 0;
#X connect 12 2 13 0;
#X connect 13 0 18 0;
#X connect 13 0 31 0;
#X connect 14 0 16 0;
#X connect 15 0 17 0;
#X connect 16 0 33 0;
#X connect 17 0 36 0;
#X connect 18 0 35 0;
#X connect 19 0 20 1;
#X connect 20 0 47 0;
#X connect 21 0 20 0;
#X connect 22 0 21 1;
#X connect 23 0 21 0;
#X connect 25 0 26 0;
#X connect 26 0 23 1;
#X connect 27 0 28 0;
#X connect 28 0 22 0;
#X connect 29 0 30 0;
#X connect 30 0 19 0;
#X connect 31 0 35 2;
#X connect 32 0 31 1;
#X connect 33 0 23 0;
#X connect 34 0 33 1;
#X connect 35 0 19 1;
#X connect 36 0 22 1;
#X connect 37 0 35 1;
#X connect 38 0 36 1;
#X connect 39 0 40 1;
#X connect 40 0 39 0;
#X connect 40 0 41 0;
#X connect 41 0 57 0;
#X connect 42 0 41 1;
#X connect 43 0 41 1;
#X connect 44 0 41 1;
#X connect 45 0 41 1;
#X connect 46 0 41 1;
#X connect 47 0 53 0;
#X connect 48 0 47 1;
#X connect 49 0 50 0;
#X connect 50 0 48 0;
#X connect 51 0 24 1;
#X connect 51 0 10 1;
#X connect 52 0 24 0;
#X connect 52 0 10 0;
#X connect 53 0 74 3;
#X connect 53 0 75 0;
#X connect 54 0 53 1;
#X connect 55 0 54 0;
#X connect 56 0 40 0;
#X connect 57 0 12 1;
#X connect 58 0 41 1;
#X connect 59 0 60 0;
#X connect 59 0 61 0;
#X connect 59 0 62 0;
#X connect 59 0 63 0;
#X connect 60 0 25 0;
#X connect 61 0 27 0;
#X connect 62 0 29 0;
#X connect 63 0 49 0;
#X connect 64 0 2 0;
#X connect 65 0 64 0;
#X connect 66 0 68 0;
#X connect 66 0 71 0;
#X connect 67 0 66 0;
#X connect 68 0 66 1;
#X connect 69 0 12 0;
#X connect 69 0 40 0;
#X connect 70 0 52 0;
#X connect 70 0 51 0;
#X connect 71 0 69 0;
#X connect 72 0 11 0;
#X connect 74 0 77 0;
#X connect 75 0 70 4;
#X connect 76 0 74 2;
#X connect 77 0 75 1;
