#N canvas 662 94 683 674 10;
#X obj 156 461 *~ 0.5;
#X obj 318 364 *~ 0.5;
#X obj 277 214 +~;
#X obj 276 187 +~;
#X obj 156 257 inlet;
#X obj 215 320 inlet;
#X text 254 319 beats;
#X obj 277 147 inlet~;
#X floatatom 351 319 5 0 100 0 - - -, f 5;
#X text 320 146 input;
#X obj 441 167 inlet~;
#X obj 155 485 outlet~;
#X obj 351 275 inlet;
#X text 389 275 fb;
#X text 487 166 ext fb input;
#X obj 351 340 / 100;
#X floatatom 215 344 5 0 6 0 - - -, f 5;
#X text 193 258 tempo (in ms);
#X floatatom 156 283 5 0 0 0 - - -, f 5;
#X text 326 101 fb;
#X text 102 101 tempo(ms);
#X text 170 100 beats;
#X text 274 99 in2;
#X text 226 100 in1;
#X obj 156 304 sig~;
#X text 103 236 make tempo changes slow;
#X obj 157 435 vd~ mydelay2-\$0 1000;
#X obj 278 242 delwrite~ mydelay2-\$0 1000;
#X obj 157 358 *~ 1;
#X text 402 298 limits to max value of 0.9;
#X text 368 87 still get a dsp loop \, send and receive are a good
way to fix that.;
#X text 198 301 change beat quickly;
#X text 165 392 sometimes changing the beat will cause a click. putting
a lop here makes it much worse.;
#X obj 440 197 send~ signal-\$0;
#X obj 319 197 receive~ signal-\$0;
#X text 194 114 tempo delay2;
#X obj 351 298 min 99;
#X connect 0 0 11 0;
#X connect 1 0 3 1;
#X connect 2 0 27 0;
#X connect 3 0 2 0;
#X connect 4 0 18 0;
#X connect 5 0 16 0;
#X connect 7 0 3 0;
#X connect 8 0 15 0;
#X connect 10 0 33 0;
#X connect 12 0 36 0;
#X connect 15 0 1 1;
#X connect 16 0 28 1;
#X connect 18 0 24 0;
#X connect 24 0 28 0;
#X connect 26 0 0 0;
#X connect 26 0 1 0;
#X connect 28 0 26 0;
#X connect 34 0 2 1;
#X connect 36 0 8 0;
#X coords 0 -1 1 1 250 30 2 100 100;
