#N canvas 823 310 450 300 10;
#X obj 138 129 /;
#X floatatom 191 77 5 0 0 0 - - -, f 5;
#X obj 145 102 bng 15 250 50 0 empty empty empty 17 7 0 10 -262144
-1 -1;
#X msg 138 74 60000;
#X obj 138 48 loadbang;
#X text 187 7 tempo;
#X floatatom 191 123 5 0 0 0 - - -, f 5;
#X obj 191 98 * 4;
#X obj 191 24 inlet;
#X obj 138 180 outlet;
#X connect 0 0 9 0;
#X connect 1 0 2 0;
#X connect 1 0 7 0;
#X connect 2 0 0 0;
#X connect 3 0 0 0;
#X connect 4 0 3 0;
#X connect 7 0 0 1;
#X connect 7 0 6 0;
#X connect 8 0 1 0;
