#N canvas 680 94 683 674 10;
#X obj 156 461 *~ 0.5;
#X obj 354 356 *~ 0.5;
#X obj 277 214 +~;
#X obj 276 187 +~;
#X obj 156 257 inlet;
#X obj 207 320 inlet;
#X text 246 319 beats;
#X obj 277 147 inlet~;
#X floatatom 387 311 5 0 100 0 - - -, f 5;
#X text 320 148 input;
#X obj 328 198 inlet~;
#X obj 155 485 outlet~;
#X obj 387 267 inlet;
#X text 425 267 fb;
#X text 374 197 ext fb input;
#X obj 387 332 / 100;
#X floatatom 207 344 5 0 6 0 - - -, f 5;
#X text 193 258 tempo (in ms);
#X floatatom 156 283 5 0 0 0 - - -, f 5;
#X text 326 101 fb;
#X text 102 101 tempo(ms);
#X text 170 100 beats;
#X text 274 99 in2;
#X text 226 100 in1;
#X text 194 114 tempo delay;
#X obj 156 304 sig~;
#X text 103 236 make tempo changes slow;
#X text 200 302 and beat changes fast;
#X obj 157 435 vd~ mydelay2-\$0 1000;
#X obj 278 242 delwrite~ mydelay2-\$0 1000;
#X obj 157 358 *~ 1;
#X text 161 392 sometimes changing the beat will cause a click.;
#X obj 387 290 min 90;
#X text 438 290 limits to max value of 0.9;
#X obj 156 329 lop~ 0.5;
#X connect 0 0 11 0;
#X connect 1 0 3 1;
#X connect 2 0 29 0;
#X connect 3 0 2 0;
#X connect 4 0 18 0;
#X connect 5 0 16 0;
#X connect 7 0 3 0;
#X connect 8 0 15 0;
#X connect 10 0 2 1;
#X connect 12 0 32 0;
#X connect 15 0 1 1;
#X connect 16 0 30 1;
#X connect 18 0 25 0;
#X connect 25 0 34 0;
#X connect 28 0 0 0;
#X connect 28 0 1 0;
#X connect 30 0 28 0;
#X connect 32 0 8 0;
#X connect 34 0 30 0;
#X coords 0 -1 1 1 250 30 2 100 100;
