#N canvas 0 94 1366 674 10;
#X obj 55 217 + 1;
#X obj 23 219 int;
#X obj 161 172 tgl 15 0 empty empty empty 17 7 0 10 -204800 -1 -1 1
1;
#X obj 224 432 &&;
#X obj 226 452 select 1;
#X msg 224 391 1;
#X obj 177 172 tgl 15 0 empty empty empty 17 7 0 10 -204800 -1 -1 0
1;
#X obj 289 432 &&;
#X obj 291 452 select 1;
#X msg 289 391 1;
#X obj 193 172 tgl 15 0 empty empty empty 17 7 0 10 -204800 -1 -1 0
1;
#X obj 355 432 &&;
#X obj 357 452 select 1;
#X msg 355 391 1;
#X obj 209 172 tgl 15 0 empty empty empty 17 7 0 10 -204800 -1 -1 1
1;
#X obj 420 431 &&;
#X obj 422 451 select 1;
#X msg 420 390 1;
#X obj 225 172 tgl 15 0 empty empty empty 17 7 0 10 -204800 -1 -1 0
1;
#X obj 487 431 &&;
#X obj 489 451 select 1;
#X msg 487 390 1;
#X obj 241 172 tgl 15 0 empty empty empty 17 7 0 10 -204800 -1 -1 0
1;
#X obj 552 431 &&;
#X obj 554 451 select 1;
#X msg 552 390 1;
#X obj 257 172 tgl 15 0 empty empty empty 17 7 0 10 -204800 -1 -1 0
1;
#X obj 618 431 &&;
#X obj 620 451 select 1;
#X msg 618 390 1;
#X obj 273 172 tgl 15 0 empty empty empty 17 7 0 10 -204800 -1 -1 1
1;
#X obj 683 430 &&;
#X obj 685 450 select 1;
#X msg 683 389 1;
#X obj -32 174 inlet;
#X obj 23 173 bng 15 250 50 0 empty empty empty 17 7 0 10 -262144 -1
-1;
#X floatatom 23 195 5 0 0 0 - - -, f 5;
#X obj 23 145 inlet;
#X text -19 146 reset;
#X obj 438 127 bng 15 250 50 0 empty empty clock 17 7 0 10 -204786
-1 -1;
#X obj 460 326 select 1 2 3 4 5 6 7 8 9 10 11 12 13 14 15 16;
#X obj 751 430 &&;
#X obj 753 450 select 1;
#X msg 751 389 1;
#X obj 816 430 &&;
#X obj 818 450 select 1;
#X msg 816 389 1;
#X obj 882 430 &&;
#X obj 884 450 select 1;
#X msg 882 389 1;
#X obj 947 429 &&;
#X obj 949 449 select 1;
#X msg 947 388 1;
#X obj 1014 429 &&;
#X obj 1016 449 select 1;
#X msg 1014 388 1;
#X obj 1079 429 &&;
#X obj 1081 449 select 1;
#X msg 1079 388 1;
#X obj 1145 429 &&;
#X obj 1147 449 select 1;
#X msg 1145 388 1;
#X obj 1210 428 &&;
#X obj 1212 448 select 1;
#X msg 1210 387 1;
#X obj 289 172 tgl 15 0 empty empty empty 17 7 0 10 -204800 -1 -1 0
1;
#X obj 305 172 tgl 15 0 empty empty empty 17 7 0 10 -204800 -1 -1 1
1;
#X obj 321 172 tgl 15 0 empty empty empty 17 7 0 10 -204800 -1 -1 0
1;
#X obj 337 172 tgl 15 0 empty empty empty 17 7 0 10 -204800 -1 -1 1
1;
#X obj 353 172 tgl 15 0 empty empty empty 17 7 0 10 -204800 -1 -1 0
1;
#X obj 369 172 tgl 15 0 empty empty empty 17 7 0 10 -204800 -1 -1 1
1;
#X obj 385 172 tgl 15 0 empty empty empty 17 7 0 10 -204800 -1 -1 0
1;
#X obj 401 172 tgl 15 0 empty empty empty 17 7 0 10 -204800 -1 -1 0
1;
#X obj 23 246 mod 16;
#X text 423 103 resetinput^;
#X text 105 105 ^clockinput;
#X obj 579 567 outlet;
#X text 105 140 outlet 1;
#X obj 161 204 tgl 15 0 empty empty empty 17 7 0 10 -204800 -1 -1 0
1;
#X obj 1307 666 &&;
#X obj 1309 686 select 1;
#X msg 1307 625 1;
#X obj 177 204 tgl 15 0 empty empty empty 17 7 0 10 -204800 -1 -1 0
1;
#X obj 1372 666 &&;
#X obj 1374 686 select 1;
#X msg 1372 625 1;
#X obj 193 204 tgl 15 0 empty empty empty 17 7 0 10 -204800 -1 -1 0
1;
#X obj 1438 666 &&;
#X obj 1440 686 select 1;
#X msg 1438 625 1;
#X obj 209 204 tgl 15 0 empty empty empty 17 7 0 10 -204800 -1 -1 0
1;
#X obj 1503 665 &&;
#X obj 1505 685 select 1;
#X msg 1503 624 1;
#X obj 225 204 tgl 15 0 empty empty empty 17 7 0 10 -204800 -1 -1 0
1;
#X obj 1570 665 &&;
#X obj 1572 685 select 1;
#X msg 1570 624 1;
#X obj 241 204 tgl 15 0 empty empty empty 17 7 0 10 -204800 -1 -1 0
1;
#X obj 1635 665 &&;
#X obj 1637 685 select 1;
#X msg 1635 624 1;
#X obj 257 204 tgl 15 0 empty empty empty 17 7 0 10 -204800 -1 -1 0
1;
#X obj 1701 665 &&;
#X obj 1703 685 select 1;
#X msg 1701 624 1;
#X obj 273 204 tgl 15 0 empty empty empty 17 7 0 10 -204800 -1 -1 0
1;
#X obj 1766 664 &&;
#X obj 1766 685 select 1;
#X msg 1766 623 1;
#X obj 1580 409 select 1 2 3 4 5 6 7 8 9 10 11 12 13 14 15 16;
#X obj 1834 664 &&;
#X obj 1836 684 select 1;
#X msg 1834 623 1;
#X obj 1899 664 &&;
#X obj 1901 684 select 1;
#X msg 1899 623 1;
#X obj 1965 664 &&;
#X obj 1967 684 select 1;
#X msg 1965 623 1;
#X obj 2030 663 &&;
#X obj 2032 683 select 1;
#X msg 2030 622 1;
#X obj 2097 663 &&;
#X obj 2099 683 select 1;
#X msg 2097 622 1;
#X obj 2162 663 &&;
#X obj 2164 683 select 1;
#X msg 2162 622 1;
#X obj 2228 663 &&;
#X obj 2230 683 select 1;
#X msg 2228 622 1;
#X obj 2293 662 &&;
#X obj 2295 682 select 1;
#X msg 2293 621 1;
#X obj 289 204 tgl 15 0 empty empty empty 17 7 0 10 -204800 -1 -1 0
1;
#X obj 305 204 tgl 15 0 empty empty empty 17 7 0 10 -204800 -1 -1 0
1;
#X obj 321 204 tgl 15 0 empty empty empty 17 7 0 10 -204800 -1 -1 0
1;
#X obj 337 204 tgl 15 0 empty empty empty 17 7 0 10 -204800 -1 -1 0
1;
#X obj 353 204 tgl 15 0 empty empty empty 17 7 0 10 -204800 -1 -1 0
1;
#X obj 369 204 tgl 15 0 empty empty empty 17 7 0 10 -204800 -1 -1 0
1;
#X obj 385 204 tgl 15 0 empty empty empty 17 7 0 10 -204800 -1 -1 0
1;
#X obj 401 204 tgl 15 0 empty empty empty 17 7 0 10 -204800 -1 -1 0
1;
#X obj 1662 801 outlet;
#X text 105 156 outlet 2;
#X obj 161 140 tgl 15 0 empty empty empty 17 7 0 10 -204800 -1 -1 1
1;
#X obj 58 884 &&;
#X obj 60 904 select 1;
#X msg 58 843 1;
#X obj 177 140 tgl 15 0 empty empty empty 17 7 0 10 -204800 -1 -1 0
1;
#X obj 123 884 &&;
#X obj 125 904 select 1;
#X msg 123 843 1;
#X obj 193 140 tgl 15 0 empty empty empty 17 7 0 10 -204800 -1 -1 0
1;
#X obj 189 884 &&;
#X obj 191 904 select 1;
#X msg 189 843 1;
#X obj 209 140 tgl 15 0 empty empty empty 17 7 0 10 -204800 -1 -1 0
1;
#X obj 254 883 &&;
#X obj 256 903 select 1;
#X msg 254 842 1;
#X obj 225 140 tgl 15 0 empty empty empty 17 7 0 10 -204800 -1 -1 1
1;
#X obj 321 883 &&;
#X obj 323 903 select 1;
#X msg 321 842 1;
#X obj 241 140 tgl 15 0 empty empty empty 17 7 0 10 -204800 -1 -1 0
1;
#X obj 386 883 &&;
#X obj 388 903 select 1;
#X msg 386 842 1;
#X obj 257 140 tgl 15 0 empty empty empty 17 7 0 10 -204800 -1 -1 0
1;
#X obj 452 883 &&;
#X obj 454 903 select 1;
#X msg 452 842 1;
#X obj 273 140 tgl 15 0 empty empty empty 17 7 0 10 -204800 -1 -1 0
1;
#X obj 517 882 &&;
#X obj 519 902 select 1;
#X msg 517 841 1;
#X obj 294 778 select 1 2 3 4 5 6 7 8 9 10 11 12 13 14 15 16;
#X obj 585 882 &&;
#X obj 587 902 select 1;
#X msg 585 841 1;
#X obj 650 882 &&;
#X obj 652 902 select 1;
#X msg 650 841 1;
#X obj 716 882 &&;
#X obj 718 902 select 1;
#X msg 716 841 1;
#X obj 781 881 &&;
#X obj 783 901 select 1;
#X msg 781 840 1;
#X obj 848 881 &&;
#X obj 850 901 select 1;
#X msg 848 840 1;
#X obj 913 881 &&;
#X obj 915 901 select 1;
#X msg 913 840 1;
#X obj 979 881 &&;
#X obj 981 901 select 1;
#X msg 979 840 1;
#X obj 1044 880 &&;
#X obj 1046 900 select 1;
#X msg 1044 839 1;
#X obj 289 140 tgl 15 0 empty empty empty 17 7 0 10 -204800 -1 -1 1
1;
#X obj 305 140 tgl 15 0 empty empty empty 17 7 0 10 -204800 -1 -1 0
1;
#X obj 321 140 tgl 15 0 empty empty empty 17 7 0 10 -204800 -1 -1 0
1;
#X obj 337 140 tgl 15 0 empty empty empty 17 7 0 10 -204800 -1 -1 0
1;
#X obj 353 140 tgl 15 0 empty empty empty 17 7 0 10 -204800 -1 -1 1
1;
#X obj 369 140 tgl 15 0 empty empty empty 17 7 0 10 -204800 -1 -1 0
1;
#X obj 385 140 tgl 15 0 empty empty empty 17 7 0 10 -204800 -1 -1 0
1;
#X obj 401 140 tgl 15 0 empty empty empty 17 7 0 10 -204800 -1 -1 0
1;
#X obj 413 1019 outlet;
#X obj 161 188 tgl 15 0 empty empty empty 17 7 0 10 -204800 -1 -1 0
1;
#X obj 1119 1089 &&;
#X obj 1121 1109 select 1;
#X msg 1119 1048 1;
#X obj 177 188 tgl 15 0 empty empty empty 17 7 0 10 -204800 -1 -1 0
1;
#X obj 1184 1089 &&;
#X obj 1186 1109 select 1;
#X msg 1184 1048 1;
#X obj 193 188 tgl 15 0 empty empty empty 17 7 0 10 -204800 -1 -1 1
1;
#X obj 1250 1089 &&;
#X obj 1252 1109 select 1;
#X msg 1250 1048 1;
#X obj 209 188 tgl 15 0 empty empty empty 17 7 0 10 -204800 -1 -1 0
1;
#X obj 1315 1088 &&;
#X obj 1317 1108 select 1;
#X msg 1315 1047 1;
#X obj 225 188 tgl 15 0 empty empty empty 17 7 0 10 -204800 -1 -1 0
1;
#X obj 1382 1088 &&;
#X obj 1384 1108 select 1;
#X msg 1382 1047 1;
#X obj 241 188 tgl 15 0 empty empty empty 17 7 0 10 -204800 -1 -1 0
1;
#X obj 1447 1088 &&;
#X obj 1449 1108 select 1;
#X msg 1447 1047 1;
#X obj 257 188 tgl 15 0 empty empty empty 17 7 0 10 -204800 -1 -1 1
1;
#X obj 1513 1088 &&;
#X obj 1515 1108 select 1;
#X msg 1513 1047 1;
#X obj 273 188 tgl 15 0 empty empty empty 17 7 0 10 -204800 -1 -1 0
1;
#X obj 1578 1087 &&;
#X obj 1580 1107 select 1;
#X msg 1578 1046 1;
#X obj 1220 933 select 1 2 3 4 5 6 7 8 9 10 11 12 13 14 15 16;
#X obj 1646 1087 &&;
#X obj 1648 1107 select 1;
#X msg 1646 1046 1;
#X obj 1711 1087 &&;
#X obj 1713 1107 select 1;
#X msg 1711 1046 1;
#X obj 1777 1087 &&;
#X obj 1779 1107 select 1;
#X msg 1777 1046 1;
#X obj 1842 1086 &&;
#X obj 1844 1106 select 1;
#X msg 1842 1045 1;
#X obj 1909 1086 &&;
#X obj 1911 1106 select 1;
#X msg 1909 1045 1;
#X obj 1974 1086 &&;
#X obj 1976 1106 select 1;
#X msg 1974 1045 1;
#X obj 2040 1086 &&;
#X obj 2042 1106 select 1;
#X msg 2040 1045 1;
#X obj 2105 1085 &&;
#X obj 2107 1105 select 1;
#X msg 2105 1044 1;
#X obj 289 188 tgl 15 0 empty empty empty 17 7 0 10 -204800 -1 -1 0
1;
#X obj 305 188 tgl 15 0 empty empty empty 17 7 0 10 -204800 -1 -1 0
1;
#X obj 321 188 tgl 15 0 empty empty empty 17 7 0 10 -204800 -1 -1 1
1;
#X obj 337 188 tgl 15 0 empty empty empty 17 7 0 10 -204800 -1 -1 0
1;
#X obj 353 188 tgl 15 0 empty empty empty 17 7 0 10 -204800 -1 -1 0
1;
#X obj 369 188 tgl 15 0 empty empty empty 17 7 0 10 -204800 -1 -1 0
1;
#X obj 385 188 tgl 15 0 empty empty empty 17 7 0 10 -204800 -1 -1 1
1;
#X obj 401 188 tgl 15 0 empty empty empty 17 7 0 10 -204800 -1 -1 0
1;
#X obj 1474 1224 outlet;
#X obj 161 156 tgl 15 0 empty empty empty 17 7 0 10 -204800 -1 -1 0
1;
#X obj 87 1393 &&;
#X obj 89 1413 select 1;
#X msg 87 1352 1;
#X obj 177 156 tgl 15 0 empty empty empty 17 7 0 10 -204800 -1 -1 0
1;
#X obj 152 1393 &&;
#X obj 154 1413 select 1;
#X msg 152 1352 1;
#X obj 193 156 tgl 15 0 empty empty empty 17 7 0 10 -204800 -1 -1 0
1;
#X obj 218 1393 &&;
#X obj 220 1413 select 1;
#X msg 218 1352 1;
#X obj 209 156 tgl 15 0 empty empty empty 17 7 0 10 -204800 -1 -1 0
1;
#X obj 283 1392 &&;
#X obj 285 1412 select 1;
#X msg 283 1351 1;
#X obj 225 156 tgl 15 0 empty empty empty 17 7 0 10 -204800 -1 -1 1
1;
#X obj 350 1392 &&;
#X obj 352 1412 select 1;
#X msg 350 1351 1;
#X obj 241 156 tgl 15 0 empty empty empty 17 7 0 10 -204800 -1 -1 0
1;
#X obj 415 1392 &&;
#X obj 417 1412 select 1;
#X msg 415 1351 1;
#X obj 257 156 tgl 15 0 empty empty empty 17 7 0 10 -204800 -1 -1 0
1;
#X obj 481 1392 &&;
#X obj 483 1412 select 1;
#X msg 481 1351 1;
#X obj 273 156 tgl 15 0 empty empty empty 17 7 0 10 -204800 -1 -1 0
1;
#X obj 546 1391 &&;
#X obj 548 1411 select 1;
#X msg 546 1350 1;
#X obj 377 1270 select 1 2 3 4 5 6 7 8 9 10 11 12 13 14 15 16;
#X obj 614 1391 &&;
#X obj 616 1411 select 1;
#X msg 614 1350 1;
#X obj 679 1391 &&;
#X obj 681 1411 select 1;
#X msg 679 1350 1;
#X obj 745 1391 &&;
#X obj 747 1411 select 1;
#X msg 745 1350 1;
#X obj 810 1390 &&;
#X obj 812 1410 select 1;
#X msg 810 1349 1;
#X obj 877 1390 &&;
#X obj 879 1410 select 1;
#X msg 877 1349 1;
#X obj 942 1390 &&;
#X obj 944 1410 select 1;
#X msg 942 1349 1;
#X obj 1008 1390 &&;
#X obj 1010 1410 select 1;
#X msg 1008 1349 1;
#X obj 1073 1389 &&;
#X obj 1075 1409 select 1;
#X msg 1073 1348 1;
#X obj 289 156 tgl 15 0 empty empty empty 17 7 0 10 -204800 -1 -1 0
1;
#X obj 305 156 tgl 15 0 empty empty empty 17 7 0 10 -204800 -1 -1 0
1;
#X obj 321 156 tgl 15 0 empty empty empty 17 7 0 10 -204800 -1 -1 0
1;
#X obj 337 156 tgl 15 0 empty empty empty 17 7 0 10 -204800 -1 -1 0
1;
#X obj 353 156 tgl 15 0 empty empty empty 17 7 0 10 -204800 -1 -1 1
1;
#X obj 369 156 tgl 15 0 empty empty empty 17 7 0 10 -204800 -1 -1 0
1;
#X obj 385 156 tgl 15 0 empty empty empty 17 7 0 10 -204800 -1 -1 0
1;
#X obj 401 156 tgl 15 0 empty empty empty 17 7 0 10 -204800 -1 -1 0
1;
#X obj 442 1528 outlet;
#X text 105 188 outlet 4;
#X text 105 172 outlet 3;
#X text 106 203 outlet 5;
#X obj 161 223 bng 15 250 50 0 empty empty empty 17 7 0 10 -262144
-1 -1;
#X text 163 124 1;
#X text 228 124 5;
#X text 291 124 9;
#X text 352 124 13;
#X text 258 124 -;
#X text 321 124 -;
#X text 385 124 -;
#X text 193 124 -;
#X obj 177 223 bng 15 250 50 0 empty empty empty 17 7 0 10 -262144
-1 -1;
#X obj 193 223 bng 15 250 50 0 empty empty empty 17 7 0 10 -262144
-1 -1;
#X obj 209 223 bng 15 250 50 0 empty empty empty 17 7 0 10 -262144
-1 -1;
#X obj 225 223 bng 15 250 50 0 empty empty empty 17 7 0 10 -262144
-1 -1;
#X obj 241 223 bng 15 250 50 0 empty empty empty 17 7 0 10 -262144
-1 -1;
#X obj 257 223 bng 15 250 50 0 empty empty empty 17 7 0 10 -262144
-1 -1;
#X obj 273 223 bng 15 250 50 0 empty empty empty 17 7 0 10 -262144
-1 -1;
#X obj 289 223 bng 15 250 50 0 empty empty empty 17 7 0 10 -262144
-1 -1;
#X obj 305 223 bng 15 250 50 0 empty empty empty 17 7 0 10 -262144
-1 -1;
#X obj 321 223 bng 15 250 50 0 empty empty empty 17 7 0 10 -262144
-1 -1;
#X obj 337 223 bng 15 250 50 0 empty empty empty 17 7 0 10 -262144
-1 -1;
#X obj 353 223 bng 15 250 50 0 empty empty empty 17 7 0 10 -262144
-1 -1;
#X obj 369 223 bng 15 250 50 0 empty empty empty 17 7 0 10 -262144
-1 -1;
#X obj 385 223 bng 15 250 50 0 empty empty empty 17 7 0 10 -262144
-1 -1;
#X obj 401 223 bng 15 250 50 0 empty empty empty 17 7 0 10 -262144
-1 -1;
#X connect 0 0 1 1;
#X connect 1 0 0 0;
#X connect 1 0 73 0;
#X connect 2 0 3 1;
#X connect 3 0 4 0;
#X connect 4 0 76 0;
#X connect 5 0 3 0;
#X connect 6 0 7 1;
#X connect 7 0 8 0;
#X connect 8 0 76 0;
#X connect 9 0 7 0;
#X connect 10 0 11 1;
#X connect 11 0 12 0;
#X connect 12 0 76 0;
#X connect 13 0 11 0;
#X connect 14 0 15 1;
#X connect 15 0 16 0;
#X connect 16 0 76 0;
#X connect 17 0 15 0;
#X connect 18 0 19 1;
#X connect 19 0 20 0;
#X connect 20 0 76 0;
#X connect 21 0 19 0;
#X connect 22 0 23 1;
#X connect 23 0 24 0;
#X connect 24 0 76 0;
#X connect 25 0 23 0;
#X connect 26 0 27 1;
#X connect 27 0 28 0;
#X connect 28 0 76 0;
#X connect 29 0 27 0;
#X connect 30 0 31 1;
#X connect 31 0 32 0;
#X connect 32 0 76 0;
#X connect 33 0 31 0;
#X connect 34 0 1 0;
#X connect 34 0 39 0;
#X connect 35 0 36 0;
#X connect 36 0 1 0;
#X connect 37 0 35 0;
#X connect 40 0 5 0;
#X connect 40 1 9 0;
#X connect 40 2 13 0;
#X connect 40 3 17 0;
#X connect 40 4 21 0;
#X connect 40 5 25 0;
#X connect 40 6 29 0;
#X connect 40 7 33 0;
#X connect 40 8 43 0;
#X connect 40 9 46 0;
#X connect 40 10 49 0;
#X connect 40 11 52 0;
#X connect 40 12 55 0;
#X connect 40 13 58 0;
#X connect 40 14 61 0;
#X connect 40 16 64 0;
#X connect 41 0 42 0;
#X connect 42 0 76 0;
#X connect 43 0 41 0;
#X connect 44 0 45 0;
#X connect 45 0 76 0;
#X connect 46 0 44 0;
#X connect 47 0 48 0;
#X connect 48 0 76 0;
#X connect 49 0 47 0;
#X connect 50 0 51 0;
#X connect 51 0 76 0;
#X connect 52 0 50 0;
#X connect 53 0 54 0;
#X connect 54 0 76 0;
#X connect 55 0 53 0;
#X connect 56 0 57 0;
#X connect 57 0 76 0;
#X connect 58 0 56 0;
#X connect 59 0 60 0;
#X connect 60 0 76 0;
#X connect 61 0 59 0;
#X connect 62 0 63 0;
#X connect 63 0 76 0;
#X connect 64 0 62 0;
#X connect 65 0 41 1;
#X connect 66 0 44 1;
#X connect 67 0 47 1;
#X connect 68 0 50 1;
#X connect 69 0 53 1;
#X connect 70 0 56 1;
#X connect 71 0 59 1;
#X connect 72 0 62 1;
#X connect 73 0 40 0;
#X connect 73 0 177 0;
#X connect 73 0 110 0;
#X connect 73 0 309 0;
#X connect 73 0 243 0;
#X connect 78 0 79 1;
#X connect 79 0 80 0;
#X connect 80 0 143 0;
#X connect 81 0 79 0;
#X connect 82 0 83 1;
#X connect 83 0 84 0;
#X connect 84 0 143 0;
#X connect 85 0 83 0;
#X connect 86 0 87 1;
#X connect 87 0 88 0;
#X connect 88 0 143 0;
#X connect 89 0 87 0;
#X connect 90 0 91 1;
#X connect 91 0 92 0;
#X connect 92 0 143 0;
#X connect 93 0 91 0;
#X connect 94 0 95 1;
#X connect 95 0 96 0;
#X connect 96 0 143 0;
#X connect 97 0 95 0;
#X connect 98 0 99 1;
#X connect 99 0 100 0;
#X connect 100 0 143 0;
#X connect 101 0 99 0;
#X connect 102 0 103 1;
#X connect 103 0 104 0;
#X connect 104 0 143 0;
#X connect 105 0 103 0;
#X connect 106 0 107 1;
#X connect 107 0 108 0;
#X connect 108 0 143 0;
#X connect 109 0 107 0;
#X connect 110 0 81 0;
#X connect 110 0 346 0;
#X connect 110 1 85 0;
#X connect 110 1 355 0;
#X connect 110 2 89 0;
#X connect 110 2 356 0;
#X connect 110 3 93 0;
#X connect 110 3 357 0;
#X connect 110 4 97 0;
#X connect 110 4 358 0;
#X connect 110 5 101 0;
#X connect 110 5 359 0;
#X connect 110 6 105 0;
#X connect 110 6 360 0;
#X connect 110 7 109 0;
#X connect 110 7 361 0;
#X connect 110 8 113 0;
#X connect 110 8 362 0;
#X connect 110 9 116 0;
#X connect 110 9 363 0;
#X connect 110 10 119 0;
#X connect 110 10 364 0;
#X connect 110 11 122 0;
#X connect 110 11 365 0;
#X connect 110 12 125 0;
#X connect 110 12 366 0;
#X connect 110 13 128 0;
#X connect 110 13 367 0;
#X connect 110 14 131 0;
#X connect 110 14 368 0;
#X connect 110 16 134 0;
#X connect 110 16 369 0;
#X connect 111 0 112 0;
#X connect 112 0 143 0;
#X connect 113 0 111 0;
#X connect 114 0 115 0;
#X connect 115 0 143 0;
#X connect 116 0 114 0;
#X connect 117 0 118 0;
#X connect 118 0 143 0;
#X connect 119 0 117 0;
#X connect 120 0 121 0;
#X connect 121 0 143 0;
#X connect 122 0 120 0;
#X connect 123 0 124 0;
#X connect 124 0 143 0;
#X connect 125 0 123 0;
#X connect 126 0 127 0;
#X connect 127 0 143 0;
#X connect 128 0 126 0;
#X connect 129 0 130 0;
#X connect 130 0 143 0;
#X connect 131 0 129 0;
#X connect 132 0 133 0;
#X connect 133 0 143 0;
#X connect 134 0 132 0;
#X connect 135 0 111 1;
#X connect 136 0 114 1;
#X connect 137 0 117 1;
#X connect 138 0 120 1;
#X connect 139 0 123 1;
#X connect 140 0 126 1;
#X connect 141 0 129 1;
#X connect 142 0 132 1;
#X connect 145 0 146 1;
#X connect 146 0 147 0;
#X connect 147 0 210 0;
#X connect 148 0 146 0;
#X connect 149 0 150 1;
#X connect 150 0 151 0;
#X connect 151 0 210 0;
#X connect 152 0 150 0;
#X connect 153 0 154 1;
#X connect 154 0 155 0;
#X connect 155 0 210 0;
#X connect 156 0 154 0;
#X connect 157 0 158 1;
#X connect 158 0 159 0;
#X connect 159 0 210 0;
#X connect 160 0 158 0;
#X connect 161 0 162 1;
#X connect 162 0 163 0;
#X connect 163 0 210 0;
#X connect 164 0 162 0;
#X connect 165 0 166 1;
#X connect 166 0 167 0;
#X connect 167 0 210 0;
#X connect 168 0 166 0;
#X connect 169 0 170 1;
#X connect 170 0 171 0;
#X connect 171 0 210 0;
#X connect 172 0 170 0;
#X connect 173 0 174 1;
#X connect 174 0 175 0;
#X connect 175 0 210 0;
#X connect 176 0 174 0;
#X connect 177 0 148 0;
#X connect 177 1 152 0;
#X connect 177 2 156 0;
#X connect 177 3 160 0;
#X connect 177 4 164 0;
#X connect 177 5 168 0;
#X connect 177 6 172 0;
#X connect 177 7 176 0;
#X connect 177 8 180 0;
#X connect 177 9 183 0;
#X connect 177 10 186 0;
#X connect 177 11 189 0;
#X connect 177 12 192 0;
#X connect 177 13 195 0;
#X connect 177 14 198 0;
#X connect 177 16 201 0;
#X connect 178 0 179 0;
#X connect 179 0 210 0;
#X connect 180 0 178 0;
#X connect 181 0 182 0;
#X connect 182 0 210 0;
#X connect 183 0 181 0;
#X connect 184 0 185 0;
#X connect 185 0 210 0;
#X connect 186 0 184 0;
#X connect 187 0 188 0;
#X connect 188 0 210 0;
#X connect 189 0 187 0;
#X connect 190 0 191 0;
#X connect 191 0 210 0;
#X connect 192 0 190 0;
#X connect 193 0 194 0;
#X connect 194 0 210 0;
#X connect 195 0 193 0;
#X connect 196 0 197 0;
#X connect 197 0 210 0;
#X connect 198 0 196 0;
#X connect 199 0 200 0;
#X connect 200 0 210 0;
#X connect 201 0 199 0;
#X connect 202 0 178 1;
#X connect 203 0 181 1;
#X connect 204 0 184 1;
#X connect 205 0 187 1;
#X connect 206 0 190 1;
#X connect 207 0 193 1;
#X connect 208 0 196 1;
#X connect 209 0 199 1;
#X connect 211 0 212 1;
#X connect 212 0 213 0;
#X connect 213 0 276 0;
#X connect 214 0 212 0;
#X connect 215 0 216 1;
#X connect 216 0 217 0;
#X connect 217 0 276 0;
#X connect 218 0 216 0;
#X connect 219 0 220 1;
#X connect 220 0 221 0;
#X connect 221 0 276 0;
#X connect 222 0 220 0;
#X connect 223 0 224 1;
#X connect 224 0 225 0;
#X connect 225 0 276 0;
#X connect 226 0 224 0;
#X connect 227 0 228 1;
#X connect 228 0 229 0;
#X connect 229 0 276 0;
#X connect 230 0 228 0;
#X connect 231 0 232 1;
#X connect 232 0 233 0;
#X connect 233 0 276 0;
#X connect 234 0 232 0;
#X connect 235 0 236 1;
#X connect 236 0 237 0;
#X connect 237 0 276 0;
#X connect 238 0 236 0;
#X connect 239 0 240 1;
#X connect 240 0 241 0;
#X connect 241 0 276 0;
#X connect 242 0 240 0;
#X connect 243 0 214 0;
#X connect 243 1 218 0;
#X connect 243 2 222 0;
#X connect 243 3 226 0;
#X connect 243 4 230 0;
#X connect 243 5 234 0;
#X connect 243 6 238 0;
#X connect 243 7 242 0;
#X connect 243 8 246 0;
#X connect 243 9 249 0;
#X connect 243 10 252 0;
#X connect 243 11 255 0;
#X connect 243 12 258 0;
#X connect 243 13 261 0;
#X connect 243 14 264 0;
#X connect 243 16 267 0;
#X connect 244 0 245 0;
#X connect 245 0 276 0;
#X connect 246 0 244 0;
#X connect 247 0 248 0;
#X connect 248 0 276 0;
#X connect 249 0 247 0;
#X connect 250 0 251 0;
#X connect 251 0 276 0;
#X connect 252 0 250 0;
#X connect 253 0 254 0;
#X connect 254 0 276 0;
#X connect 255 0 253 0;
#X connect 256 0 257 0;
#X connect 257 0 276 0;
#X connect 258 0 256 0;
#X connect 259 0 260 0;
#X connect 260 0 276 0;
#X connect 261 0 259 0;
#X connect 262 0 263 0;
#X connect 263 0 276 0;
#X connect 264 0 262 0;
#X connect 265 0 266 0;
#X connect 266 0 276 0;
#X connect 267 0 265 0;
#X connect 268 0 244 1;
#X connect 269 0 247 1;
#X connect 270 0 250 1;
#X connect 271 0 253 1;
#X connect 272 0 256 1;
#X connect 273 0 259 1;
#X connect 274 0 262 1;
#X connect 275 0 265 1;
#X connect 277 0 278 1;
#X connect 278 0 279 0;
#X connect 279 0 342 0;
#X connect 280 0 278 0;
#X connect 281 0 282 1;
#X connect 282 0 283 0;
#X connect 283 0 342 0;
#X connect 284 0 282 0;
#X connect 285 0 286 1;
#X connect 286 0 287 0;
#X connect 287 0 342 0;
#X connect 288 0 286 0;
#X connect 289 0 290 1;
#X connect 290 0 291 0;
#X connect 291 0 342 0;
#X connect 292 0 290 0;
#X connect 293 0 294 1;
#X connect 294 0 295 0;
#X connect 295 0 342 0;
#X connect 296 0 294 0;
#X connect 297 0 298 1;
#X connect 298 0 299 0;
#X connect 299 0 342 0;
#X connect 300 0 298 0;
#X connect 301 0 302 1;
#X connect 302 0 303 0;
#X connect 303 0 342 0;
#X connect 304 0 302 0;
#X connect 305 0 306 1;
#X connect 306 0 307 0;
#X connect 307 0 342 0;
#X connect 308 0 306 0;
#X connect 309 0 280 0;
#X connect 309 1 284 0;
#X connect 309 2 288 0;
#X connect 309 3 292 0;
#X connect 309 4 296 0;
#X connect 309 5 300 0;
#X connect 309 6 304 0;
#X connect 309 7 308 0;
#X connect 309 8 312 0;
#X connect 309 9 315 0;
#X connect 309 10 318 0;
#X connect 309 11 321 0;
#X connect 309 12 324 0;
#X connect 309 13 327 0;
#X connect 309 14 330 0;
#X connect 309 16 333 0;
#X connect 310 0 311 0;
#X connect 311 0 342 0;
#X connect 312 0 310 0;
#X connect 313 0 314 0;
#X connect 314 0 342 0;
#X connect 315 0 313 0;
#X connect 316 0 317 0;
#X connect 317 0 342 0;
#X connect 318 0 316 0;
#X connect 319 0 320 0;
#X connect 320 0 342 0;
#X connect 321 0 319 0;
#X connect 322 0 323 0;
#X connect 323 0 342 0;
#X connect 324 0 322 0;
#X connect 325 0 326 0;
#X connect 326 0 342 0;
#X connect 327 0 325 0;
#X connect 328 0 329 0;
#X connect 329 0 342 0;
#X connect 330 0 328 0;
#X connect 331 0 332 0;
#X connect 332 0 342 0;
#X connect 333 0 331 0;
#X connect 334 0 310 1;
#X connect 335 0 313 1;
#X connect 336 0 316 1;
#X connect 337 0 319 1;
#X connect 338 0 322 1;
#X connect 339 0 325 1;
#X connect 340 0 328 1;
#X connect 341 0 331 1;
#X coords 0 -1 1 1 400 150 2 100 100;
