#N canvas 683 66 677 666 10;
#X obj 189 68 openpanel;
#X obj 189 125 soundfiler;
#X text 263 69 opens file selector dialog;
#X msg 189 35 symbol wavs/;
#X floatatom 189 160 8 0 0 0 samples_in_wav - -, f 8;
#X obj 370 526 line~;
#X obj 369 555 tabread~ array1;
#X obj 370 469 pack;
#X obj 369 597 dac~;
#X obj 189 231 / 16;
#X floatatom 189 262 8 0 0 0 - - -, f 8;
#X text 188 15 load;
#X msg 189 95 read -resize \$1 array1;
#N canvas 0 50 450 250 (subpatch) 0;
#X array array1 373248 float 2;
#X coords 0 1 373248 -1 200 140 1;
#X restore 466 18 graph;
#X obj 347 247 t b b b;
#X obj 444 171 bng 15 250 50 0 empty empty play_sample_as_is 17 7 0
10 -262144 -1 -1;
#X floatatom 395 422 8 0 0 0 - - -, f 8;
#X obj 395 396 / 44.1;
#X obj 306 298 nbx 5 14 0 1e+37 0 0 empty empty START 0 -8 0 10 -262144
-1 -1 0 256;
#X obj 370 298 nbx 5 14 -1e+37 1e+37 0 0 empty empty STOP 0 -8 0 10
-262144 -1 -1 44251.1 256;
#X obj 395 337 -;
#X obj 288 320 +;
#X obj 470 203 hsl 195 15 0 1 0 0 empty empty stop -2 -8 0 10 -262144
-1 -1 2300 1;
#X obj 469 172 hsl 195 15 0 1 0 0 empty empty start -2 -8 0 10 -262144
-1 -1 0 1;
#X obj 456 276 *;
#X obj 456 339 *;
#X floatatom 430 366 8 0 0 0 - - -, f 8;
#X obj 321 321 bng 15 250 50 0 empty empty empty 17 7 0 10 -262144
-1 -1;
#X obj 395 366 abs;
#X obj 352 415 +;
#X obj 512 358 metro 100;
#X obj 572 306 /;
#X msg 572 274 60000;
#X floatatom 683 275 5 10 200 0 bpm_tempo - -, f 5;
#X obj 498 245 tgl 15 0 empty empty loop 17 7 0 10 -262144 -1 -1 0
1;
#X msg 530 293 stop;
#X obj 498 294 bng 15 250 50 0 empty empty empty 17 7 0 10 -262144
-1 -1;
#X obj 512 386 bng 15 250 50 0 empty empty empty 17 7 0 10 -262144
-1 -1;
#X obj 498 269 sel 1;
#X obj 572 332 * 4;
#X connect 0 0 12 0;
#X connect 1 0 4 0;
#X connect 3 0 0 0;
#X connect 4 0 9 0;
#X connect 4 0 19 0;
#X connect 4 0 24 1;
#X connect 4 0 25 1;
#X connect 5 0 6 0;
#X connect 6 0 8 0;
#X connect 6 0 8 1;
#X connect 7 0 5 0;
#X connect 9 0 10 0;
#X connect 12 0 1 0;
#X connect 14 0 29 0;
#X connect 14 1 19 0;
#X connect 14 2 21 0;
#X connect 15 0 14 0;
#X connect 15 0 22 0;
#X connect 15 0 23 0;
#X connect 16 0 7 1;
#X connect 17 0 16 0;
#X connect 18 0 21 1;
#X connect 18 0 20 1;
#X connect 18 0 27 0;
#X connect 19 0 20 0;
#X connect 19 0 29 1;
#X connect 20 0 26 0;
#X connect 20 0 28 0;
#X connect 21 0 5 0;
#X connect 22 0 25 0;
#X connect 23 0 24 0;
#X connect 24 0 18 0;
#X connect 25 0 19 0;
#X connect 27 0 20 0;
#X connect 28 0 17 0;
#X connect 29 0 7 0;
#X connect 30 0 37 0;
#X connect 31 0 39 0;
#X connect 32 0 31 0;
#X connect 33 0 31 1;
#X connect 33 0 32 0;
#X connect 34 0 38 0;
#X connect 35 0 30 0;
#X connect 36 0 30 0;
#X connect 37 0 15 0;
#X connect 38 0 36 0;
#X connect 38 1 35 0;
#X connect 39 0 30 1;
