#N canvas 21 66 1339 666 10;
#X obj -696 62 openpanel;
#X obj -696 162 soundfiler;
#X text -624 61 opens file selector dialog;
#X msg -696 29 symbol wavs/;
#X floatatom -696 186 8 0 0 0 samples_in_wav - -, f 8;
#X obj -857 565 line~;
#X obj -857 508 pack;
#X obj -696 225 / 16;
#X floatatom -696 256 8 0 0 0 - - -, f 8;
#X text -697 9 load;
#N canvas 0 50 450 250 (subpatch) 0;
#X array \$0-array1 103636 float 2;
#X coords 0 1 103636 -1 405 180 1 0 0;
#X restore 184 124 graph;
#X obj -880 286 t b b b;
#X obj -880 259 bng 15 250 50 0 empty empty play_sample 17 7 0 10 -262144
-1 -1;
#X floatatom -832 461 8 0 0 0 - - -, f 8;
#X obj -832 435 / 44.1;
#X obj -921 337 nbx 5 14 0 1e+37 0 0 empty empty START 0 -8 0 10 -262144
-1 -1 25909 256;
#X obj -857 337 nbx 5 14 -1e+37 1e+37 0 0 empty empty STOP 0 -8 0 10
-262144 -1 -1 103636 256;
#X obj -832 376 -;
#X obj -939 359 +;
#X obj 188 333 hsl 400 20 0 1 0 0 empty empty empty -2 -8 0 10 -257985
-1 -1 39900 1;
#X obj 188 312 hsl 400 20 0 1 0 0 empty empty empty -2 -8 0 10 -4032
-1 -1 0 1;
#X obj -771 315 *;
#X obj -771 378 *;
#X floatatom -797 405 8 0 0 0 - - -, f 8;
#X obj -906 360 bng 15 250 50 0 empty empty empty 17 7 0 10 -262144
-1 -1;
#X obj -832 405 abs;
#X obj -875 454 +;
#X obj -715 397 metro 100;
#X obj -655 345 /;
#X msg -655 313 60000;
#X floatatom -632 256 5 10 200 2 bpm - -, f 5;
#X obj 110 255 tgl 20 1 empty empty loop 22 10 0 14 -203904 -4160 -99865
0 1;
#X msg -697 332 stop;
#X obj -729 333 bng 15 250 50 0 empty empty empty 17 7 0 10 -262144
-1 -1;
#X obj -715 425 bng 15 250 50 0 empty empty empty 17 7 0 10 -262144
-1 -1;
#X obj -729 308 sel 1;
#X obj -886 785 +;
#X floatatom -886 764 5 1 8 0 - - -, f 5;
#X obj -715 688 sel 1;
#X obj -715 716 bng 15 250 50 0 empty empty empty 17 7 0 10 -262144
-1 -1;
#X msg -715 739 0;
#X obj -319 721 bng 15 250 50 0 empty empty empty 17 7 0 10 -262144
-1 -1;
#X obj -301 721 bng 15 250 50 0 empty empty empty 17 7 0 10 -262144
-1 -1;
#X obj -282 721 bng 15 250 50 0 empty empty empty 17 7 0 10 -262144
-1 -1;
#X obj -264 721 bng 15 250 50 0 empty empty empty 17 7 0 10 -262144
-1 -1;
#X obj 189 383 hsl 400 20 0 1 0 0 empty empty empty -2 -8 0 10 -257985
-1 -1 39900 1;
#X obj 189 363 hsl 400 20 0 1 0 0 empty empty empty -2 -8 0 10 -4032
-1 -1 4987 1;
#X obj 189 435 hsl 400 20 0 1 0 0 empty empty empty -2 -8 0 10 -257985
-1 -1 39900 1;
#X obj 189 415 hsl 400 20 0 1 0 0 empty empty empty -2 -8 0 10 -4032
-1 -1 9975 1;
#X obj 189 486 hsl 400 20 0 1 0 0 empty empty empty -2 -8 0 10 -257985
-1 -1 39900 1;
#X obj 189 466 hsl 400 20 0 1 0 0 empty empty empty -2 -8 0 10 -4032
-1 -1 14962 1;
#X obj -715 452 tgl 15 0 empty empty empty 17 7 0 10 -262144 -1 -1
0 1;
#X obj -715 472 sel 1;
#X obj -715 497 bng 15 250 50 0 empty empty empty 17 7 0 10 -262144
-1 -1;
#X obj -715 520 tgl 15 0 empty empty empty 17 7 0 10 -262144 -1 -1
0 1;
#X obj -715 540 sel 1;
#X obj -715 564 bng 15 250 50 0 empty empty empty 17 7 0 10 -262144
-1 -1;
#X msg -513 909 1;
#X msg -479 909 0;
#X obj -513 937 == 1;
#X obj -513 961 sel 1;
#X obj -513 985 bng 15 250 50 0 empty empty empty 17 7 0 10 -262144
-1 -1;
#X msg -442 909 1;
#X msg -408 909 0;
#X obj -442 937 == 1;
#X obj -442 961 sel 1;
#X obj -442 986 bng 15 250 50 0 empty empty empty 17 7 0 10 -262144
-1 -1;
#X msg -367 909 1;
#X msg -333 909 0;
#X obj -367 937 == 1;
#X obj -367 961 sel 1;
#X obj -367 985 bng 15 250 50 0 empty empty empty 17 7 0 10 -262144
-1 -1;
#X obj -626 1170 bng 15 250 50 0 empty empty empty 17 7 0 10 -262144
-1 -1;
#X obj 109 313 hradio 20 1 0 3 empty empty empty 0 -8 0 10 -261234
-1 -1 0;
#X msg -694 1100 0;
#X msg -660 1100 1;
#X msg -626 1100 2;
#X obj -471 1168 bng 15 250 50 0 empty empty empty 17 7 0 10 -262144
-1 -1;
#X obj 109 364 hradio 20 1 0 3 empty empty empty 0 -8 0 10 -261234
-1 -1 0;
#X msg -539 1098 0;
#X msg -505 1098 1;
#X msg -471 1098 2;
#X obj -314 1169 bng 15 250 50 0 empty empty empty 17 7 0 10 -262144
-1 -1;
#X obj 110 415 hradio 20 1 0 3 empty empty empty 0 -8 0 10 -261234
-1 -1 0;
#X msg -382 1099 0;
#X msg -348 1099 1;
#X msg -314 1099 2;
#X obj -159 1167 bng 15 250 50 0 empty empty empty 17 7 0 10 -262144
-1 -1;
#X obj 109 465 hradio 20 1 0 3 empty empty empty 0 -8 0 10 -261234
-1 -1 0;
#X msg -227 1097 0;
#X msg -193 1097 1;
#X msg -159 1097 2;
#X msg -290 908 1;
#X msg -256 908 0;
#X obj -290 936 == 1;
#X obj -290 960 sel 1;
#X obj -290 982 bng 15 250 50 0 empty empty empty 17 7 0 10 -262144
-1 -1;
#X msg -749 444 0;
#X msg -215 908 1;
#X msg -181 908 0;
#X obj -215 936 == 1;
#X obj -215 960 sel 1;
#X obj -215 984 bng 15 250 50 0 empty empty empty 17 7 0 10 -262144
-1 -1;
#X msg -144 908 1;
#X msg -110 908 0;
#X obj -144 936 == 1;
#X obj -144 960 sel 1;
#X obj -144 985 bng 15 250 50 0 empty empty empty 17 7 0 10 -262144
-1 -1;
#X msg -69 908 1;
#X msg -35 908 0;
#X obj -69 936 == 1;
#X obj -69 960 sel 1;
#X obj -69 984 bng 15 250 50 0 empty empty empty 17 7 0 10 -262144
-1 -1;
#X msg 8 907 1;
#X msg 42 907 0;
#X obj 8 935 == 1;
#X obj 8 959 sel 1;
#X obj 8 981 bng 15 250 50 0 empty empty empty 17 7 0 10 -262144 -1
-1;
#X obj -319 696 sel 0 1 2 3 4 5 6 7;
#X obj -245 721 bng 15 250 50 0 empty empty empty 17 7 0 10 -262144
-1 -1;
#X obj -227 721 bng 15 250 50 0 empty empty empty 17 7 0 10 -262144
-1 -1;
#X obj -208 721 bng 15 250 50 0 empty empty empty 17 7 0 10 -262144
-1 -1;
#X obj -190 721 bng 15 250 50 0 empty empty empty 17 7 0 10 -262144
-1 -1;
#X obj -16 1167 bng 15 250 50 0 empty empty empty 17 7 0 10 -262144
-1 -1;
#X msg -84 1097 0;
#X msg -50 1097 1;
#X msg -16 1097 2;
#X obj 139 1165 bng 15 250 50 0 empty empty empty 17 7 0 10 -262144
-1 -1;
#X msg 71 1095 0;
#X msg 105 1095 1;
#X msg 139 1095 2;
#X obj 296 1166 bng 15 250 50 0 empty empty empty 17 7 0 10 -262144
-1 -1;
#X msg 228 1096 0;
#X msg 262 1096 1;
#X msg 296 1096 2;
#X obj 451 1164 bng 15 250 50 0 empty empty empty 17 7 0 10 -262144
-1 -1;
#X msg 383 1094 0;
#X msg 417 1094 1;
#X msg 451 1094 2;
#X obj 188 538 hsl 400 20 0 1 0 0 empty empty empty -2 -8 0 10 -257985
-1 -1 39900 1;
#X obj 188 518 hsl 400 20 0 1 0 0 empty empty empty -2 -8 0 10 -4032
-1 -1 19950 1;
#X obj 188 591 hsl 400 20 0 1 0 0 empty empty empty -2 -8 0 10 -257985
-1 -1 39900 1;
#X obj 188 571 hsl 400 20 0 1 0 0 empty empty empty -2 -8 0 10 -4032
-1 -1 24937 1;
#X obj 189 643 hsl 400 20 0 1 0 0 empty empty empty -2 -8 0 10 -257985
-1 -1 39900 1;
#X obj 189 623 hsl 400 20 0 1 0 0 empty empty empty -2 -8 0 10 -4032
-1 -1 29925 1;
#X obj 189 695 hsl 400 20 0 1 0 0 empty empty empty -2 -8 0 10 -257985
-1 -1 39900 1;
#X obj 189 675 hsl 400 20 0 1 0 0 empty empty empty -2 -8 0 10 -4032
-1 -1 34912 1;
#X obj 109 517 hradio 20 1 0 3 empty empty empty 0 -8 0 10 -261234
-1 -1 0;
#X obj 108 571 hradio 20 1 0 3 empty empty empty 0 -8 0 10 -261234
-1 -1 0;
#X obj 108 623 hradio 20 1 0 3 empty empty empty 0 -8 0 10 -261234
-1 -1 0;
#X obj 109 675 hradio 20 1 0 3 empty empty empty 0 -8 0 10 -261234
-1 -1 0;
#X obj -886 812 > 7;
#X obj 671 322 loadbang;
#X msg 671 371 1;
#X msg 719 420 0;
#X msg 719 467 0.25;
#X msg 719 515 0.5;
#X msg 719 444 0.125;
#X msg 719 492 0.375, f 6;
#X msg 717 563 0.75;
#X msg 718 538 0.625;
#X msg 716 589 0.875;
#X obj 109 229 bng 20 250 50 0 empty empty load 22 10 0 14 -203904
-4160 -99865;
#X obj -858 635 outlet~;
#X obj -626 1142 sel 0;
#X obj -471 1140 sel 0;
#X obj -314 1140 sel 0;
#X obj -159 1139 sel 0;
#X obj -16 1139 sel 0;
#X obj 139 1137 sel 0;
#X obj 296 1138 sel 0;
#X obj 451 1136 sel 0;
#X obj 129 337 bng 20 250 50 0 empty empty empty 17 7 0 10 -260097
-4034 -1;
#X obj 130 438 bng 20 250 50 0 empty empty empty 17 7 0 10 -260097
-4034 -1;
#X obj 129 489 bng 20 250 50 0 empty empty empty 17 7 0 10 -260097
-4034 -1;
#X obj 129 541 bng 20 250 50 0 empty empty empty 17 7 0 10 -260097
-4034 -1;
#X obj 128 596 bng 20 250 50 0 empty empty empty 17 7 0 10 -260097
-4034 -1;
#X obj 129 647 bng 20 250 50 0 empty empty empty 17 7 0 10 -260097
-4034 -1;
#X obj 129 699 bng 20 250 50 0 empty empty empty 17 7 0 10 -260097
-4034 -1;
#X obj 129 388 bng 20 250 50 0 empty empty empty 17 7 0 10 -260097
-4034 -1;
#X obj 109 134 vsl 20 60 50 200 1 0 empty empty BPM 0 -10 0 12 -204786
-1 -99865 4500 1;
#X obj 109 202 nbx 3 20 -1e+37 1e+37 0 0 empty empty empty 0 -8 0 15
-262144 -1 -1 143.936 256;
#X obj -655 372 / 8;
#X msg -553 1162 0;
#X obj -594 1172 bng 15 250 50 0 empty empty empty 17 7 0 10 -262144
-1 -1;
#X obj 148 134 vsl 20 60 2 0.5 1 0 empty empty speed -8 -10 0 12 -204786
-1 -99865 2150 1;
#X obj -65 104 loadbang;
#X msg -65 129 1;
#X obj -832 485 * 1;
#X msg -147 129 120;
#X obj 704 374 bng 15 250 50 0 empty empty empty 17 7 0 10 -262144
-1 -1;
#X obj 110 280 bng 20 250 50 0 empty empty reset 22 10 0 14 -203904
-4160 -99865;
#X msg 672 403 0;
#N canvas 0 50 450 250 (subpatch) 0;
#X coords 0 1 100 -1 202 591 1 0 0;
#X restore 387 124 graph;
#N canvas 0 50 450 250 (subpatch) 0;
#X coords 0 1 100 -1 300 591 1 0 0;
#X restore 237 124 graph;
#N canvas 0 50 450 250 (subpatch) 0;
#X coords 0 1 100 -1 100 591 1 0 0;
#X restore 338 124 graph;
#N canvas 0 50 450 250 (subpatch) 0;
#X coords 0 1 100 -1 200 591 1 0 0;
#X restore 288 124 graph;
#X obj -858 594 tabread~ \$0-array1;
#X obj -580 199 print;
#X obj -622 87 f \$0;
#X msg -696 136 read -resize \$1 \$2-array1;
#X obj -696 110 list append;
#X obj -658 84 bng 15 250 50 0 empty empty empty 17 7 0 10 -262144
-1 -1;
#X obj -571 169 print;
#X obj -564 31 loadbang;
#X text 565 720 sync;
#X text 104 722 audio;
#X obj 33 318 outlet;
#X obj 27 271 outlet;
#X obj 36 89 inlet;
#X text 559 100 tempo;
#X obj 85 43 inlet;
#X obj -775 561 t b b;
#X msg -782 508 1;
#X msg -918 743 1;
#X floatatom -840 828 5 0 0 0 - - -, f 5;
#X msg -809 681 0;
#X obj -761 656 inlet;
#X obj -770 784 outlet;
#X obj -761 693 bng 15 250 50 0 empty empty empty 17 7 0 10 -262144
-1 -1;
#X msg -797 718 -1;
#X text 413 723 tempo;
#X text 249 723 sync2;
#X text 334 102 sync;
#X text 101 100 sync2;
#X connect 0 0 201 0;
#X connect 0 0 202 0;
#X connect 1 0 4 0;
#X connect 3 0 0 0;
#X connect 4 0 7 0;
#X connect 4 0 16 0;
#X connect 4 0 21 1;
#X connect 4 0 22 1;
#X connect 5 0 197 0;
#X connect 6 0 5 0;
#X connect 7 0 8 0;
#X connect 11 0 26 0;
#X connect 11 1 16 0;
#X connect 11 2 18 0;
#X connect 12 0 11 0;
#X connect 13 0 188 0;
#X connect 14 0 13 0;
#X connect 15 0 18 1;
#X connect 15 0 17 1;
#X connect 15 0 24 0;
#X connect 16 0 17 0;
#X connect 16 0 26 1;
#X connect 17 0 23 0;
#X connect 17 0 25 0;
#X connect 18 0 5 0;
#X connect 19 0 22 0;
#X connect 20 0 21 0;
#X connect 21 0 15 0;
#X connect 22 0 16 0;
#X connect 24 0 17 0;
#X connect 25 0 14 0;
#X connect 26 0 6 0;
#X connect 27 0 34 0;
#X connect 28 0 182 0;
#X connect 29 0 28 0;
#X connect 30 0 28 1;
#X connect 30 0 29 0;
#X connect 31 0 35 0;
#X connect 31 0 207 0;
#X connect 32 0 27 0;
#X connect 33 0 27 0;
#X connect 33 0 12 0;
#X connect 33 0 97 0;
#X connect 34 0 51 0;
#X connect 34 0 76 0;
#X connect 34 0 81 0;
#X connect 34 0 86 0;
#X connect 34 0 91 0;
#X connect 34 0 126 0;
#X connect 34 0 130 0;
#X connect 34 0 134 0;
#X connect 34 0 138 0;
#X connect 35 0 33 0;
#X connect 35 1 32 0;
#X connect 36 0 37 0;
#X connect 36 0 151 0;
#X connect 36 0 215 0;
#X connect 37 0 36 1;
#X connect 37 0 118 0;
#X connect 38 0 39 0;
#X connect 39 0 40 0;
#X connect 39 0 218 0;
#X connect 40 0 37 0;
#X connect 41 0 57 0;
#X connect 41 0 63 0;
#X connect 41 0 20 0;
#X connect 41 0 19 0;
#X connect 41 0 68 0;
#X connect 41 0 93 0;
#X connect 41 0 99 0;
#X connect 41 0 104 0;
#X connect 41 0 109 0;
#X connect 41 0 114 0;
#X connect 41 0 172 0;
#X connect 42 0 46 0;
#X connect 42 0 45 0;
#X connect 42 0 58 0;
#X connect 42 0 62 0;
#X connect 42 0 68 0;
#X connect 42 0 93 0;
#X connect 42 0 99 0;
#X connect 42 0 104 0;
#X connect 42 0 109 0;
#X connect 42 0 114 0;
#X connect 42 0 179 0;
#X connect 43 0 48 0;
#X connect 43 0 47 0;
#X connect 43 0 58 0;
#X connect 43 0 63 0;
#X connect 43 0 67 0;
#X connect 43 0 93 0;
#X connect 43 0 99 0;
#X connect 43 0 104 0;
#X connect 43 0 109 0;
#X connect 43 0 114 0;
#X connect 43 0 173 0;
#X connect 44 0 50 0;
#X connect 44 0 49 0;
#X connect 44 0 58 0;
#X connect 44 0 63 0;
#X connect 44 0 92 0;
#X connect 44 0 68 0;
#X connect 44 0 99 0;
#X connect 44 0 104 0;
#X connect 44 0 109 0;
#X connect 44 0 114 0;
#X connect 44 0 174 0;
#X connect 45 0 22 0;
#X connect 46 0 21 0;
#X connect 47 0 22 0;
#X connect 48 0 21 0;
#X connect 49 0 22 0;
#X connect 50 0 21 0;
#X connect 51 0 52 0;
#X connect 52 0 53 0;
#X connect 53 0 54 0;
#X connect 53 0 75 0;
#X connect 53 0 80 0;
#X connect 53 0 85 0;
#X connect 53 0 90 0;
#X connect 53 0 125 0;
#X connect 53 0 129 0;
#X connect 53 0 133 0;
#X connect 53 0 137 0;
#X connect 54 0 55 0;
#X connect 55 0 56 0;
#X connect 56 0 12 0;
#X connect 56 0 74 0;
#X connect 56 0 79 0;
#X connect 56 0 84 0;
#X connect 56 0 89 0;
#X connect 56 0 124 0;
#X connect 56 0 128 0;
#X connect 56 0 132 0;
#X connect 56 0 136 0;
#X connect 56 0 214 0;
#X connect 57 0 59 0;
#X connect 58 0 59 0;
#X connect 59 0 60 0;
#X connect 60 0 61 0;
#X connect 61 0 12 0;
#X connect 62 0 64 0;
#X connect 63 0 64 0;
#X connect 64 0 65 0;
#X connect 65 0 66 0;
#X connect 66 0 12 0;
#X connect 67 0 69 0;
#X connect 68 0 69 0;
#X connect 69 0 70 0;
#X connect 70 0 71 0;
#X connect 71 0 12 0;
#X connect 72 0 59 0;
#X connect 73 0 164 1;
#X connect 74 0 164 0;
#X connect 75 0 164 0;
#X connect 76 0 164 0;
#X connect 77 0 64 0;
#X connect 78 0 165 1;
#X connect 79 0 165 0;
#X connect 80 0 165 0;
#X connect 81 0 165 0;
#X connect 82 0 69 0;
#X connect 83 0 166 1;
#X connect 84 0 166 0;
#X connect 85 0 166 0;
#X connect 86 0 166 0;
#X connect 87 0 94 0;
#X connect 88 0 167 1;
#X connect 89 0 167 0;
#X connect 90 0 167 0;
#X connect 91 0 167 0;
#X connect 92 0 94 0;
#X connect 93 0 94 0;
#X connect 94 0 95 0;
#X connect 95 0 96 0;
#X connect 96 0 12 0;
#X connect 97 0 37 0;
#X connect 97 0 36 0;
#X connect 97 0 51 0;
#X connect 97 0 213 0;
#X connect 98 0 100 0;
#X connect 99 0 100 0;
#X connect 100 0 101 0;
#X connect 101 0 102 0;
#X connect 102 0 12 0;
#X connect 103 0 105 0;
#X connect 104 0 105 0;
#X connect 105 0 106 0;
#X connect 106 0 107 0;
#X connect 107 0 12 0;
#X connect 108 0 110 0;
#X connect 109 0 110 0;
#X connect 110 0 111 0;
#X connect 111 0 112 0;
#X connect 112 0 12 0;
#X connect 113 0 115 0;
#X connect 114 0 115 0;
#X connect 115 0 116 0;
#X connect 116 0 117 0;
#X connect 117 0 12 0;
#X connect 118 0 41 0;
#X connect 118 1 42 0;
#X connect 118 2 43 0;
#X connect 118 3 44 0;
#X connect 118 4 119 0;
#X connect 118 5 120 0;
#X connect 118 6 121 0;
#X connect 118 7 122 0;
#X connect 119 0 58 0;
#X connect 119 0 63 0;
#X connect 119 0 68 0;
#X connect 119 0 93 0;
#X connect 119 0 98 0;
#X connect 119 0 104 0;
#X connect 119 0 109 0;
#X connect 119 0 114 0;
#X connect 119 0 140 0;
#X connect 119 0 139 0;
#X connect 119 0 175 0;
#X connect 120 0 58 0;
#X connect 120 0 63 0;
#X connect 120 0 68 0;
#X connect 120 0 93 0;
#X connect 120 0 99 0;
#X connect 120 0 103 0;
#X connect 120 0 109 0;
#X connect 120 0 114 0;
#X connect 120 0 142 0;
#X connect 120 0 141 0;
#X connect 120 0 176 0;
#X connect 121 0 58 0;
#X connect 121 0 63 0;
#X connect 121 0 68 0;
#X connect 121 0 93 0;
#X connect 121 0 99 0;
#X connect 121 0 104 0;
#X connect 121 0 108 0;
#X connect 121 0 114 0;
#X connect 121 0 144 0;
#X connect 121 0 143 0;
#X connect 121 0 177 0;
#X connect 122 0 58 0;
#X connect 122 0 63 0;
#X connect 122 0 68 0;
#X connect 122 0 93 0;
#X connect 122 0 99 0;
#X connect 122 0 104 0;
#X connect 122 0 109 0;
#X connect 122 0 113 0;
#X connect 122 0 146 0;
#X connect 122 0 145 0;
#X connect 122 0 178 0;
#X connect 123 0 100 0;
#X connect 124 0 168 0;
#X connect 125 0 168 0;
#X connect 126 0 168 0;
#X connect 127 0 105 0;
#X connect 128 0 169 0;
#X connect 129 0 169 0;
#X connect 130 0 169 0;
#X connect 131 0 110 0;
#X connect 132 0 170 0;
#X connect 133 0 170 0;
#X connect 134 0 170 0;
#X connect 135 0 115 0;
#X connect 136 0 171 0;
#X connect 137 0 171 0;
#X connect 138 0 171 0;
#X connect 139 0 22 0;
#X connect 140 0 21 0;
#X connect 141 0 22 0;
#X connect 142 0 21 0;
#X connect 143 0 22 0;
#X connect 144 0 21 0;
#X connect 145 0 22 0;
#X connect 146 0 21 0;
#X connect 147 0 168 1;
#X connect 148 0 169 1;
#X connect 149 0 170 1;
#X connect 150 0 171 1;
#X connect 151 0 38 0;
#X connect 152 0 153 0;
#X connect 152 0 190 0;
#X connect 153 0 19 0;
#X connect 153 0 45 0;
#X connect 153 0 47 0;
#X connect 153 0 49 0;
#X connect 153 0 139 0;
#X connect 153 0 141 0;
#X connect 153 0 143 0;
#X connect 153 0 145 0;
#X connect 154 0 20 0;
#X connect 155 0 48 0;
#X connect 156 0 140 0;
#X connect 157 0 46 0;
#X connect 158 0 50 0;
#X connect 159 0 144 0;
#X connect 160 0 142 0;
#X connect 161 0 146 0;
#X connect 162 0 3 0;
#X connect 164 0 72 0;
#X connect 164 1 183 0;
#X connect 164 1 184 0;
#X connect 165 0 77 0;
#X connect 166 0 82 0;
#X connect 167 0 87 0;
#X connect 168 0 123 0;
#X connect 169 0 127 0;
#X connect 170 0 131 0;
#X connect 171 0 135 0;
#X connect 180 0 30 0;
#X connect 180 0 181 0;
#X connect 181 0 208 0;
#X connect 182 0 27 1;
#X connect 183 0 60 0;
#X connect 185 0 188 1;
#X connect 186 0 187 0;
#X connect 187 0 185 0;
#X connect 188 0 6 1;
#X connect 189 0 180 0;
#X connect 190 0 154 0;
#X connect 190 0 157 0;
#X connect 190 0 155 0;
#X connect 190 0 158 0;
#X connect 190 0 156 0;
#X connect 190 0 160 0;
#X connect 190 0 159 0;
#X connect 190 0 161 0;
#X connect 190 0 192 0;
#X connect 191 0 153 0;
#X connect 191 0 190 0;
#X connect 192 0 73 0;
#X connect 192 0 78 0;
#X connect 192 0 83 0;
#X connect 192 0 88 0;
#X connect 192 0 147 0;
#X connect 192 0 148 0;
#X connect 192 0 149 0;
#X connect 192 0 150 0;
#X connect 197 0 163 0;
#X connect 199 0 201 1;
#X connect 200 0 1 0;
#X connect 200 0 198 0;
#X connect 201 0 200 0;
#X connect 201 0 203 0;
#X connect 202 0 199 0;
#X connect 204 0 199 0;
#X connect 209 0 31 0;
#X connect 211 0 180 0;
#X connect 213 0 54 0;
#X connect 213 0 216 0;
#X connect 214 0 36 0;
#X connect 216 0 37 0;
#X connect 217 0 219 0;
#X connect 219 0 220 0;
#X connect 220 0 37 0;
#X coords 0 -1 1 1 500 640 2 100 100;
