#N canvas 720 86 640 640 10;
#X obj 533 388 line~;
#X obj 532 419 snapshot~;
#X obj 533 360 pack;
#X floatatom 573 320 5 10 1000 0 - - -, f 5;
#X floatatom 485 320 5 0 0 0 - - -, f 5;
#X floatatom 530 320 5 0 0 0 - - -, f 5;
#X obj 507 287 t b b b;
#X obj 558 340 * 10;
#X text 259 115 start;
#X text 358 115 speed;
#X text 207 115 bang;
#X text 103 141 sig;
#X text 343 142 control;
#X text 149 114 srate;
#X obj 455 123 inlet;
#X obj 463 150 print start \$1;
#X obj 492 210 inlet;
#X obj 492 240 print stop \$1;
#X obj 612 205 inlet;
#X obj 384 184 inlet;
#X obj 616 237 print speed \$1;
#X obj 434 253 bng 15 250 50 0 empty empty empty 17 7 0 10 -262144
-1 -1;
#X obj 303 352 metro 10;
#X obj 386 217 print bang \$1;
#X obj 371 298 inlet;
#X obj 374 330 print srate \$1;
#X obj 470 450 outlet~;
#X obj 532 450 outlet;
#X obj 635 342 +;
#X text 662 335 store the initial final value to compare with the control
line so you can stop the sampling when the line is done;
#X obj 635 367 - 0.01;
#X msg 304 288 stop;
#X floatatom 588 370 5 0 0 0 - - -, f 5;
#X floatatom 588 396 5 0 0 0 - - -, f 5;
#X text 102 115 stop;
#X text 317 115 end;
#X obj 304 258 inlet;
#X connect 0 0 1 0;
#X connect 0 0 26 0;
#X connect 1 0 27 0;
#X connect 2 0 0 0;
#X connect 3 0 7 0;
#X connect 4 0 0 0;
#X connect 5 0 2 0;
#X connect 5 0 28 1;
#X connect 6 0 3 0;
#X connect 6 1 5 0;
#X connect 6 2 4 0;
#X connect 7 0 2 1;
#X connect 14 0 4 0;
#X connect 14 0 15 0;
#X connect 16 0 5 0;
#X connect 16 0 17 0;
#X connect 18 0 3 0;
#X connect 18 0 20 0;
#X connect 19 0 21 0;
#X connect 19 0 23 0;
#X connect 21 0 6 0;
#X connect 21 0 22 0;
#X connect 21 0 28 0;
#X connect 22 0 1 0;
#X connect 24 0 22 1;
#X connect 24 0 25 0;
#X connect 28 0 30 0;
#X connect 28 0 32 0;
#X connect 30 0 33 0;
#X connect 31 0 22 0;
#X connect 36 0 31 0;
#X coords 0 -1 1 1 300 60 1 100 100;
