#N canvas 636 115 724 611 10;
#N canvas 0 50 450 300 (subpatch) 0;
#X array array1 373248 float 2;
#X coords 0 1 373248 -1 200 150 1 0 0;
#X restore 193 135 graph;
#X obj 152 383 sig~;
#X msg 152 360 0;
#X obj 118 333 bng 15 250 50 0 empty empty empty 17 7 0 10 -262144
-1 -1;
#X msg 191 384 stop;
#X text 95 317 clear the window array;
#X obj 117 457 tabwrite~ array1;
#X obj 110 117 cnv 15 290 175 empty empty empty 20 12 0 14 -191808
-66577 0;
#X obj 193 135 cnv 15 200 150 empty empty empty 20 12 0 14 -232983
-66577 0;
#X obj 117 175 bng 20 250 50 0 empty empty clear 22 7 1 20 -232611
-1 -46160;
#X obj 191 361 delay 2000;
#X obj 117 139 bng 20 250 50 0 empty empty load 22 7 1 20 -232611 -1
-46160;
#X obj 421 54 openpanel;
#X obj 421 111 soundfiler;
#X msg 421 81 read -resize \$1 array1;
#X text 495 55 opens file selector dialog;
#X text 105 80 dsp has to be on for this part to work?;
#X msg 421 20 symbol wavs/;
#X connect 1 0 6 0;
#X connect 2 0 1 0;
#X connect 3 0 2 0;
#X connect 3 0 6 0;
#X connect 3 0 10 0;
#X connect 4 0 6 0;
#X connect 9 0 3 0;
#X connect 10 0 4 0;
#X connect 11 0 17 0;
#X connect 12 0 14 0;
#X connect 14 0 13 0;
#X connect 17 0 12 0;
#X coords 0 -1 1 1 310 195 1 100 100;
