#N canvas 9 66 1351 666 10;
#X obj 536 254 line~;
#X floatatom 601 120 5 200 2000 0 - - -, f 5;
#X obj 536 212 pack;
#X floatatom 511 87 5 0 0 0 - - -, f 5;
#X floatatom 601 37 5 0 44100 0 - - -, f 5;
#X obj 601 92 / 44.1;
#X floatatom 529 13 5 0 441 0 - - -, f 5;
#X obj 512 -47 metro 100;
#X msg 512 -80 stop;
#X floatatom 619 -136 5 30 500 0 - - -, f 5;
#X obj 289 -137 bng 15 250 50 0 empty empty empty 17 7 0 10 -262144
-1 -1;
#X obj 601 11 * 44.1;
#X obj 601 145 *;
#X floatatom 676 58 5 1 200 0 - - -, f 5;
#X obj 665 -175 bng 15 250 50 0 empty empty empty 17 7 0 10 -262144
-1 -1;
#X floatatom 536 189 5 0 0 0 - - -, f 5;
#X obj 690 387 *~;
#X obj 709 354 tabread4~ array2;
#X obj 708 326 line~;
#X text 600 75 convert from samples to ms;
#X text 634 146 scale the playback speed (in ms);
#X text 652 11 convert from ms to samples;
#X obj 708 295 pack;
#X msg 672 266 0;
#X obj 680 201 bng 15 250 50 0 empty empty empty 17 7 0 10 -262144
-1 -1;
#X floatatom 745 268 5 0 0 0 - - -, f 5;
#X obj 680 228 t b b b;
#X obj 511 34 +;
#X obj 601 -13 +;
#X obj 657 91 +;
#X obj 511 62 * 300;
#X obj 657 118 / 100;
#X obj 536 161 +;
#X obj 537 279 tabread4~ array1;
#X text 659 -136 length of the loop;
#X text 482 -4 loop start point;
#X text 716 54 pitch;
#X obj 619 -111 / 100;
#X msg 708 266 400;
#X floatatom 356 -97 5 0 0 0 - - -, f 5;
#X floatatom 414 -96 5 0 0 0 - - -, f 5;
#X floatatom 465 -106 5 0 0 0 - - -, f 5;
#X obj 465 -83 * 10;
#X msg 356 -124 76;
#X msg 414 -123 310;
#X obj 172 -28 danline;
#X text 686 87 these addition boxes make the numbers not cause bangs
when you change them until they get a bang from the metro;
#X obj 356 -179 loadbang;
#X msg 465 -130 16;
#X msg 619 -177 141;
#X obj 619 -216 loadbang;
#X obj 110 117 cnv 15 240 150 empty empty empty 20 12 0 14 -233017
-66577 0;
#X obj 275 148 vsl 20 100 1.27 127 0 0 empty empty time -8 -14 1 18
-249664 -214792 -71510 3380 1;
#X obj 188 147 vsl 20 100 0 127 0 0 empty empty start -8 -14 1 18 -249664
-214792 -71510 2075 1;
#X obj 232 147 vsl 20 100 0 127 0 0 empty empty stop -8 -14 1 18 -249664
-214792 -71510 8455 1;
#X obj 114 226 bng 20 250 50 0 empty empty stop 22 7 1 20 -228825 -260097
-49926;
#X obj 114 153 bng 20 250 50 0 empty empty start 22 7 1 20 -228825
-260097 -49926;
#X obj 232 291 * 3;
#X obj 188 288 * 3;
#X obj 232 70 / 3;
#X obj 188 69 / 3;
#X floatatom 511 112 5 0 0 0 - - -, f 5;
#X obj 84 381 metro 300;
#X obj 83 351 bng 15 250 50 0 empty empty empty 17 7 0 10 -262144 -1
-1;
#X msg 40 349 stop;
#X floatatom 144 358 5 1 1240 0 - - -, f 5;
#X obj 147 322 +;
#X obj 114 189 bng 20 250 50 0 empty empty loop 22 7 1 20 -228825 -260097
-49926;
#X obj 319 148 vsl 20 100 1.27 127 1 0 empty empty loop -8 -14 1 18
-249664 -214792 -71510 9300 1;
#X obj 319 292 * 10;
#X obj 373 62 loadbang;
#X msg 373 92 114;
#X obj 319 69 / 10;
#X obj 690 430 outlet~;
#X obj 704 -40 loadbang;
#X msg 704 -11 100;
#X obj 338 -68 +;
#X obj 396 -67 +;
#X obj 275 291 / 3;
#X obj 276 70 * 3;
#X obj 910 180 r windowlength;
#X text 890 137 windowlength is set in the danwindow subpatch;
#X obj 892 156 r windowbang;
#X obj 892 208 +;
#X floatatom 672 172 5 0 0 0 - - -, f 5;
#X connect 0 0 33 0;
#X connect 1 0 12 0;
#X connect 2 0 0 0;
#X connect 3 0 0 0;
#X connect 3 0 61 0;
#X connect 4 0 5 0;
#X connect 5 0 1 0;
#X connect 6 0 27 1;
#X connect 7 0 24 0;
#X connect 7 0 27 0;
#X connect 7 0 28 0;
#X connect 7 0 29 0;
#X connect 8 0 7 0;
#X connect 9 0 37 0;
#X connect 10 0 7 0;
#X connect 10 0 45 2;
#X connect 10 0 76 0;
#X connect 10 0 77 0;
#X connect 11 0 4 0;
#X connect 11 0 32 1;
#X connect 12 0 2 1;
#X connect 12 0 24 0;
#X connect 12 0 25 0;
#X connect 13 0 14 0;
#X connect 13 0 29 1;
#X connect 14 0 9 0;
#X connect 15 0 2 0;
#X connect 16 0 73 0;
#X connect 17 0 16 1;
#X connect 18 0 17 0;
#X connect 22 0 18 0;
#X connect 23 0 18 0;
#X connect 24 0 26 0;
#X connect 25 0 22 1;
#X connect 26 0 25 0;
#X connect 26 1 38 0;
#X connect 26 2 23 0;
#X connect 27 0 30 0;
#X connect 28 0 11 0;
#X connect 29 0 31 0;
#X connect 30 0 3 0;
#X connect 31 0 12 1;
#X connect 31 0 84 0;
#X connect 32 0 15 0;
#X connect 33 0 16 0;
#X connect 37 0 28 1;
#X connect 37 0 7 1;
#X connect 37 0 45 1;
#X connect 38 0 22 0;
#X connect 39 0 76 1;
#X connect 40 0 77 1;
#X connect 41 0 42 0;
#X connect 42 0 45 5;
#X connect 43 0 39 0;
#X connect 43 0 60 0;
#X connect 44 0 40 0;
#X connect 44 0 59 0;
#X connect 45 1 6 0;
#X connect 47 0 43 0;
#X connect 47 0 44 0;
#X connect 47 0 48 0;
#X connect 48 0 41 0;
#X connect 48 0 79 0;
#X connect 49 0 9 0;
#X connect 50 0 49 0;
#X connect 52 0 78 0;
#X connect 53 0 58 0;
#X connect 54 0 57 0;
#X connect 55 0 8 0;
#X connect 55 0 64 0;
#X connect 56 0 10 0;
#X connect 56 0 66 0;
#X connect 57 0 40 0;
#X connect 58 0 66 1;
#X connect 58 0 39 0;
#X connect 59 0 54 0;
#X connect 60 0 53 0;
#X connect 61 0 32 0;
#X connect 62 0 56 0;
#X connect 62 0 66 0;
#X connect 63 0 62 0;
#X connect 64 0 62 0;
#X connect 65 0 62 1;
#X connect 67 0 63 0;
#X connect 67 0 56 0;
#X connect 67 0 66 0;
#X connect 68 0 69 0;
#X connect 69 0 65 0;
#X connect 70 0 71 0;
#X connect 71 0 72 0;
#X connect 72 0 68 0;
#X connect 74 0 75 0;
#X connect 75 0 13 0;
#X connect 76 0 45 3;
#X connect 77 0 45 4;
#X connect 78 0 41 0;
#X connect 79 0 52 0;
#X connect 80 0 83 1;
#X connect 82 0 83 0;
#X connect 83 0 38 0;
#X coords 0 -1 1 1 260 170 1 100 100;
