#N canvas 276 194 1032 310 10;
#X obj 600 28 danwindow;
#X obj 280 28 danloadfile;
#X obj 11 28 danscrub;
#X obj 13 247 dac~;
#X obj 12 216 +~;
#X obj 42 216 +~;
#X text 9 8 input for arrays?;
#X text 601 187 try to change the "sharpness" while keeping the length
constant;
#X connect 2 0 4 0;
#X connect 2 0 5 0;
#X connect 4 0 3 0;
#X connect 5 0 3 1;
